<svg xmlns="http://www.w3.org/2000/svg" width="210" height="56" fill="none" viewBox="0 0 210 56"><rect width="200" height="49" x="9.5" y="6.5" fill="#BA0403" stroke="#000"/><rect width="203" height="49" x=".5" y=".5" stroke="#000"/><mask id="path-3-outside-1_1008_66" width="161" height="20" x="23" y="18" fill="#000" maskUnits="userSpaceOnUse"><rect width="161" height="20" x="23" y="18" fill="#fff"/><path d="M26.6738 31.0166C26.5996 31.7588 26.1914 32.1608 25.4492 32.2227C25.1029 32.2227 24.7998 32.1113 24.54 31.8887C24.2926 31.6536 24.1689 31.363 24.1689 31.0166V22.2217C24.1813 21.8753 24.3112 21.5908 24.5586 21.3682C24.806 21.1331 25.1029 21.0156 25.4492 21.0156H26.3584H28.6406H33.2236C33.2979 21.0156 33.3721 21.0218 33.4463 21.0342H33.5576C34.4235 21.0589 35.1348 21.2568 35.6914 21.6279C36.248 21.999 36.6501 22.4258 36.8975 22.9082C37.1449 23.3783 37.2686 23.8545 37.2686 24.3369C37.2686 24.8317 37.1449 25.3203 36.8975 25.8027C36.6624 26.2728 36.2604 26.6934 35.6914 27.0645C35.1348 27.4355 34.4235 27.6335 33.5576 27.6582H30.292C30.391 28.2767 30.5951 28.7344 30.9043 29.0312C31.2012 29.3281 31.5785 29.4766 32.0361 29.4766H36.0439C36.3903 29.4889 36.6748 29.6188 36.8975 29.8662C37.1325 30.1136 37.25 30.4105 37.25 30.7568C37.2376 31.0908 37.1139 31.3753 36.8789 31.6104C36.6562 31.833 36.3779 31.9505 36.0439 31.9629H31.7021C30.7868 31.9753 29.958 31.6165 29.2158 30.8867C28.4736 30.1569 28.0221 29.291 27.8613 28.2891C27.6387 27.1758 27.5273 26.5511 27.5273 26.415C27.5273 26.0687 27.6449 25.778 27.8799 25.543C28.1273 25.2956 28.4242 25.1719 28.7705 25.1719H33.6689C33.904 25.1595 34.0957 25.11 34.2441 25.0234C34.4049 24.9245 34.5225 24.8193 34.5967 24.708C34.6709 24.5843 34.708 24.4606 34.708 24.3369C34.708 24.2132 34.6709 24.0957 34.5967 23.9844C34.5225 23.8607 34.4049 23.7555 34.2441 23.6689C34.0957 23.57 33.904 23.5143 33.6689 23.502H28.6406H27.1562C26.8346 23.5143 26.6738 23.6751 26.6738 23.9844V31.0166ZM43.0762 31.9629C41.9876 31.9258 41.165 31.6722 40.6084 31.2021C40.0518 30.7197 39.6497 30.1816 39.4023 29.5879C39.1549 28.9818 39.0312 28.3695 39.0312 27.751C39.0312 27.1077 39.1488 26.4893 39.3838 25.8955C39.6312 25.2894 40.0332 24.7513 40.5898 24.2812C41.1589 23.7988 41.8763 23.5514 42.7422 23.5391H49.793C50.1393 23.5391 50.43 23.6566 50.665 23.8916C50.9124 24.1143 51.0361 24.3864 51.0361 24.708C51.0361 25.042 50.9124 25.3265 50.665 25.5615C50.43 25.7842 50.1393 25.8955 49.793 25.8955H42.8535C42.5814 25.8955 42.3402 25.9883 42.1299 26.1738C41.932 26.3594 41.7835 26.6006 41.6846 26.8975C41.598 27.1943 41.5547 27.485 41.5547 27.7695C41.5547 28.0788 41.598 28.3818 41.6846 28.6787C41.7835 28.9756 41.932 29.2168 42.1299 29.4023C42.3402 29.5755 42.5814 29.6683 42.8535 29.6807H49.793C50.1393 29.6807 50.43 29.792 50.665 30.0146C50.9124 30.2373 51.0361 30.5033 51.0361 30.8125C51.0361 31.1341 50.9124 31.4062 50.665 31.6289C50.43 31.8516 50.1393 31.9629 49.793 31.9629H43.0762ZM50.8135 27.7139C50.8135 27.9489 50.7083 28.153 50.498 28.3262C50.3125 28.487 50.0775 28.5674 49.793 28.5674H43.7256C43.4411 28.5674 43.1999 28.487 43.002 28.3262C42.804 28.153 42.7051 27.9489 42.7051 27.7139C42.7051 27.4912 42.804 27.2933 43.002 27.1201C43.1999 26.9593 43.4411 26.8789 43.7256 26.8789H49.793C50.0775 26.8789 50.3187 26.9655 50.5166 27.1387C50.7145 27.2995 50.8135 27.4912 50.8135 27.7139ZM63.5791 26.5078C63.5791 26.1986 63.4183 26.0378 63.0967 26.0254H56.6025C56.3675 26.0378 56.1634 26.1429 55.9902 26.3408C55.8171 26.5264 55.6872 26.749 55.6006 27.0088C55.5264 27.2562 55.4893 27.5098 55.4893 27.7695C55.4893 28.0169 55.5264 28.2705 55.6006 28.5303C55.6872 28.7777 55.8171 29.0003 55.9902 29.1982C56.1634 29.3838 56.3675 29.4766 56.6025 29.4766H61.3525C61.6989 29.4766 61.9896 29.6003 62.2246 29.8477C62.472 30.0827 62.5957 30.3734 62.5957 30.7197C62.5957 31.0661 62.472 31.3568 62.2246 31.5918C61.9896 31.8392 61.6989 31.9629 61.3525 31.9629H56.6768C55.8109 31.9505 55.0934 31.7093 54.5244 31.2393C53.9678 30.7568 53.5658 30.2188 53.3184 29.625C53.0833 29.0189 52.9658 28.3942 52.9658 27.751C52.9658 27.1325 53.0895 26.5264 53.3369 25.9326C53.5843 25.3265 53.9863 24.7884 54.543 24.3184C55.0996 23.8359 55.9222 23.5762 57.0107 23.5391H64.8037C65.1501 23.5391 65.4469 23.6566 65.6943 23.8916C65.9417 24.1143 66.0716 24.3988 66.084 24.7451V30.6084C66.084 31.598 65.9479 32.5319 65.6758 33.4102C65.4284 34.1895 65.0202 34.8451 64.4512 35.377C63.8945 35.9212 63.1833 36.2181 62.3174 36.2676H55.8975C55.5635 36.2552 55.279 36.1315 55.0439 35.8965C54.8213 35.6738 54.7038 35.3955 54.6914 35.0615C54.6914 34.7152 54.8027 34.4183 55.0254 34.1709C55.2604 33.9235 55.5511 33.7936 55.8975 33.7812H61.6865C62.1566 33.7565 62.5462 33.5771 62.8555 33.2432C63.1647 32.9092 63.3626 32.5195 63.4492 32.0742C63.5358 31.6289 63.5791 31.0537 63.5791 30.3486V26.5078ZM69.8691 23.3535C70.2031 23.3659 70.4876 23.4896 70.7227 23.7246C70.9577 23.9473 71.0814 24.2256 71.0938 24.5596V30.9795C71.0195 31.7217 70.6113 32.1237 69.8691 32.1855C69.5228 32.1855 69.2197 32.0742 68.96 31.8516C68.7126 31.6165 68.5889 31.3258 68.5889 30.9795V24.5596C68.6012 24.2132 68.7311 23.9287 68.9785 23.7061C69.2259 23.471 69.5228 23.3535 69.8691 23.3535ZM68.3105 20.9414C68.3105 20.5951 68.459 20.2982 68.7559 20.0508C69.0527 19.8034 69.4115 19.6797 69.832 19.6797C70.2526 19.6797 70.6113 19.8034 70.9082 20.0508C71.2051 20.2982 71.3535 20.5951 71.3535 20.9414C71.3535 21.3001 71.2051 21.6032 70.9082 21.8506C70.6113 22.098 70.2526 22.2217 69.832 22.2217C69.4115 22.2217 69.0527 22.098 68.7559 21.8506C68.459 21.6032 68.3105 21.3001 68.3105 20.9414ZM85.1396 24.6152C85.1396 24.9245 85.016 25.1842 84.7686 25.3945C84.5335 25.5924 84.2428 25.6914 83.8965 25.6914H76.0479C75.887 25.6914 75.7572 25.7223 75.6582 25.7842C75.5592 25.846 75.485 25.9141 75.4355 25.9883C75.3861 26.0501 75.3613 26.1058 75.3613 26.1553C75.3613 26.2171 75.3861 26.2852 75.4355 26.3594C75.485 26.4212 75.5592 26.4831 75.6582 26.5449C75.7572 26.5944 75.887 26.6253 76.0479 26.6377H82.1152C82.8945 26.6501 83.5378 26.8047 84.0449 27.1016C84.5521 27.3861 84.9108 27.7262 85.1211 28.1221C85.3438 28.5055 85.4551 28.8952 85.4551 29.291C85.4551 29.6745 85.3438 30.0641 85.1211 30.46C84.8984 30.8434 84.5335 31.1836 84.0264 31.4805C83.5316 31.765 82.8945 31.9072 82.1152 31.9072C81.9792 31.9196 81.8802 31.9258 81.8184 31.9258H74.6191C74.2728 31.9258 73.9759 31.8268 73.7285 31.6289C73.4935 31.4186 73.376 31.165 73.376 30.8682C73.376 30.5589 73.4997 30.2992 73.7471 30.0889C73.9821 29.891 74.2728 29.792 74.6191 29.792H82.2637C82.4492 29.8044 82.5977 29.7796 82.709 29.7178C82.8327 29.6559 82.9255 29.5879 82.9873 29.5137C83.0492 29.4395 83.0801 29.3652 83.0801 29.291C83.0801 29.2539 83.0492 29.1921 82.9873 29.1055C82.9255 29.0065 82.8327 28.9323 82.709 28.8828C82.5977 28.821 82.4492 28.7839 82.2637 28.7715H76.1777C75.4603 28.7591 74.8665 28.6107 74.3965 28.3262C73.9264 28.0293 73.5924 27.6891 73.3945 27.3057C73.1966 26.9222 73.0977 26.5387 73.0977 26.1553C73.0977 25.7718 73.1966 25.3945 73.3945 25.0234C73.6048 24.64 73.9388 24.3122 74.3965 24.04C74.8665 23.7555 75.4603 23.6009 76.1777 23.5762C76.3014 23.5638 76.3942 23.5576 76.4561 23.5576H83.8965C84.2428 23.5576 84.5335 23.6628 84.7686 23.873C85.016 24.071 85.1396 24.3184 85.1396 24.6152ZM91.541 20.7188C91.8874 20.7188 92.1842 20.8363 92.4316 21.0713C92.679 21.2939 92.8089 21.5785 92.8213 21.9248V23.5391H99.1299C99.4762 23.5391 99.7731 23.6566 100.021 23.8916C100.256 24.139 100.373 24.4359 100.373 24.7822C100.373 25.1286 100.249 25.4255 100.002 25.6729C99.7669 25.9079 99.4762 26.0254 99.1299 26.0254H92.8213V26.3965C92.8089 26.9036 92.8398 27.3737 92.9141 27.8066C93.0007 28.2272 93.1986 28.6045 93.5078 28.9385C93.8171 29.2725 94.2067 29.4518 94.6768 29.4766H99.2041C99.5505 29.4889 99.835 29.6188 100.058 29.8662C100.293 30.1136 100.41 30.4105 100.41 30.7568C100.398 31.0908 100.274 31.3753 100.039 31.6104C99.8164 31.833 99.5381 31.9505 99.2041 31.9629H94.0459C93.18 31.9134 92.4626 31.6227 91.8936 31.0908C91.3369 30.5465 90.9349 29.8848 90.6875 29.1055C90.4525 28.3262 90.3288 27.4974 90.3164 26.6191V26.0254H88.1826C87.8363 26.0254 87.5456 25.9017 87.3105 25.6543C87.0632 25.4193 86.9395 25.1286 86.9395 24.7822C86.9395 24.4359 87.057 24.1452 87.292 23.9102C87.5394 23.6628 87.8363 23.5391 88.1826 23.5391H90.3164V21.9248C90.3288 21.5908 90.4525 21.3125 90.6875 21.0898C90.9225 20.8548 91.207 20.7311 91.541 20.7188ZM105.995 31.9629C104.907 31.9258 104.084 31.6722 103.527 31.2021C102.971 30.7197 102.569 30.1816 102.321 29.5879C102.074 28.9818 101.95 28.3695 101.95 27.751C101.95 27.1077 102.068 26.4893 102.303 25.8955C102.55 25.2894 102.952 24.7513 103.509 24.2812C104.078 23.7988 104.795 23.5514 105.661 23.5391H112.712C113.058 23.5391 113.349 23.6566 113.584 23.8916C113.831 24.1143 113.955 24.3864 113.955 24.708C113.955 25.042 113.831 25.3265 113.584 25.5615C113.349 25.7842 113.058 25.8955 112.712 25.8955H105.772C105.5 25.8955 105.259 25.9883 105.049 26.1738C104.851 26.3594 104.702 26.6006 104.604 26.8975C104.517 27.1943 104.474 27.485 104.474 27.7695C104.474 28.0788 104.517 28.3818 104.604 28.6787C104.702 28.9756 104.851 29.2168 105.049 29.4023C105.259 29.5755 105.5 29.6683 105.772 29.6807H112.712C113.058 29.6807 113.349 29.792 113.584 30.0146C113.831 30.2373 113.955 30.5033 113.955 30.8125C113.955 31.1341 113.831 31.4062 113.584 31.6289C113.349 31.8516 113.058 31.9629 112.712 31.9629H105.995ZM113.732 27.7139C113.732 27.9489 113.627 28.153 113.417 28.3262C113.231 28.487 112.996 28.5674 112.712 28.5674H106.645C106.36 28.5674 106.119 28.487 105.921 28.3262C105.723 28.153 105.624 27.9489 105.624 27.7139C105.624 27.4912 105.723 27.2933 105.921 27.1201C106.119 26.9593 106.36 26.8789 106.645 26.8789H112.712C112.996 26.8789 113.238 26.9655 113.436 27.1387C113.633 27.2995 113.732 27.4912 113.732 27.7139ZM116.479 25.877C116.714 25.2832 117.109 24.7513 117.666 24.2812C118.235 23.7988 118.952 23.5514 119.818 23.5391H126.795C127.141 23.5391 127.432 23.6628 127.667 23.9102C127.914 24.1452 128.038 24.4359 128.038 24.7822C128.038 25.1286 127.914 25.4255 127.667 25.6729C127.432 25.9079 127.141 26.0254 126.795 26.0254H119.744C119.509 26.0254 119.305 26.1243 119.132 26.3223C118.959 26.5078 118.823 26.7305 118.724 26.9902C118.637 27.25 118.594 27.4974 118.594 27.7324V30.9795C118.52 31.7217 118.111 32.1237 117.369 32.1855C117.023 32.1855 116.72 32.0742 116.46 31.8516C116.213 31.6165 116.089 31.3258 116.089 30.9795V27.751H116.107C116.107 27.1077 116.231 26.4831 116.479 25.877ZM145.294 23.2607C145.937 23.2607 146.568 23.335 147.187 23.4834C147.817 23.6318 148.417 23.8545 148.986 24.1514C149.555 24.4359 150.056 24.8193 150.489 25.3018C150.935 25.7842 151.176 26.3594 151.213 27.0273V27.8066V30.9795C151.139 31.7217 150.73 32.1237 149.988 32.1855C149.642 32.1855 149.339 32.0742 149.079 31.8516C148.832 31.6165 148.708 31.3258 148.708 30.9795V30.1631V27.6025C148.683 27.2191 148.535 26.9036 148.263 26.6562C148.003 26.3965 147.706 26.1924 147.372 26.0439C147.05 25.8955 146.71 25.7842 146.352 25.71C146.005 25.6357 145.653 25.5986 145.294 25.5986C144.935 25.5986 144.576 25.6357 144.218 25.71C143.871 25.7842 143.531 25.8955 143.197 26.0439C142.876 26.1924 142.579 26.3965 142.307 26.6562C142.047 26.9036 141.905 27.2191 141.88 27.6025V30.1631V30.9795C141.818 31.7217 141.416 32.1237 140.674 32.1855C140.327 32.1855 140.024 32.0742 139.765 31.8516C139.517 31.6165 139.394 31.3258 139.394 30.9795V27.8066V27.0273C139.431 26.3594 139.666 25.7842 140.099 25.3018C140.532 24.8193 141.033 24.4359 141.602 24.1514C142.171 23.8545 142.764 23.6318 143.383 23.4834C144.014 23.335 144.651 23.2607 145.294 23.2607ZM157.41 31.9629C156.322 31.9258 155.499 31.6722 154.942 31.2021C154.386 30.7197 153.984 30.1816 153.736 29.5879C153.489 28.9818 153.365 28.3695 153.365 27.751C153.365 27.1077 153.483 26.4893 153.718 25.8955C153.965 25.2894 154.367 24.7513 154.924 24.2812C155.493 23.7988 156.21 23.5514 157.076 23.5391H163.088C163.954 23.5514 164.665 23.7988 165.222 24.2812C165.791 24.7513 166.193 25.2894 166.428 25.8955C166.675 26.4893 166.799 27.1077 166.799 27.751C166.799 28.3695 166.675 28.9818 166.428 29.5879C166.18 30.1816 165.778 30.7197 165.222 31.2021C164.665 31.6722 163.842 31.9258 162.754 31.9629H157.41ZM157.002 26.0254C156.767 26.0254 156.563 26.1243 156.39 26.3223C156.216 26.5078 156.087 26.7305 156 26.9902C155.926 27.2376 155.889 27.485 155.889 27.7324C155.889 27.9922 155.926 28.252 156 28.5117C156.087 28.7591 156.216 28.9818 156.39 29.1797C156.563 29.3652 156.767 29.4642 157.002 29.4766H163.162C163.397 29.4642 163.601 29.3652 163.774 29.1797C163.948 28.9818 164.071 28.7591 164.146 28.5117C164.232 28.252 164.275 27.9922 164.275 27.7324C164.275 27.485 164.232 27.2376 164.146 26.9902C164.071 26.7305 163.948 26.5078 163.774 26.3223C163.601 26.1243 163.397 26.0254 163.162 26.0254H157.002ZM172.866 32.2041C172.446 32.2041 172.025 32.1299 171.604 31.9814C171.196 31.833 170.8 31.6165 170.417 31.332C170.034 31.0352 169.7 30.6455 169.415 30.1631C169.131 29.6807 168.976 29.1055 168.951 28.4375V24.4854C168.951 24.139 169.075 23.8545 169.322 23.6318C169.582 23.3968 169.885 23.2793 170.231 23.2793C170.974 23.3411 171.376 23.7432 171.438 24.4854V28.2891C171.45 28.5859 171.512 28.8395 171.623 29.0498C171.734 29.2477 171.858 29.4085 171.994 29.5322C172.13 29.6436 172.266 29.7301 172.402 29.792C172.551 29.8415 172.699 29.8662 172.848 29.8662C172.996 29.8662 173.145 29.8415 173.293 29.792C173.441 29.7301 173.584 29.6436 173.72 29.5322C173.856 29.4085 173.979 29.2477 174.091 29.0498C174.202 28.8395 174.258 28.5859 174.258 28.2891V24.4854C174.258 24.139 174.382 23.8545 174.629 23.6318C174.889 23.3968 175.192 23.2793 175.538 23.2793C176.28 23.3411 176.688 23.7432 176.763 24.4854V28.2891C176.775 28.5859 176.837 28.8333 176.948 29.0312C177.06 29.2415 177.183 29.4085 177.319 29.5322C177.455 29.6436 177.591 29.7301 177.728 29.792C177.876 29.8415 178.024 29.8662 178.173 29.8662C178.321 29.8662 178.47 29.8415 178.618 29.792C178.767 29.7301 178.909 29.6436 179.045 29.5322C179.181 29.4085 179.305 29.2477 179.416 29.0498C179.527 28.8395 179.583 28.5859 179.583 28.2891V24.4854C179.583 24.139 179.707 23.8545 179.954 23.6318C180.214 23.3968 180.517 23.2793 180.863 23.2793C181.605 23.3411 182.014 23.7432 182.088 24.4854V28.4375C182.088 29.1055 181.939 29.6807 181.643 30.1631C181.358 30.6455 181.024 31.0352 180.641 31.332C180.27 31.6165 179.874 31.833 179.453 31.9814C179.045 32.1299 178.624 32.2041 178.191 32.2041C177.771 32.2041 177.35 32.1299 176.93 31.9814C176.521 31.833 176.126 31.6104 175.742 31.3135C175.668 31.264 175.6 31.2083 175.538 31.1465C175.464 31.2083 175.396 31.264 175.334 31.3135C174.951 31.6104 174.549 31.833 174.128 31.9814C173.72 32.1299 173.299 32.2041 172.866 32.2041Z"/></mask><path fill="#fff" d="M26.6738 31.0166C26.5996 31.7588 26.1914 32.1608 25.4492 32.2227C25.1029 32.2227 24.7998 32.1113 24.54 31.8887C24.2926 31.6536 24.1689 31.363 24.1689 31.0166V22.2217C24.1813 21.8753 24.3112 21.5908 24.5586 21.3682C24.806 21.1331 25.1029 21.0156 25.4492 21.0156H26.3584H28.6406H33.2236C33.2979 21.0156 33.3721 21.0218 33.4463 21.0342H33.5576C34.4235 21.0589 35.1348 21.2568 35.6914 21.6279C36.248 21.999 36.6501 22.4258 36.8975 22.9082C37.1449 23.3783 37.2686 23.8545 37.2686 24.3369C37.2686 24.8317 37.1449 25.3203 36.8975 25.8027C36.6624 26.2728 36.2604 26.6934 35.6914 27.0645C35.1348 27.4355 34.4235 27.6335 33.5576 27.6582H30.292C30.391 28.2767 30.5951 28.7344 30.9043 29.0312C31.2012 29.3281 31.5785 29.4766 32.0361 29.4766H36.0439C36.3903 29.4889 36.6748 29.6188 36.8975 29.8662C37.1325 30.1136 37.25 30.4105 37.25 30.7568C37.2376 31.0908 37.1139 31.3753 36.8789 31.6104C36.6562 31.833 36.3779 31.9505 36.0439 31.9629H31.7021C30.7868 31.9753 29.958 31.6165 29.2158 30.8867C28.4736 30.1569 28.0221 29.291 27.8613 28.2891C27.6387 27.1758 27.5273 26.5511 27.5273 26.415C27.5273 26.0687 27.6449 25.778 27.8799 25.543C28.1273 25.2956 28.4242 25.1719 28.7705 25.1719H33.6689C33.904 25.1595 34.0957 25.11 34.2441 25.0234C34.4049 24.9245 34.5225 24.8193 34.5967 24.708C34.6709 24.5843 34.708 24.4606 34.708 24.3369C34.708 24.2132 34.6709 24.0957 34.5967 23.9844C34.5225 23.8607 34.4049 23.7555 34.2441 23.6689C34.0957 23.57 33.904 23.5143 33.6689 23.502H28.6406H27.1562C26.8346 23.5143 26.6738 23.6751 26.6738 23.9844V31.0166ZM43.0762 31.9629C41.9876 31.9258 41.165 31.6722 40.6084 31.2021C40.0518 30.7197 39.6497 30.1816 39.4023 29.5879C39.1549 28.9818 39.0312 28.3695 39.0312 27.751C39.0312 27.1077 39.1488 26.4893 39.3838 25.8955C39.6312 25.2894 40.0332 24.7513 40.5898 24.2812C41.1589 23.7988 41.8763 23.5514 42.7422 23.5391H49.793C50.1393 23.5391 50.43 23.6566 50.665 23.8916C50.9124 24.1143 51.0361 24.3864 51.0361 24.708C51.0361 25.042 50.9124 25.3265 50.665 25.5615C50.43 25.7842 50.1393 25.8955 49.793 25.8955H42.8535C42.5814 25.8955 42.3402 25.9883 42.1299 26.1738C41.932 26.3594 41.7835 26.6006 41.6846 26.8975C41.598 27.1943 41.5547 27.485 41.5547 27.7695C41.5547 28.0788 41.598 28.3818 41.6846 28.6787C41.7835 28.9756 41.932 29.2168 42.1299 29.4023C42.3402 29.5755 42.5814 29.6683 42.8535 29.6807H49.793C50.1393 29.6807 50.43 29.792 50.665 30.0146C50.9124 30.2373 51.0361 30.5033 51.0361 30.8125C51.0361 31.1341 50.9124 31.4062 50.665 31.6289C50.43 31.8516 50.1393 31.9629 49.793 31.9629H43.0762ZM50.8135 27.7139C50.8135 27.9489 50.7083 28.153 50.498 28.3262C50.3125 28.487 50.0775 28.5674 49.793 28.5674H43.7256C43.4411 28.5674 43.1999 28.487 43.002 28.3262C42.804 28.153 42.7051 27.9489 42.7051 27.7139C42.7051 27.4912 42.804 27.2933 43.002 27.1201C43.1999 26.9593 43.4411 26.8789 43.7256 26.8789H49.793C50.0775 26.8789 50.3187 26.9655 50.5166 27.1387C50.7145 27.2995 50.8135 27.4912 50.8135 27.7139ZM63.5791 26.5078C63.5791 26.1986 63.4183 26.0378 63.0967 26.0254H56.6025C56.3675 26.0378 56.1634 26.1429 55.9902 26.3408C55.8171 26.5264 55.6872 26.749 55.6006 27.0088C55.5264 27.2562 55.4893 27.5098 55.4893 27.7695C55.4893 28.0169 55.5264 28.2705 55.6006 28.5303C55.6872 28.7777 55.8171 29.0003 55.9902 29.1982C56.1634 29.3838 56.3675 29.4766 56.6025 29.4766H61.3525C61.6989 29.4766 61.9896 29.6003 62.2246 29.8477C62.472 30.0827 62.5957 30.3734 62.5957 30.7197C62.5957 31.0661 62.472 31.3568 62.2246 31.5918C61.9896 31.8392 61.6989 31.9629 61.3525 31.9629H56.6768C55.8109 31.9505 55.0934 31.7093 54.5244 31.2393C53.9678 30.7568 53.5658 30.2188 53.3184 29.625C53.0833 29.0189 52.9658 28.3942 52.9658 27.751C52.9658 27.1325 53.0895 26.5264 53.3369 25.9326C53.5843 25.3265 53.9863 24.7884 54.543 24.3184C55.0996 23.8359 55.9222 23.5762 57.0107 23.5391H64.8037C65.1501 23.5391 65.4469 23.6566 65.6943 23.8916C65.9417 24.1143 66.0716 24.3988 66.084 24.7451V30.6084C66.084 31.598 65.9479 32.5319 65.6758 33.4102C65.4284 34.1895 65.0202 34.8451 64.4512 35.377C63.8945 35.9212 63.1833 36.2181 62.3174 36.2676H55.8975C55.5635 36.2552 55.279 36.1315 55.0439 35.8965C54.8213 35.6738 54.7038 35.3955 54.6914 35.0615C54.6914 34.7152 54.8027 34.4183 55.0254 34.1709C55.2604 33.9235 55.5511 33.7936 55.8975 33.7812H61.6865C62.1566 33.7565 62.5462 33.5771 62.8555 33.2432C63.1647 32.9092 63.3626 32.5195 63.4492 32.0742C63.5358 31.6289 63.5791 31.0537 63.5791 30.3486V26.5078ZM69.8691 23.3535C70.2031 23.3659 70.4876 23.4896 70.7227 23.7246C70.9577 23.9473 71.0814 24.2256 71.0938 24.5596V30.9795C71.0195 31.7217 70.6113 32.1237 69.8691 32.1855C69.5228 32.1855 69.2197 32.0742 68.96 31.8516C68.7126 31.6165 68.5889 31.3258 68.5889 30.9795V24.5596C68.6012 24.2132 68.7311 23.9287 68.9785 23.7061C69.2259 23.471 69.5228 23.3535 69.8691 23.3535ZM68.3105 20.9414C68.3105 20.5951 68.459 20.2982 68.7559 20.0508C69.0527 19.8034 69.4115 19.6797 69.832 19.6797C70.2526 19.6797 70.6113 19.8034 70.9082 20.0508C71.2051 20.2982 71.3535 20.5951 71.3535 20.9414C71.3535 21.3001 71.2051 21.6032 70.9082 21.8506C70.6113 22.098 70.2526 22.2217 69.832 22.2217C69.4115 22.2217 69.0527 22.098 68.7559 21.8506C68.459 21.6032 68.3105 21.3001 68.3105 20.9414ZM85.1396 24.6152C85.1396 24.9245 85.016 25.1842 84.7686 25.3945C84.5335 25.5924 84.2428 25.6914 83.8965 25.6914H76.0479C75.887 25.6914 75.7572 25.7223 75.6582 25.7842C75.5592 25.846 75.485 25.9141 75.4355 25.9883C75.3861 26.0501 75.3613 26.1058 75.3613 26.1553C75.3613 26.2171 75.3861 26.2852 75.4355 26.3594C75.485 26.4212 75.5592 26.4831 75.6582 26.5449C75.7572 26.5944 75.887 26.6253 76.0479 26.6377H82.1152C82.8945 26.6501 83.5378 26.8047 84.0449 27.1016C84.5521 27.3861 84.9108 27.7262 85.1211 28.1221C85.3438 28.5055 85.4551 28.8952 85.4551 29.291C85.4551 29.6745 85.3438 30.0641 85.1211 30.46C84.8984 30.8434 84.5335 31.1836 84.0264 31.4805C83.5316 31.765 82.8945 31.9072 82.1152 31.9072C81.9792 31.9196 81.8802 31.9258 81.8184 31.9258H74.6191C74.2728 31.9258 73.9759 31.8268 73.7285 31.6289C73.4935 31.4186 73.376 31.165 73.376 30.8682C73.376 30.5589 73.4997 30.2992 73.7471 30.0889C73.9821 29.891 74.2728 29.792 74.6191 29.792H82.2637C82.4492 29.8044 82.5977 29.7796 82.709 29.7178C82.8327 29.6559 82.9255 29.5879 82.9873 29.5137C83.0492 29.4395 83.0801 29.3652 83.0801 29.291C83.0801 29.2539 83.0492 29.1921 82.9873 29.1055C82.9255 29.0065 82.8327 28.9323 82.709 28.8828C82.5977 28.821 82.4492 28.7839 82.2637 28.7715H76.1777C75.4603 28.7591 74.8665 28.6107 74.3965 28.3262C73.9264 28.0293 73.5924 27.6891 73.3945 27.3057C73.1966 26.9222 73.0977 26.5387 73.0977 26.1553C73.0977 25.7718 73.1966 25.3945 73.3945 25.0234C73.6048 24.64 73.9388 24.3122 74.3965 24.04C74.8665 23.7555 75.4603 23.6009 76.1777 23.5762C76.3014 23.5638 76.3942 23.5576 76.4561 23.5576H83.8965C84.2428 23.5576 84.5335 23.6628 84.7686 23.873C85.016 24.071 85.1396 24.3184 85.1396 24.6152ZM91.541 20.7188C91.8874 20.7188 92.1842 20.8363 92.4316 21.0713C92.679 21.2939 92.8089 21.5785 92.8213 21.9248V23.5391H99.1299C99.4762 23.5391 99.7731 23.6566 100.021 23.8916C100.256 24.139 100.373 24.4359 100.373 24.7822C100.373 25.1286 100.249 25.4255 100.002 25.6729C99.7669 25.9079 99.4762 26.0254 99.1299 26.0254H92.8213V26.3965C92.8089 26.9036 92.8398 27.3737 92.9141 27.8066C93.0007 28.2272 93.1986 28.6045 93.5078 28.9385C93.8171 29.2725 94.2067 29.4518 94.6768 29.4766H99.2041C99.5505 29.4889 99.835 29.6188 100.058 29.8662C100.293 30.1136 100.41 30.4105 100.41 30.7568C100.398 31.0908 100.274 31.3753 100.039 31.6104C99.8164 31.833 99.5381 31.9505 99.2041 31.9629H94.0459C93.18 31.9134 92.4626 31.6227 91.8936 31.0908C91.3369 30.5465 90.9349 29.8848 90.6875 29.1055C90.4525 28.3262 90.3288 27.4974 90.3164 26.6191V26.0254H88.1826C87.8363 26.0254 87.5456 25.9017 87.3105 25.6543C87.0632 25.4193 86.9395 25.1286 86.9395 24.7822C86.9395 24.4359 87.057 24.1452 87.292 23.9102C87.5394 23.6628 87.8363 23.5391 88.1826 23.5391H90.3164V21.9248C90.3288 21.5908 90.4525 21.3125 90.6875 21.0898C90.9225 20.8548 91.207 20.7311 91.541 20.7188ZM105.995 31.9629C104.907 31.9258 104.084 31.6722 103.527 31.2021C102.971 30.7197 102.569 30.1816 102.321 29.5879C102.074 28.9818 101.95 28.3695 101.95 27.751C101.95 27.1077 102.068 26.4893 102.303 25.8955C102.55 25.2894 102.952 24.7513 103.509 24.2812C104.078 23.7988 104.795 23.5514 105.661 23.5391H112.712C113.058 23.5391 113.349 23.6566 113.584 23.8916C113.831 24.1143 113.955 24.3864 113.955 24.708C113.955 25.042 113.831 25.3265 113.584 25.5615C113.349 25.7842 113.058 25.8955 112.712 25.8955H105.772C105.5 25.8955 105.259 25.9883 105.049 26.1738C104.851 26.3594 104.702 26.6006 104.604 26.8975C104.517 27.1943 104.474 27.485 104.474 27.7695C104.474 28.0788 104.517 28.3818 104.604 28.6787C104.702 28.9756 104.851 29.2168 105.049 29.4023C105.259 29.5755 105.5 29.6683 105.772 29.6807H112.712C113.058 29.6807 113.349 29.792 113.584 30.0146C113.831 30.2373 113.955 30.5033 113.955 30.8125C113.955 31.1341 113.831 31.4062 113.584 31.6289C113.349 31.8516 113.058 31.9629 112.712 31.9629H105.995ZM113.732 27.7139C113.732 27.9489 113.627 28.153 113.417 28.3262C113.231 28.487 112.996 28.5674 112.712 28.5674H106.645C106.36 28.5674 106.119 28.487 105.921 28.3262C105.723 28.153 105.624 27.9489 105.624 27.7139C105.624 27.4912 105.723 27.2933 105.921 27.1201C106.119 26.9593 106.36 26.8789 106.645 26.8789H112.712C112.996 26.8789 113.238 26.9655 113.436 27.1387C113.633 27.2995 113.732 27.4912 113.732 27.7139ZM116.479 25.877C116.714 25.2832 117.109 24.7513 117.666 24.2812C118.235 23.7988 118.952 23.5514 119.818 23.5391H126.795C127.141 23.5391 127.432 23.6628 127.667 23.9102C127.914 24.1452 128.038 24.4359 128.038 24.7822C128.038 25.1286 127.914 25.4255 127.667 25.6729C127.432 25.9079 127.141 26.0254 126.795 26.0254H119.744C119.509 26.0254 119.305 26.1243 119.132 26.3223C118.959 26.5078 118.823 26.7305 118.724 26.9902C118.637 27.25 118.594 27.4974 118.594 27.7324V30.9795C118.52 31.7217 118.111 32.1237 117.369 32.1855C117.023 32.1855 116.72 32.0742 116.46 31.8516C116.213 31.6165 116.089 31.3258 116.089 30.9795V27.751H116.107C116.107 27.1077 116.231 26.4831 116.479 25.877ZM145.294 23.2607C145.937 23.2607 146.568 23.335 147.187 23.4834C147.817 23.6318 148.417 23.8545 148.986 24.1514C149.555 24.4359 150.056 24.8193 150.489 25.3018C150.935 25.7842 151.176 26.3594 151.213 27.0273V27.8066V30.9795C151.139 31.7217 150.73 32.1237 149.988 32.1855C149.642 32.1855 149.339 32.0742 149.079 31.8516C148.832 31.6165 148.708 31.3258 148.708 30.9795V30.1631V27.6025C148.683 27.2191 148.535 26.9036 148.263 26.6562C148.003 26.3965 147.706 26.1924 147.372 26.0439C147.05 25.8955 146.71 25.7842 146.352 25.71C146.005 25.6357 145.653 25.5986 145.294 25.5986C144.935 25.5986 144.576 25.6357 144.218 25.71C143.871 25.7842 143.531 25.8955 143.197 26.0439C142.876 26.1924 142.579 26.3965 142.307 26.6562C142.047 26.9036 141.905 27.2191 141.88 27.6025V30.1631V30.9795C141.818 31.7217 141.416 32.1237 140.674 32.1855C140.327 32.1855 140.024 32.0742 139.765 31.8516C139.517 31.6165 139.394 31.3258 139.394 30.9795V27.8066V27.0273C139.431 26.3594 139.666 25.7842 140.099 25.3018C140.532 24.8193 141.033 24.4359 141.602 24.1514C142.171 23.8545 142.764 23.6318 143.383 23.4834C144.014 23.335 144.651 23.2607 145.294 23.2607ZM157.41 31.9629C156.322 31.9258 155.499 31.6722 154.942 31.2021C154.386 30.7197 153.984 30.1816 153.736 29.5879C153.489 28.9818 153.365 28.3695 153.365 27.751C153.365 27.1077 153.483 26.4893 153.718 25.8955C153.965 25.2894 154.367 24.7513 154.924 24.2812C155.493 23.7988 156.21 23.5514 157.076 23.5391H163.088C163.954 23.5514 164.665 23.7988 165.222 24.2812C165.791 24.7513 166.193 25.2894 166.428 25.8955C166.675 26.4893 166.799 27.1077 166.799 27.751C166.799 28.3695 166.675 28.9818 166.428 29.5879C166.18 30.1816 165.778 30.7197 165.222 31.2021C164.665 31.6722 163.842 31.9258 162.754 31.9629H157.41ZM157.002 26.0254C156.767 26.0254 156.563 26.1243 156.39 26.3223C156.216 26.5078 156.087 26.7305 156 26.9902C155.926 27.2376 155.889 27.485 155.889 27.7324C155.889 27.9922 155.926 28.252 156 28.5117C156.087 28.7591 156.216 28.9818 156.39 29.1797C156.563 29.3652 156.767 29.4642 157.002 29.4766H163.162C163.397 29.4642 163.601 29.3652 163.774 29.1797C163.948 28.9818 164.071 28.7591 164.146 28.5117C164.232 28.252 164.275 27.9922 164.275 27.7324C164.275 27.485 164.232 27.2376 164.146 26.9902C164.071 26.7305 163.948 26.5078 163.774 26.3223C163.601 26.1243 163.397 26.0254 163.162 26.0254H157.002ZM172.866 32.2041C172.446 32.2041 172.025 32.1299 171.604 31.9814C171.196 31.833 170.8 31.6165 170.417 31.332C170.034 31.0352 169.7 30.6455 169.415 30.1631C169.131 29.6807 168.976 29.1055 168.951 28.4375V24.4854C168.951 24.139 169.075 23.8545 169.322 23.6318C169.582 23.3968 169.885 23.2793 170.231 23.2793C170.974 23.3411 171.376 23.7432 171.438 24.4854V28.2891C171.45 28.5859 171.512 28.8395 171.623 29.0498C171.734 29.2477 171.858 29.4085 171.994 29.5322C172.13 29.6436 172.266 29.7301 172.402 29.792C172.551 29.8415 172.699 29.8662 172.848 29.8662C172.996 29.8662 173.145 29.8415 173.293 29.792C173.441 29.7301 173.584 29.6436 173.72 29.5322C173.856 29.4085 173.979 29.2477 174.091 29.0498C174.202 28.8395 174.258 28.5859 174.258 28.2891V24.4854C174.258 24.139 174.382 23.8545 174.629 23.6318C174.889 23.3968 175.192 23.2793 175.538 23.2793C176.28 23.3411 176.688 23.7432 176.763 24.4854V28.2891C176.775 28.5859 176.837 28.8333 176.948 29.0312C177.06 29.2415 177.183 29.4085 177.319 29.5322C177.455 29.6436 177.591 29.7301 177.728 29.792C177.876 29.8415 178.024 29.8662 178.173 29.8662C178.321 29.8662 178.47 29.8415 178.618 29.792C178.767 29.7301 178.909 29.6436 179.045 29.5322C179.181 29.4085 179.305 29.2477 179.416 29.0498C179.527 28.8395 179.583 28.5859 179.583 28.2891V24.4854C179.583 24.139 179.707 23.8545 179.954 23.6318C180.214 23.3968 180.517 23.2793 180.863 23.2793C181.605 23.3411 182.014 23.7432 182.088 24.4854V28.4375C182.088 29.1055 181.939 29.6807 181.643 30.1631C181.358 30.6455 181.024 31.0352 180.641 31.332C180.27 31.6165 179.874 31.833 179.453 31.9814C179.045 32.1299 178.624 32.2041 178.191 32.2041C177.771 32.2041 177.35 32.1299 176.93 31.9814C176.521 31.833 176.126 31.6104 175.742 31.3135C175.668 31.264 175.6 31.2083 175.538 31.1465C175.464 31.2083 175.396 31.264 175.334 31.3135C174.951 31.6104 174.549 31.833 174.128 31.9814C173.72 32.1299 173.299 32.2041 172.866 32.2041Z"/><path fill="#000" d="M26.6738 31.0166L27.6689 31.1161L27.6738 31.0665V31.0166H26.6738ZM25.4492 32.2227V33.2227H25.4908L25.5323 33.2192L25.4492 32.2227ZM24.54 31.8887L23.8513 32.6137L23.8698 32.6313L23.8892 32.6479L24.54 31.8887ZM24.1689 22.2217L23.1696 22.186L23.1689 22.2038V22.2217H24.1689ZM24.5586 21.3682L25.2276 22.1115L25.2376 22.1024L25.2473 22.0932L24.5586 21.3682ZM33.4463 21.0342L33.2819 22.0206L33.3635 22.0342H33.4463V21.0342ZM33.5576 21.0342L33.5862 20.0346L33.5719 20.0342H33.5576V21.0342ZM36.8975 22.9082L36.0076 23.3645L36.0125 23.3739L36.8975 22.9082ZM36.8975 25.8027L36.0076 25.3464L36.003 25.3555L36.8975 25.8027ZM35.6914 27.0645L35.1451 26.2268L35.1367 26.2324L35.6914 27.0645ZM33.5576 27.6582V28.6582H33.5719L33.5862 28.6578L33.5576 27.6582ZM30.292 27.6582V26.6582H29.1193L29.3046 27.8162L30.292 27.6582ZM30.9043 29.0312L31.6114 28.3241L31.6042 28.3169L31.5968 28.3099L30.9043 29.0312ZM36.0439 29.4766L36.0796 28.4772L36.0618 28.4766H36.0439V29.4766ZM36.8975 29.8662L36.1542 30.5352L36.1632 30.5452L36.1725 30.555L36.8975 29.8662ZM37.25 30.7568L38.2493 30.7938L38.25 30.7753V30.7568H37.25ZM36.8789 31.6104L37.586 32.3175L36.8789 31.6104ZM36.0439 31.9629V32.9629H36.0625L36.081 32.9622L36.0439 31.9629ZM31.7021 31.9629V30.9628L31.6886 30.963L31.7021 31.9629ZM27.8613 28.2891L28.8487 28.1306L28.8457 28.1117L28.8419 28.0929L27.8613 28.2891ZM27.8799 25.543L27.1728 24.8359L27.8799 25.543ZM33.6689 25.1719V26.1719H33.6952L33.7215 26.1705L33.6689 25.1719ZM34.2441 25.0234L34.748 25.8872L34.7582 25.8813L34.7682 25.8751L34.2441 25.0234ZM34.5967 24.708L35.4287 25.2627L35.4419 25.2429L35.4542 25.2225L34.5967 24.708ZM34.5967 23.9844L33.7392 24.4989L33.7514 24.5193L33.7646 24.5391L34.5967 23.9844ZM34.2441 23.6689L33.6894 24.501L33.7286 24.5271L33.77 24.5494L34.2441 23.6689ZM33.6689 23.502L33.7215 22.5033L33.6952 22.502H33.6689V23.502ZM27.1562 23.502V22.502H27.137L27.1178 22.5027L27.1562 23.502ZM25.6788 30.9171C25.6682 31.0225 25.6487 31.0864 25.6341 31.121C25.6207 31.1528 25.6109 31.1617 25.6103 31.1623C25.6098 31.1628 25.6009 31.1723 25.5693 31.185C25.5349 31.1989 25.4712 31.2174 25.3662 31.2261L25.5323 33.2192C26.0655 33.1748 26.5984 32.9962 27.0137 32.5872C27.4288 32.1784 27.6156 31.6484 27.6689 31.1161L25.6788 30.9171ZM25.4492 31.2227C25.3383 31.2227 25.2669 31.1946 25.1908 31.1294L23.8892 32.6479C24.3327 33.028 24.8674 33.2227 25.4492 33.2227V31.2227ZM25.2288 31.1637C25.1835 31.1206 25.1689 31.0935 25.1689 31.0166H23.1689C23.1689 31.6324 23.4018 32.1867 23.8513 32.6137L25.2288 31.1637ZM25.1689 31.0166V22.2217H23.1689V31.0166H25.1689ZM25.1683 22.2574C25.1715 22.1694 25.1908 22.1446 25.2276 22.1115L23.8896 20.6249C23.4316 21.0371 23.1912 21.5813 23.1696 22.186L25.1683 22.2574ZM25.2473 22.0932C25.3058 22.0376 25.3549 22.0156 25.4492 22.0156V20.0156C24.8508 20.0156 24.3062 20.2287 23.8698 20.6432L25.2473 22.0932ZM25.4492 22.0156H26.3584V20.0156H25.4492V22.0156ZM26.3584 22.0156H28.6406V20.0156H26.3584V22.0156ZM28.6406 22.0156H33.2236V20.0156H28.6406V22.0156ZM33.2236 22.0156C33.242 22.0156 33.2613 22.0171 33.2819 22.0206L33.6107 20.0478C33.4829 20.0265 33.3537 20.0156 33.2236 20.0156V22.0156ZM33.4463 22.0342H33.5576V20.0342H33.4463V22.0342ZM33.5291 22.0338C34.2617 22.0547 34.7761 22.2196 35.1367 22.46L36.2461 20.7959C35.4935 20.2941 34.5853 20.0631 33.5862 20.0346L33.5291 22.0338ZM35.1367 22.46C35.5843 22.7584 35.8543 23.0655 36.0076 23.3645L37.7873 22.4519C37.4458 21.7861 36.9118 21.2397 36.2461 20.7959L35.1367 22.46ZM36.0125 23.3739C36.1921 23.7152 36.2686 24.0327 36.2686 24.3369H38.2686C38.2686 23.6763 38.0976 23.0413 37.7824 22.4425L36.0125 23.3739ZM36.2686 24.3369C36.2686 24.6582 36.1897 24.9914 36.0076 25.3464L37.7873 26.2591C38.1 25.6492 38.2686 25.0052 38.2686 24.3369H36.2686ZM36.003 25.3555C35.8674 25.6269 35.6081 25.9249 35.1451 26.2268L36.2377 27.9021C36.9128 27.4618 37.4575 26.9187 37.7919 26.2499L36.003 25.3555ZM35.1367 26.2324C34.7761 26.4728 34.2617 26.6377 33.5291 26.6586L33.5862 28.6578C34.5853 28.6292 35.4935 28.3983 36.2461 27.8965L35.1367 26.2324ZM33.5576 26.6582H30.292V28.6582H33.5576V26.6582ZM29.3046 27.8162C29.4227 28.5543 29.6879 29.2497 30.2118 29.7526L31.5968 28.3099C31.5022 28.2191 31.3592 27.9991 31.2794 27.5002L29.3046 27.8162ZM30.1972 29.7384C30.6994 30.2406 31.3396 30.4766 32.0361 30.4766V28.4766C31.8173 28.4766 31.7029 28.4157 31.6114 28.3241L30.1972 29.7384ZM32.0361 30.4766H36.0439V28.4766H32.0361V30.4766ZM36.0083 30.4759C36.0962 30.4791 36.1211 30.4984 36.1542 30.5352L37.6408 29.1972C37.2285 28.7392 36.6844 28.4988 36.0796 28.4772L36.0083 30.4759ZM36.1725 30.555C36.228 30.6134 36.25 30.6625 36.25 30.7568H38.25C38.25 30.1584 38.037 29.6138 37.6225 29.1775L36.1725 30.555ZM36.2507 30.7198C36.2476 30.8031 36.2272 30.8478 36.1718 30.9032L37.586 32.3175C38.0006 31.9029 38.2277 31.3785 38.2493 30.7938L36.2507 30.7198ZM36.1718 30.9032C36.1393 30.9358 36.1057 30.9599 36.0069 30.9636L36.081 32.9622C36.6502 32.9411 37.1732 32.7303 37.586 32.3175L36.1718 30.9032ZM36.0439 30.9629H31.7021V32.9629H36.0439V30.9629ZM31.6886 30.963C31.0776 30.9712 30.4972 30.7443 29.917 30.1737L28.5147 31.5997C29.4188 32.4888 30.4959 32.9793 31.7157 32.9628L31.6886 30.963ZM29.917 30.1737C29.3227 29.5893 28.9748 28.9162 28.8487 28.1306L26.874 28.4475C27.0695 29.6659 27.6246 30.7245 28.5147 31.5997L29.917 30.1737ZM28.8419 28.0929C28.7311 27.5387 28.6492 27.1122 28.5953 26.8101C28.5683 26.6585 28.5495 26.5443 28.5377 26.4639C28.5225 26.3599 28.5273 26.3653 28.5273 26.415H26.5273C26.5273 26.5328 26.5461 26.6673 26.5588 26.7535C26.5748 26.8633 26.5977 27.0003 26.6264 27.161C26.6838 27.4836 26.7689 27.9261 26.8807 28.4852L28.8419 28.0929ZM28.5273 26.415C28.5273 26.3215 28.5481 26.2889 28.587 26.2501L27.1728 24.8359C26.7416 25.267 26.5273 25.8159 26.5273 26.415H28.5273ZM28.587 26.2501C28.649 26.1881 28.6924 26.1719 28.7705 26.1719V24.1719C28.1559 24.1719 27.6056 24.4031 27.1728 24.8359L28.587 26.2501ZM28.7705 26.1719H33.6689V24.1719H28.7705V26.1719ZM33.7215 26.1705C34.0598 26.1527 34.4208 26.0781 34.748 25.8872L33.7403 24.1597C33.7565 24.1502 33.7592 24.152 33.7391 24.1572C33.7186 24.1625 33.6793 24.1699 33.6164 24.1733L33.7215 26.1705ZM34.7682 25.8751C35.0048 25.7295 35.2486 25.5328 35.4287 25.2627L33.7646 24.1533C33.7818 24.1276 33.7928 24.1191 33.7861 24.1251C33.7793 24.1312 33.7594 24.1476 33.72 24.1718L34.7682 25.8751ZM35.4542 25.2225C35.6059 24.9696 35.708 24.6701 35.708 24.3369H33.708C33.708 24.2972 33.7142 24.2624 33.7223 24.2351C33.7303 24.2087 33.7385 24.1947 33.7392 24.1935L35.4542 25.2225ZM35.708 24.3369C35.708 23.9996 35.6031 23.6912 35.4287 23.4297L33.7646 24.5391C33.7539 24.523 33.7387 24.4955 33.7266 24.4571C33.7143 24.4181 33.708 24.3768 33.708 24.3369H35.708ZM35.4542 23.4699C35.2658 23.1559 34.9959 22.938 34.7182 22.7885L33.77 24.5494C33.7918 24.5611 33.7944 24.5654 33.7861 24.558C33.777 24.5498 33.7583 24.5307 33.7392 24.4989L35.4542 23.4699ZM34.7988 22.8369C34.4606 22.6114 34.0802 22.5222 33.7215 22.5033L33.6164 24.5006C33.7278 24.5064 33.7308 24.5286 33.6894 24.501L34.7988 22.8369ZM33.6689 22.502H28.6406V24.502H33.6689V22.502ZM28.6406 22.502H27.1562V24.502H28.6406V22.502ZM27.1178 22.5027C26.8097 22.5145 26.4081 22.604 26.0873 22.9247C25.76 23.2521 25.6738 23.6624 25.6738 23.9844H27.6738C27.6738 23.9971 27.6681 24.1724 27.5015 24.3389C27.3416 24.4989 27.1812 24.5017 27.1947 24.5012L27.1178 22.5027ZM25.6738 23.9844V31.0166H27.6738V23.9844H25.6738ZM43.0762 31.9629L43.0421 32.9623L43.0591 32.9629H43.0762V31.9629ZM40.6084 31.2021L39.9534 31.9579L39.9632 31.9662L40.6084 31.2021ZM39.4023 29.5879L38.4765 29.9658L38.4793 29.9725L39.4023 29.5879ZM39.3838 25.8955L38.4579 25.5176L38.454 25.5275L39.3838 25.8955ZM40.5898 24.2812L41.235 25.0453L41.2365 25.044L40.5898 24.2812ZM42.7422 23.5391V22.5391H42.735L42.7279 22.5392L42.7422 23.5391ZM50.665 23.8916L49.9579 24.5987L49.9765 24.6173L49.9961 24.6349L50.665 23.8916ZM50.665 25.5615L51.3528 26.2875L51.3538 26.2865L50.665 25.5615ZM42.1299 26.1738L41.4683 25.424L41.4569 25.434L41.4459 25.4443L42.1299 26.1738ZM41.6846 26.8975L40.7359 26.5812L40.7299 26.5992L40.7246 26.6175L41.6846 26.8975ZM41.6846 28.6787L40.7246 28.9587L40.7299 28.9769L40.7359 28.9949L41.6846 28.6787ZM42.1299 29.4023L41.4459 30.1319L41.4694 30.1539L41.4942 30.1743L42.1299 29.4023ZM42.8535 29.6807L42.8081 30.6796L42.8308 30.6807H42.8535V29.6807ZM50.665 30.0146L49.9773 30.7406L49.9866 30.7494L49.9961 30.7579L50.665 30.0146ZM50.665 31.6289L49.9961 30.8856L49.9866 30.8942L49.9773 30.903L50.665 31.6289ZM50.498 28.3262L49.8623 27.5542L49.8526 27.5622L49.8431 27.5705L50.498 28.3262ZM43.002 28.3262L42.3434 29.0787L42.3572 29.0908L42.3714 29.1023L43.002 28.3262ZM43.002 27.1201L42.3714 26.344L42.3572 26.3555L42.3434 26.3675L43.002 27.1201ZM50.5166 27.1387L49.8581 27.8912L49.8718 27.9033L49.886 27.9148L50.5166 27.1387ZM43.1102 30.9635C42.1397 30.9304 41.5721 30.7071 41.2536 30.4381L39.9632 31.9662C40.758 32.6373 41.8355 32.9212 43.0421 32.9623L43.1102 30.9635ZM41.2633 30.4465C40.8065 30.0506 40.5052 29.6348 40.3254 29.2033L38.4793 29.9725C38.7942 30.7285 39.297 31.3889 39.9535 31.9578L41.2633 30.4465ZM40.3282 29.21C40.1269 28.7167 40.0312 28.2324 40.0312 27.751H38.0312C38.0312 28.5065 38.183 29.2468 38.4765 29.9658L40.3282 29.21ZM40.0312 27.751C40.0312 27.2328 40.1253 26.7393 40.3136 26.2636L38.454 25.5275C38.1722 26.2392 38.0312 26.9827 38.0312 27.751H40.0312ZM40.3096 26.2734C40.4894 25.833 40.7876 25.4231 41.235 25.0453L39.9447 23.5172C39.2788 24.0795 38.773 24.7458 38.4579 25.5176L40.3096 26.2734ZM41.2365 25.044C41.6008 24.7351 42.0833 24.5486 42.7565 24.539L42.7279 22.5392C41.6693 22.5543 40.7169 22.8625 39.9432 23.5185L41.2365 25.044ZM42.7422 24.5391H49.793V22.5391H42.7422V24.5391ZM49.793 24.5391C49.8865 24.5391 49.9191 24.5598 49.9579 24.5987L51.3721 23.1845C50.941 22.7533 50.3921 22.5391 49.793 22.5391V24.5391ZM49.9961 24.6349C50.0133 24.6504 50.0228 24.6617 50.0274 24.6679C50.0298 24.671 50.0311 24.6732 50.0319 24.6744C50.0326 24.6757 50.0329 24.6763 50.033 24.6765C50.0331 24.6767 50.0331 24.6768 50.0332 24.6771C50.0333 24.6774 50.0336 24.6783 50.034 24.68C50.0346 24.6832 50.0361 24.692 50.0361 24.708H52.0361C52.0361 24.0919 51.7838 23.5531 51.334 23.1483L49.9961 24.6349ZM50.0361 24.708C50.0361 24.7484 50.0294 24.7661 50.0263 24.7731C50.023 24.7807 50.0125 24.8021 49.9763 24.8365L51.3538 26.2865C51.795 25.8673 52.0361 25.3228 52.0361 24.708H50.0361ZM49.9773 24.8356C49.9418 24.8692 49.9031 24.8955 49.793 24.8955V26.8955C50.3756 26.8955 50.9182 26.6991 51.3528 26.2875L49.9773 24.8356ZM49.793 24.8955H42.8535V26.8955H49.793V24.8955ZM42.8535 24.8955C42.3297 24.8955 41.8551 25.0826 41.4683 25.424L42.7915 26.9237C42.8151 26.9029 42.827 26.8986 42.8275 26.8984C42.8286 26.898 42.8301 26.8975 42.8331 26.897C42.8361 26.8964 42.8425 26.8955 42.8535 26.8955V24.8955ZM41.4459 25.4443C41.1094 25.7598 40.8793 26.1511 40.7359 26.5812L42.6333 27.2137C42.6878 27.0501 42.7546 26.9589 42.8138 26.9034L41.4459 25.4443ZM40.7246 26.6175C40.6137 26.9974 40.5547 27.3824 40.5547 27.7695H42.5547C42.5547 27.5876 42.5822 27.3912 42.6446 27.1775L40.7246 26.6175ZM40.5547 27.7695C40.5547 28.1735 40.6115 28.5709 40.7246 28.9587L42.6446 28.3987C42.5845 28.1928 42.5547 27.984 42.5547 27.7695H40.5547ZM40.7359 28.9949C40.8793 29.4251 41.1094 29.8163 41.4459 30.1319L42.8138 28.6728C42.7546 28.6173 42.6878 28.5261 42.6333 28.3625L40.7359 28.9949ZM41.4942 30.1743C41.8715 30.485 42.3198 30.6574 42.8081 30.6796L42.8989 28.6817C42.8429 28.6792 42.8089 28.666 42.7656 28.6304L41.4942 30.1743ZM42.8535 30.6807H49.793V28.6807H42.8535V30.6807ZM49.793 30.6807C49.9031 30.6807 49.9418 30.707 49.9773 30.7406L51.3528 29.2887C50.9182 28.877 50.3756 28.6807 49.793 28.6807V30.6807ZM49.9961 30.7579C50.0331 30.7913 50.0387 30.8074 50.0366 30.8028C50.036 30.8015 50.0355 30.7997 50.0353 30.7989C50.0352 30.7983 50.0361 30.8023 50.0361 30.8125H52.0361C52.0361 30.1963 51.774 29.6674 51.334 29.2714L49.9961 30.7579ZM50.0361 30.8125C50.0361 30.8285 50.0346 30.8373 50.034 30.8405C50.0336 30.8422 50.0333 30.8431 50.0332 30.8434C50.0331 30.8437 50.0331 30.8438 50.033 30.844C50.0329 30.8442 50.0326 30.8448 50.0319 30.8461C50.0311 30.8473 50.0298 30.8495 50.0274 30.8526C50.0228 30.8588 50.0133 30.8701 49.9961 30.8856L51.334 32.3722C51.7838 31.9674 52.0361 31.4287 52.0361 30.8125H50.0361ZM49.9773 30.903C49.9418 30.9366 49.9031 30.9629 49.793 30.9629V32.9629C50.3756 32.9629 50.9182 32.7665 51.3528 32.3549L49.9773 30.903ZM49.793 30.9629H43.0762V32.9629H49.793V30.9629ZM49.8135 27.7139C49.8135 27.6974 49.8154 27.6759 49.8213 27.6515C49.8271 27.6269 49.8358 27.6044 49.8456 27.5853C49.8658 27.5462 49.8819 27.5382 49.8623 27.5542L51.1338 29.0981C51.5337 28.7687 51.8135 28.2971 51.8135 27.7139H49.8135ZM49.8431 27.5705C49.8448 27.569 49.848 27.5666 49.8521 27.5642C49.854 27.5632 49.8557 27.5623 49.857 27.5617C49.8583 27.5611 49.859 27.5609 49.8589 27.5609C49.8589 27.5609 49.8544 27.5625 49.8441 27.5641C49.8337 27.5657 49.817 27.5674 49.793 27.5674V29.5674C50.2776 29.5674 50.7572 29.4249 51.153 29.0819L49.8431 27.5705ZM49.793 27.5674H43.7256V29.5674H49.793V27.5674ZM43.7256 27.5674C43.6782 27.5674 43.6548 27.5608 43.6475 27.5584C43.6416 27.5564 43.6383 27.5547 43.6325 27.5501L42.3714 29.1023C42.7683 29.4248 43.2396 29.5674 43.7256 29.5674V27.5674ZM43.6605 27.5736C43.6464 27.5613 43.6616 27.5708 43.6791 27.6069C43.698 27.6458 43.7051 27.6859 43.7051 27.7139H41.7051C41.7051 28.2735 41.9574 28.7409 42.3434 29.0787L43.6605 27.5736ZM43.7051 27.7139C43.7051 27.7568 43.6941 27.8049 43.6737 27.8457C43.6553 27.8825 43.6412 27.8896 43.6605 27.8727L42.3434 26.3675C41.9717 26.6928 41.7051 27.15 41.7051 27.7139H43.7051ZM43.6325 27.8962C43.6383 27.8916 43.6416 27.8899 43.6475 27.8879C43.6548 27.8855 43.6782 27.8789 43.7256 27.8789V25.8789C43.2396 25.8789 42.7683 26.0215 42.3714 26.344L43.6325 27.8962ZM43.7256 27.8789H49.793V25.8789H43.7256V27.8789ZM49.793 27.8789C49.8327 27.8789 49.8484 27.8847 49.8494 27.885C49.8505 27.8854 49.8507 27.8856 49.8509 27.8857C49.8512 27.8859 49.8535 27.8873 49.8581 27.8912L51.1751 26.3861C50.7794 26.0398 50.2983 25.8789 49.793 25.8789V27.8789ZM49.886 27.9148C49.8972 27.9239 49.8748 27.9085 49.8506 27.8617C49.8245 27.8112 49.8135 27.7568 49.8135 27.7139H51.8135C51.8135 27.1441 51.5406 26.6822 51.1472 26.3626L49.886 27.9148ZM63.0967 26.0254L63.1351 25.0261L63.1159 25.0254H63.0967V26.0254ZM56.6025 26.0254V25.0254H56.5762L56.55 25.0268L56.6025 26.0254ZM55.9902 26.3408L56.7213 27.0231L56.7322 27.0114L56.7428 26.9993L55.9902 26.3408ZM55.6006 27.0088L54.6519 26.6926L54.6471 26.7069L54.6428 26.7214L55.6006 27.0088ZM55.6006 28.5303L54.6391 28.805L54.6471 28.8331L54.6567 28.8606L55.6006 28.5303ZM55.9902 29.1982L55.2377 29.8567L55.2482 29.8688L55.2592 29.8806L55.9902 29.1982ZM62.2246 29.8477L61.4996 30.5364L61.5173 30.555L61.5359 30.5727L62.2246 29.8477ZM62.2246 31.5918L61.5359 30.8668L61.5173 30.8845L61.4996 30.903L62.2246 31.5918ZM56.6768 31.9629L56.6625 32.9628L56.6696 32.9629H56.6768V31.9629ZM54.5244 31.2393L53.8695 31.9949L53.8784 32.0027L53.8875 32.0102L54.5244 31.2393ZM53.3184 29.625L52.386 29.9865L52.3905 29.9981L52.3953 30.0096L53.3184 29.625ZM53.3369 25.9326L54.26 26.3172L54.2628 26.3105L53.3369 25.9326ZM54.543 24.3184L55.1882 25.0825L55.1979 25.074L54.543 24.3184ZM57.0107 23.5391V22.5391H56.9937L56.9767 22.5396L57.0107 23.5391ZM65.6943 23.8916L65.0056 24.6166L65.0154 24.6259L65.0254 24.6349L65.6943 23.8916ZM66.084 24.7451H67.084V24.7273L67.0833 24.7094L66.084 24.7451ZM65.6758 33.4102L66.6289 33.7127L66.631 33.7061L65.6758 33.4102ZM64.4512 35.377L63.7683 34.6464L63.7601 34.6541L63.7521 34.6619L64.4512 35.377ZM62.3174 36.2676V37.2676H62.3459L62.3744 37.2659L62.3174 36.2676ZM55.8975 36.2676L55.8605 37.2669L55.8789 37.2676H55.8975V36.2676ZM55.0439 35.8965L54.3368 36.6036L55.0439 35.8965ZM54.6914 35.0615H53.6914V35.08L53.6921 35.0985L54.6914 35.0615ZM55.0254 34.1709L54.3004 33.4821L54.2911 33.4919L54.2821 33.5019L55.0254 34.1709ZM55.8975 33.7812V32.7812H55.8796L55.8618 32.7819L55.8975 33.7812ZM61.6865 33.7812V34.7812H61.7128L61.7391 34.7799L61.6865 33.7812ZM64.5791 26.5078C64.5791 26.1859 64.493 25.7755 64.1656 25.4482C63.8448 25.1274 63.4432 25.038 63.1351 25.0261L63.0582 27.0247C63.0718 27.0252 62.9113 27.0223 62.7514 26.8624C62.5848 26.6958 62.5791 26.5205 62.5791 26.5078H64.5791ZM63.0967 25.0254H56.6025V27.0254H63.0967V25.0254ZM56.55 25.0268C56.0124 25.0551 55.5657 25.3074 55.2377 25.6823L56.7428 26.9993C56.7585 26.9814 56.756 26.9897 56.7312 27.0025C56.7193 27.0086 56.7054 27.0141 56.6906 27.0181C56.6758 27.022 56.6635 27.0236 56.6551 27.024L56.55 25.0268ZM55.2592 25.6585C54.9805 25.9571 54.7803 26.3075 54.6519 26.6926L56.5493 27.325C56.5941 27.1906 56.6537 27.0956 56.7213 27.0231L55.2592 25.6585ZM54.6428 26.7214C54.5404 27.0626 54.4893 27.413 54.4893 27.7695H56.4893C56.4893 27.6065 56.5123 27.4498 56.5584 27.2961L54.6428 26.7214ZM54.4893 27.7695C54.4893 28.118 54.5416 28.464 54.6391 28.805L56.5621 28.2556C56.5111 28.077 56.4893 27.9159 56.4893 27.7695H54.4893ZM54.6567 28.8606C54.7857 29.229 54.9806 29.563 55.2377 29.8567L56.7428 28.5397C56.6535 28.4377 56.5887 28.3263 56.5444 28.1999L54.6567 28.8606ZM55.2592 29.8806C55.6046 30.2507 56.0665 30.4766 56.6025 30.4766V28.4766C56.6207 28.4766 56.6528 28.4811 56.687 28.4966C56.7195 28.5114 56.7299 28.5252 56.7213 28.5159L55.2592 29.8806ZM56.6025 30.4766H61.3525V28.4766H56.6025V30.4766ZM61.3525 30.4766C61.4294 30.4766 61.4566 30.4911 61.4996 30.5364L62.9496 29.1589C62.5226 28.7094 61.9683 28.4766 61.3525 28.4766V30.4766ZM61.5359 30.5727C61.5812 30.6157 61.5957 30.6428 61.5957 30.7197H63.5957C63.5957 30.1039 63.3628 29.5497 62.9134 29.1227L61.5359 30.5727ZM61.5957 30.7197C61.5957 30.7966 61.5812 30.8237 61.5359 30.8668L62.9134 32.3168C63.3628 31.8898 63.5957 31.3355 63.5957 30.7197H61.5957ZM61.4996 30.903C61.4566 30.9484 61.4294 30.9629 61.3525 30.9629V32.9629C61.9683 32.9629 62.5226 32.73 62.9496 32.2805L61.4996 30.903ZM61.3525 30.9629H56.6768V32.9629H61.3525V30.9629ZM56.691 30.963C56.0115 30.9533 55.5255 30.7692 55.1613 30.4683L53.8875 32.0102C54.6613 32.6494 55.6102 32.9478 56.6625 32.9628L56.691 30.963ZM55.1793 30.4836C54.7226 30.0877 54.4212 29.6719 54.2414 29.2404L52.3953 30.0096C52.7103 30.7656 53.213 31.426 53.8695 31.9949L55.1793 30.4836ZM54.2507 29.2635C54.0599 28.7714 53.9658 28.2692 53.9658 27.751H51.9658C51.9658 28.5192 52.1068 29.2664 52.386 29.9865L54.2507 29.2635ZM53.9658 27.751C53.9658 27.2698 54.0613 26.7941 54.26 26.3172L52.4138 25.548C52.1177 26.2587 51.9658 26.9952 51.9658 27.751H53.9658ZM54.2628 26.3105C54.4425 25.8701 54.7407 25.4602 55.1881 25.0824L53.8978 23.5543C53.2319 24.1166 52.7261 24.7829 52.4111 25.5547L54.2628 26.3105ZM55.1979 25.074C55.5158 24.7986 56.0794 24.5714 57.0448 24.5385L56.9767 22.5396C55.765 22.5809 54.6835 22.8733 53.888 23.5627L55.1979 25.074ZM57.0107 24.5391H64.8037V22.5391H57.0107V24.5391ZM64.8037 24.5391C64.898 24.5391 64.9471 24.5611 65.0056 24.6166L66.3831 23.1666C65.9468 22.7521 65.4021 22.5391 64.8037 22.5391V24.5391ZM65.0254 24.6349C65.0621 24.668 65.0815 24.6928 65.0846 24.7808L67.0833 24.7094C67.0617 24.1047 66.8213 23.5605 66.3633 23.1483L65.0254 24.6349ZM65.084 24.7451V30.6084H67.084V24.7451H65.084ZM65.084 30.6084C65.084 31.5053 64.9608 32.3388 64.7206 33.1142L66.631 33.7061C66.935 32.725 67.084 31.6907 67.084 30.6084H65.084ZM64.7227 33.1076C64.5245 33.7318 64.2057 34.2375 63.7683 34.6464L65.1341 36.1075C65.8347 35.4526 66.3323 34.6471 66.6289 33.7127L64.7227 33.1076ZM63.7521 34.6619C63.3882 35.0177 62.9145 35.2318 62.2603 35.2692L62.3744 37.2659C63.452 37.2044 64.4009 36.8247 65.1503 36.092L63.7521 34.6619ZM62.3174 35.2676H55.8975V37.2676H62.3174V35.2676ZM55.9345 35.2683C55.8512 35.2652 55.8065 35.2448 55.7511 35.1894L54.3368 36.6036C54.7514 37.0182 55.2758 37.2452 55.8605 37.2669L55.9345 35.2683ZM55.7511 35.1894C55.7185 35.1569 55.6944 35.1232 55.6907 35.0245L53.6921 35.0985C53.7132 35.6678 53.924 36.1908 54.3368 36.6036L55.7511 35.1894ZM55.6914 35.0615C55.6914 34.9512 55.7185 34.8956 55.7687 34.8399L54.2821 33.5019C53.887 33.941 53.6914 34.4791 53.6914 35.0615H55.6914ZM55.7504 34.8596C55.802 34.8053 55.8438 34.7838 55.9332 34.7806L55.8618 32.7819C55.2584 32.8034 54.7188 33.0417 54.3004 33.4821L55.7504 34.8596ZM55.8975 34.7812H61.6865V32.7812H55.8975V34.7812ZM61.7391 34.7799C62.4592 34.742 63.0965 34.4547 63.5892 33.9226L62.1217 32.5638C61.9959 32.6996 61.8539 32.7711 61.634 32.7826L61.7391 34.7799ZM63.5892 33.9226C64.0245 33.4525 64.3086 32.8938 64.4308 32.2651L62.4676 31.8833C62.4167 32.1453 62.3049 32.3659 62.1217 32.5638L63.5892 33.9226ZM64.4308 32.2651C64.5344 31.7324 64.5791 31.0868 64.5791 30.3486H62.5791C62.5791 31.0207 62.5372 31.5254 62.4676 31.8833L64.4308 32.2651ZM64.5791 30.3486V26.5078H62.5791V30.3486H64.5791ZM69.8691 23.3535L69.9062 22.3542L69.8877 22.3535H69.8691V23.3535ZM70.7227 23.7246L70.0155 24.4317L70.0251 24.4413L70.0349 24.4506L70.7227 23.7246ZM71.0938 24.5596H72.0938V24.5411L72.0931 24.5226L71.0938 24.5596ZM71.0938 30.9795L72.0888 31.079L72.0938 31.0294V30.9795H71.0938ZM69.8691 32.1855V33.1855H69.9107L69.9522 33.1821L69.8691 32.1855ZM68.96 31.8516L68.2712 32.5766L68.2898 32.5942L68.3092 32.6108L68.96 31.8516ZM68.5889 24.5596L67.5895 24.5239L67.5889 24.5417V24.5596H68.5889ZM68.9785 23.7061L69.6475 24.4493L69.6575 24.4403L69.6673 24.4311L68.9785 23.7061ZM69.8321 24.3528C69.9154 24.3559 69.9601 24.3763 70.0155 24.4317L71.4298 23.0175C71.0152 22.6029 70.4908 22.3759 69.9062 22.3542L69.8321 24.3528ZM70.0349 24.4506C70.0732 24.4868 70.0914 24.5147 70.0944 24.5966L72.0931 24.5226C72.0714 23.9364 71.8422 23.4077 71.4104 22.9987L70.0349 24.4506ZM70.0938 24.5596V30.9795H72.0938V24.5596H70.0938ZM70.0987 30.88C70.0882 30.9854 70.0686 31.0493 70.054 31.0838C70.0406 31.1157 70.0308 31.1246 70.0302 31.1252C70.0297 31.1257 70.0208 31.1352 69.9892 31.1479C69.9548 31.1618 69.8911 31.1802 69.7861 31.189L69.9522 33.1821C70.4854 33.1377 71.0183 32.9591 71.4336 32.5501C71.8487 32.1413 72.0356 31.6113 72.0888 31.079L70.0987 30.88ZM69.8691 31.1855C69.7583 31.1855 69.6868 31.1575 69.6108 31.0923L68.3092 32.6108C68.7526 32.9909 69.2873 33.1855 69.8691 33.1855V31.1855ZM69.6487 31.1266C69.6034 31.0835 69.5889 31.0564 69.5889 30.9795H67.5889C67.5889 31.5953 67.8217 32.1496 68.2712 32.5766L69.6487 31.1266ZM69.5889 30.9795V24.5596H67.5889V30.9795H69.5889ZM69.5882 24.5953C69.5914 24.5073 69.6107 24.4824 69.6475 24.4493L68.3096 22.9628C67.8515 23.375 67.6111 23.9192 67.5895 24.5239L69.5882 24.5953ZM69.6673 24.4311C69.7257 24.3755 69.7748 24.3535 69.8691 24.3535V22.3535C69.2707 22.3535 68.7261 22.5665 68.2898 22.9811L69.6673 24.4311ZM69.3105 20.9414C69.3105 20.9268 69.312 20.9189 69.3128 20.9158C69.3134 20.9128 69.3143 20.9101 69.3163 20.9062C69.3195 20.8998 69.3363 20.8688 69.396 20.819L68.1157 19.2826C67.6206 19.6951 67.3105 20.2616 67.3105 20.9414H69.3105ZM69.396 20.819C69.4969 20.735 69.6232 20.6797 69.832 20.6797V18.6797C69.1997 18.6797 68.6086 18.8718 68.1157 19.2826L69.396 20.819ZM69.832 20.6797C70.0408 20.6797 70.1672 20.735 70.268 20.819L71.5484 19.2826C71.0555 18.8718 70.4644 18.6797 69.832 18.6797V20.6797ZM70.268 20.819C70.3277 20.8688 70.3445 20.8998 70.3478 20.9062C70.3497 20.9101 70.3506 20.9128 70.3513 20.9158C70.352 20.9189 70.3535 20.9268 70.3535 20.9414H72.3535C72.3535 20.2616 72.0435 19.6951 71.5484 19.2826L70.268 20.819ZM70.3535 20.9414C70.3535 20.9781 70.3471 20.9918 70.3441 20.9979C70.3402 21.0059 70.324 21.0357 70.268 21.0824L71.5484 22.6188C72.0532 22.1981 72.3535 21.6221 72.3535 20.9414H70.3535ZM70.268 21.0824C70.1672 21.1664 70.0408 21.2217 69.832 21.2217V23.2217C70.4644 23.2217 71.0555 23.0296 71.5484 22.6188L70.268 21.0824ZM69.832 21.2217C69.6232 21.2217 69.4969 21.1664 69.396 21.0824L68.1157 22.6188C68.6086 23.0296 69.1997 23.2217 69.832 23.2217V21.2217ZM69.396 21.0824C69.3401 21.0357 69.3239 21.0059 69.3199 20.9979C69.317 20.9918 69.3105 20.9781 69.3105 20.9414H67.3105C67.3105 21.6221 67.6109 22.1981 68.1157 22.6188L69.396 21.0824ZM84.7686 25.3945L85.4127 26.1595L85.4162 26.1565L84.7686 25.3945ZM75.4355 25.9883L76.2164 26.613L76.2435 26.5791L76.2676 26.543L75.4355 25.9883ZM75.4355 26.3594L74.6035 26.9141L74.6276 26.9502L74.6547 26.9841L75.4355 26.3594ZM75.6582 26.5449L75.1282 27.3929L75.1685 27.4181L75.211 27.4393L75.6582 26.5449ZM76.0479 26.6377L75.9712 27.6347L76.0094 27.6377H76.0479V26.6377ZM82.1152 26.6377L82.1311 25.6378L82.1232 25.6377H82.1152V26.6377ZM84.0449 27.1016L83.5397 27.9646L83.5477 27.9692L83.5557 27.9737L84.0449 27.1016ZM85.1211 28.1221L84.238 28.5912L84.2468 28.6079L84.2563 28.6242L85.1211 28.1221ZM85.1211 30.46L85.986 30.9621L85.9927 30.9502L85.1211 30.46ZM84.0264 31.4805L84.5249 32.3474L84.5315 32.3435L84.0264 31.4805ZM82.1152 31.9072V30.9072H82.0699L82.0247 30.9113L82.1152 31.9072ZM73.7285 31.6289L73.0617 32.3741L73.0823 32.3925L73.1038 32.4098L73.7285 31.6289ZM73.7471 30.0889L73.1029 29.3239L73.0994 29.3269L73.7471 30.0889ZM82.2637 29.792L82.3302 28.7942L82.297 28.792H82.2637V29.792ZM82.709 29.7178L82.2618 28.8233L82.2423 28.8331L82.2233 28.8436L82.709 29.7178ZM82.9873 29.1055L82.1393 29.6355L82.1556 29.6616L82.1736 29.6867L82.9873 29.1055ZM82.709 28.8828L82.2233 29.757L82.2787 29.7878L82.3376 29.8113L82.709 28.8828ZM82.2637 28.7715L82.3302 27.7737L82.297 27.7715H82.2637V28.7715ZM76.1777 28.7715L76.1605 29.7713L76.1691 29.7715H76.1777V28.7715ZM74.3965 28.3262L73.8625 29.1717L73.8705 29.1767L73.8787 29.1817L74.3965 28.3262ZM73.3945 27.3057L72.5059 27.7643L73.3945 27.3057ZM73.3945 25.0234L72.5177 24.5426L72.5122 24.5528L73.3945 25.0234ZM74.3965 24.04L74.9076 24.8996L74.9143 24.8955L74.3965 24.04ZM76.1777 23.5762L76.2122 24.5756L76.2448 24.5745L76.2772 24.5712L76.1777 23.5762ZM84.7686 23.873L84.1018 24.6183L84.1223 24.6367L84.1439 24.6539L84.7686 23.873ZM84.1396 24.6152C84.1396 24.6255 84.1387 24.6283 84.1393 24.6255C84.1399 24.6224 84.1415 24.6174 84.144 24.6121C84.1465 24.6069 84.148 24.6054 84.146 24.6079C84.1438 24.6107 84.1366 24.6192 84.1209 24.6326L85.4162 26.1565C85.8744 25.767 86.1396 25.2342 86.1396 24.6152H84.1396ZM84.1244 24.6296C84.0927 24.6564 84.039 24.6914 83.8965 24.6914V26.6914C84.4466 26.6914 84.9744 26.5285 85.4127 26.1594L84.1244 24.6296ZM83.8965 24.6914H76.0479V26.6914H83.8965V24.6914ZM76.0479 24.6914C75.7678 24.6914 75.4354 24.7442 75.1282 24.9362L76.1882 26.6322C76.0789 26.7005 76.0063 26.6914 76.0479 26.6914V24.6914ZM75.1282 24.9362C74.9444 25.0511 74.752 25.2108 74.6035 25.4336L76.2676 26.543C76.2181 26.6173 76.1741 26.641 76.1882 26.6322L75.1282 24.9362ZM74.6547 25.3636C74.5429 25.5034 74.3613 25.7778 74.3613 26.1553H76.3613C76.3613 26.2989 76.3254 26.4113 76.2937 26.4826C76.2627 26.5523 76.2301 26.5959 76.2164 26.613L74.6547 25.3636ZM74.3613 26.1553C74.3613 26.4839 74.4906 26.7448 74.6035 26.9141L76.2676 25.8047C76.2815 25.8255 76.3613 25.9503 76.3613 26.1553H74.3613ZM74.6547 26.9841C74.7995 27.1651 74.9746 27.2969 75.1282 27.3929L76.1882 25.6969C76.1696 25.6853 76.1645 25.6806 76.1685 25.6839C76.1722 25.687 76.1912 25.7032 76.2164 25.7347L74.6547 26.9841ZM75.211 27.4393C75.4658 27.5668 75.7354 27.6166 75.9712 27.6347L76.1245 25.6406C76.1057 25.6392 76.0911 25.6375 76.0804 25.6358C76.0696 25.6342 76.0635 25.6329 76.0615 25.6324C76.0594 25.6319 76.0625 25.6326 76.0697 25.6351C76.0769 25.6376 76.0893 25.6424 76.1054 25.6505L75.211 27.4393ZM76.0479 27.6377H82.1152V25.6377H76.0479V27.6377ZM82.0994 27.6376C82.7608 27.6481 83.2219 27.7785 83.5397 27.9646L84.5501 26.2385C83.8536 25.8308 83.0283 25.6521 82.1311 25.6378L82.0994 27.6376ZM83.5557 27.9737C83.9446 28.1919 84.1408 28.4083 84.238 28.5912L86.0042 27.6529C85.6808 27.0442 85.1595 26.5802 84.5342 26.2294L83.5557 27.9737ZM84.2563 28.6242C84.4013 28.8739 84.4551 29.092 84.4551 29.291H86.4551C86.4551 28.6983 86.2862 28.1372 85.9859 27.6199L84.2563 28.6242ZM84.4551 29.291C84.4551 29.4736 84.4035 29.6959 84.2495 29.9697L85.9927 30.9502C86.284 30.4324 86.4551 29.8754 86.4551 29.291H84.4551ZM84.2563 29.9578C84.1441 30.1511 83.9262 30.3804 83.5212 30.6175L84.5315 32.3435C85.1408 31.9868 85.6528 31.5357 85.9859 30.9621L84.2563 29.9578ZM83.5279 30.6136C83.2303 30.7847 82.7809 30.9072 82.1152 30.9072V32.9072C83.0082 32.9072 83.8329 32.7452 84.5248 32.3474L83.5279 30.6136ZM82.0247 30.9113C81.9628 30.917 81.9139 30.9208 81.8766 30.9231C81.8581 30.9242 81.8438 30.925 81.8333 30.9254C81.8224 30.9258 81.8179 30.9258 81.8184 30.9258V32.9258C81.9289 32.9258 82.0666 32.9158 82.2058 32.9031L82.0247 30.9113ZM81.8184 30.9258H74.6191V32.9258H81.8184V30.9258ZM74.6191 30.9258C74.4773 30.9258 74.4064 30.8906 74.3532 30.848L73.1038 32.4098C73.5454 32.763 74.0683 32.9258 74.6191 32.9258V30.9258ZM74.3953 30.8837C74.3802 30.8701 74.3729 30.8613 74.3704 30.858C74.3681 30.8549 74.3693 30.8559 74.3714 30.8605C74.3736 30.8653 74.3752 30.8703 74.376 30.8739C74.3767 30.8774 74.376 30.876 74.376 30.8682H72.376C72.376 31.469 72.6296 31.9875 73.0617 32.3741L74.3953 30.8837ZM74.376 30.8682C74.376 30.8579 74.377 30.8551 74.3763 30.8579C74.3757 30.861 74.3741 30.866 74.3716 30.8713C74.3691 30.8765 74.3676 30.878 74.3696 30.8755C74.3718 30.8727 74.379 30.8642 74.3947 30.8508L73.0994 29.3269C72.6413 29.7164 72.376 30.2492 72.376 30.8682H74.376ZM74.3912 30.8538C74.423 30.827 74.4766 30.792 74.6191 30.792V28.792C74.069 28.792 73.5412 28.9549 73.1029 29.324L74.3912 30.8538ZM74.6191 30.792H82.2637V28.792H74.6191V30.792ZM82.1972 30.7898C82.4913 30.8094 82.8543 30.781 83.1946 30.5919L82.2233 28.8436C82.2839 28.81 82.3313 28.7994 82.3498 28.7963C82.3672 28.7934 82.3631 28.7964 82.3302 28.7942L82.1972 30.7898ZM83.1562 30.6122C83.3541 30.5133 83.5759 30.3694 83.7555 30.1539L82.2191 28.8735C82.2489 28.8377 82.2729 28.8191 82.28 28.814C82.2871 28.8087 82.2829 28.8128 82.2618 28.8233L83.1562 30.6122ZM83.7555 30.1539C83.9213 29.9549 84.0801 29.662 84.0801 29.291H82.0801C82.0801 29.0685 82.177 28.924 82.2191 28.8735L83.7555 30.1539ZM84.0801 29.291C84.0801 29.0346 83.9862 28.8393 83.9513 28.7696C83.9036 28.6741 83.848 28.59 83.801 28.5242L82.1736 29.6867C82.1885 29.7075 82.1793 29.6976 82.1625 29.664C82.1536 29.6463 82.1362 29.6093 82.1198 29.5568C82.1045 29.5079 82.0801 29.4141 82.0801 29.291H84.0801ZM83.8353 28.5755C83.6454 28.2716 83.3721 28.071 83.0804 27.9543L82.3376 29.8113C82.3191 29.8039 82.2856 29.7877 82.2466 29.7565C82.2066 29.7244 82.1692 29.6833 82.1393 29.6355L83.8353 28.5755ZM83.1946 28.0087C82.9091 27.85 82.6005 27.7917 82.3302 27.7737L82.1972 29.7693C82.2194 29.7708 82.2366 29.7727 82.2493 29.7746C82.262 29.7765 82.2692 29.7781 82.2716 29.7787C82.2774 29.7802 82.2577 29.7761 82.2233 29.757L83.1946 28.0087ZM82.2637 27.7715H76.1777V29.7715H82.2637V27.7715ZM76.195 27.7716C75.6015 27.7614 75.1937 27.6398 74.9143 27.4707L73.8787 29.1817C74.5394 29.5816 75.319 29.7568 76.1605 29.7713L76.195 27.7716ZM74.9305 27.4807C74.5684 27.252 74.3791 27.0329 74.2832 26.847L72.5059 27.7643C72.8058 28.3454 73.2844 28.8066 73.8625 29.1717L74.9305 27.4807ZM74.2832 26.847C74.1491 26.5874 74.0977 26.3601 74.0977 26.1553H72.0977C72.0977 26.7174 72.2441 27.257 72.5059 27.7643L74.2832 26.847ZM74.0977 26.1553C74.0977 25.9514 74.1486 25.7346 74.2769 25.494L72.5122 24.5528C72.2447 25.0545 72.0977 25.5922 72.0977 26.1553H74.0977ZM74.2713 25.5043C74.3788 25.3083 74.5701 25.1002 74.9076 24.8996L73.8854 23.1805C73.3075 23.5241 72.8308 23.9717 72.5177 24.5426L74.2713 25.5043ZM74.9143 24.8955C75.2001 24.7226 75.6147 24.5962 76.2122 24.5756L76.1433 22.5768C75.3059 22.6056 74.533 22.7885 73.8787 23.1845L74.9143 24.8955ZM76.2772 24.5712C76.3315 24.5658 76.3742 24.5622 76.4066 24.56C76.4227 24.559 76.4349 24.5583 76.4438 24.558C76.453 24.5576 76.4567 24.5576 76.4561 24.5576V22.5576C76.3424 22.5576 76.209 22.5681 76.0782 22.5811L76.2772 24.5712ZM76.4561 24.5576H83.8965V22.5576H76.4561V24.5576ZM83.8965 24.5576C84.0229 24.5576 84.0687 24.5887 84.1018 24.6183L85.4353 23.1278C84.9984 22.7368 84.4627 22.5576 83.8965 22.5576V24.5576ZM84.1439 24.6539C84.1581 24.6653 84.1631 24.6714 84.1627 24.6709C84.1621 24.6702 84.1576 24.6646 84.1524 24.6542C84.1472 24.6438 84.1435 24.6329 84.1413 24.6235C84.1392 24.6143 84.1396 24.6109 84.1396 24.6152H86.1396C86.1396 23.9918 85.8595 23.4652 85.3932 23.0922L84.1439 24.6539ZM91.541 20.7188V19.7188H91.5225L91.504 19.7194L91.541 20.7188ZM92.4316 21.0713L91.7429 21.7963L91.7527 21.8056L91.7627 21.8146L92.4316 21.0713ZM92.8213 21.9248H93.8213V21.907L93.8206 21.8891L92.8213 21.9248ZM92.8213 23.5391H91.8213V24.5391H92.8213V23.5391ZM100.021 23.8916L100.746 23.2029L100.728 23.1843L100.709 23.1666L100.021 23.8916ZM100.002 25.6729L99.2948 24.9657L100.002 25.6729ZM92.8213 26.0254V25.0254H91.8213V26.0254H92.8213ZM92.8213 26.3965L93.821 26.4209L93.8213 26.4087V26.3965H92.8213ZM92.9141 27.8066L91.9284 27.9756L91.9313 27.992L91.9346 28.0083L92.9141 27.8066ZM94.6768 29.4766L94.6242 30.4752L94.6505 30.4766H94.6768V29.4766ZM99.2041 29.4766L99.2398 28.4772L99.222 28.4766H99.2041V29.4766ZM100.058 29.8662L99.3143 30.5352L99.3233 30.5452L99.3326 30.555L100.058 29.8662ZM100.41 30.7568L101.409 30.7938L101.41 30.7753V30.7568H100.41ZM100.039 31.6104L100.746 32.3175L100.039 31.6104ZM99.2041 31.9629V32.9629H99.2226L99.2411 32.9622L99.2041 31.9629ZM94.0459 31.9629L93.9888 32.9613L94.0173 32.9629H94.0459V31.9629ZM91.8936 31.0908L91.1944 31.8058L91.2025 31.8137L91.2107 31.8213L91.8936 31.0908ZM90.6875 29.1055L89.7301 29.3942L89.7322 29.4011L89.7344 29.408L90.6875 29.1055ZM90.3164 26.6191H89.3163L89.3165 26.6332L90.3164 26.6191ZM90.3164 26.0254H91.3164V25.0254H90.3164V26.0254ZM87.3105 25.6543L88.0355 24.9655L88.0179 24.947L87.9993 24.9293L87.3105 25.6543ZM87.292 23.9102L86.5849 23.203L87.292 23.9102ZM90.3164 23.5391V24.5391H91.3164V23.5391H90.3164ZM90.3164 21.9248L89.3171 21.8878L89.3164 21.9063V21.9248H90.3164ZM90.6875 21.0898L91.3752 21.8158L91.3851 21.8065L91.3946 21.797L90.6875 21.0898ZM91.541 21.7188C91.6353 21.7188 91.6844 21.7407 91.7429 21.7963L93.1204 20.3463C92.6841 19.9318 92.1394 19.7188 91.541 19.7188V21.7188ZM91.7627 21.8146C91.7994 21.8477 91.8188 21.8725 91.8219 21.9605L93.8206 21.8891C93.7991 21.2844 93.5586 20.7402 93.1006 20.328L91.7627 21.8146ZM91.8213 21.9248V23.5391H93.8213V21.9248H91.8213ZM92.8213 24.5391H99.1299V22.5391H92.8213V24.5391ZM99.1299 24.5391C99.2242 24.5391 99.2733 24.5611 99.3318 24.6166L100.709 23.1666C100.273 22.7521 99.7283 22.5391 99.1299 22.5391V24.5391ZM99.2955 24.5804C99.3511 24.6388 99.373 24.6879 99.373 24.7822H101.373C101.373 24.1838 101.16 23.6392 100.746 23.2029L99.2955 24.5804ZM99.373 24.7822C99.373 24.8604 99.3568 24.9037 99.2948 24.9657L100.709 26.38C101.142 25.9472 101.373 25.3968 101.373 24.7822H99.373ZM99.2948 24.9657C99.256 25.0046 99.2235 25.0254 99.1299 25.0254V27.0254C99.729 27.0254 100.278 26.8111 100.709 26.38L99.2948 24.9657ZM99.1299 25.0254H92.8213V27.0254H99.1299V25.0254ZM91.8213 26.0254V26.3965H93.8213V26.0254H91.8213ZM91.8216 26.3721C91.8079 26.9343 91.8418 27.4699 91.9284 27.9756L93.8997 27.6377C93.8379 27.2775 93.81 26.873 93.821 26.4209L91.8216 26.3721ZM91.9346 28.0083C92.0602 28.6184 92.3486 29.1584 92.7741 29.6179L94.2416 28.2591C94.0485 28.0506 93.9411 27.836 93.8935 27.605L91.9346 28.0083ZM92.7741 29.6179C93.2668 30.15 93.9041 30.4373 94.6242 30.4752L94.7293 28.4779C94.5094 28.4664 94.3673 28.3949 94.2416 28.2591L92.7741 29.6179ZM94.6768 30.4766H99.2041V28.4766H94.6768V30.4766ZM99.1684 30.4759C99.2564 30.4791 99.2812 30.4984 99.3143 30.5352L100.801 29.1972C100.389 28.7392 99.8445 28.4988 99.2398 28.4772L99.1684 30.4759ZM99.3326 30.555C99.3882 30.6134 99.4102 30.6625 99.4102 30.7568H101.41C101.41 30.1584 101.197 29.6138 100.783 29.1775L99.3326 30.555ZM99.4108 30.7198C99.4078 30.8031 99.3874 30.8478 99.332 30.9032L100.746 32.3175C101.161 31.9029 101.388 31.3785 101.409 30.7938L99.4108 30.7198ZM99.332 30.9032C99.2994 30.9358 99.2658 30.9599 99.1671 30.9636L99.2411 32.9622C99.8103 32.9411 100.333 32.7303 100.746 32.3175L99.332 30.9032ZM99.2041 30.9629H94.0459V32.9629H99.2041V30.9629ZM94.103 30.9645C93.4423 30.9268 92.955 30.7142 92.5764 30.3603L91.2107 31.8213C91.9701 32.5313 92.9177 32.9001 93.9888 32.9613L94.103 30.9645ZM92.5927 30.3758C92.1592 29.9519 91.841 29.4341 91.6406 28.8029L89.7344 29.408C90.0288 30.3354 90.5147 31.1412 91.1944 31.8058L92.5927 30.3758ZM91.6449 28.8167C91.4388 28.1333 91.3275 27.3976 91.3163 26.6051L89.3165 26.6332C89.3301 27.5972 89.4661 28.519 89.7301 29.3942L91.6449 28.8167ZM91.3164 26.6191V26.0254H89.3164V26.6191H91.3164ZM90.3164 25.0254H88.1826V27.0254H90.3164V25.0254ZM88.1826 25.0254C88.1057 25.0254 88.0786 25.0109 88.0355 24.9655L86.5855 26.343C87.0126 26.7925 87.5668 27.0254 88.1826 27.0254V25.0254ZM87.9993 24.9293C87.954 24.8862 87.9395 24.8591 87.9395 24.7822H85.9395C85.9395 25.398 86.1723 25.9523 86.6218 26.3793L87.9993 24.9293ZM87.9395 24.7822C87.9395 24.6887 87.9602 24.6561 87.9991 24.6173L86.5849 23.203C86.1537 23.6342 85.9395 24.1831 85.9395 24.7822H87.9395ZM87.9991 24.6173C88.0611 24.5553 88.1045 24.5391 88.1826 24.5391V22.5391C87.568 22.5391 87.0177 22.7703 86.5849 23.203L87.9991 24.6173ZM88.1826 24.5391H90.3164V22.5391H88.1826V24.5391ZM91.3164 23.5391V21.9248H89.3164V23.5391H91.3164ZM91.3157 21.9618C91.3187 21.88 91.337 21.8521 91.3752 21.8158L89.9998 20.3639C89.568 20.7729 89.3388 21.3017 89.3171 21.8878L91.3157 21.9618ZM91.3946 21.797C91.4501 21.7415 91.4947 21.7211 91.578 21.7181L91.504 19.7194C90.9193 19.7411 90.395 19.9681 89.9804 20.3827L91.3946 21.797ZM105.995 31.9629L105.961 32.9623L105.978 32.9629H105.995V31.9629ZM103.527 31.2021L102.872 31.9579L102.882 31.9662L103.527 31.2021ZM102.321 29.5879L101.395 29.9658L101.398 29.9725L102.321 29.5879ZM102.303 25.8955L101.377 25.5176L101.373 25.5275L102.303 25.8955ZM103.509 24.2812L104.154 25.0453L104.155 25.044L103.509 24.2812ZM105.661 23.5391V22.5391H105.654L105.647 22.5392L105.661 23.5391ZM113.584 23.8916L112.877 24.5987L112.895 24.6173L112.915 24.6349L113.584 23.8916ZM113.584 25.5615L114.272 26.2875L114.273 26.2865L113.584 25.5615ZM105.049 26.1738L104.387 25.424L104.376 25.434L104.365 25.4443L105.049 26.1738ZM104.604 26.8975L103.655 26.5812L103.649 26.5992L103.644 26.6175L104.604 26.8975ZM104.604 28.6787L103.644 28.9587L103.649 28.9769L103.655 28.9949L104.604 28.6787ZM105.049 29.4023L104.365 30.1319L104.388 30.1539L104.413 30.1743L105.049 29.4023ZM105.772 29.6807L105.727 30.6796L105.75 30.6807H105.772V29.6807ZM113.584 30.0146L112.896 30.7406L112.906 30.7494L112.915 30.7579L113.584 30.0146ZM113.584 31.6289L112.915 30.8856L112.906 30.8942L112.896 30.903L113.584 31.6289ZM113.417 28.3262L112.781 27.5542L112.772 27.5622L112.762 27.5705L113.417 28.3262ZM105.921 28.3262L105.262 29.0787L105.276 29.0908L105.29 29.1023L105.921 28.3262ZM105.921 27.1201L105.29 26.344L105.276 26.3555L105.262 26.3675L105.921 27.1201ZM113.436 27.1387L112.777 27.8912L112.791 27.9033L112.805 27.9148L113.436 27.1387ZM106.029 30.9635C105.059 30.9304 104.491 30.7071 104.173 30.4381L102.882 31.9662C103.677 32.6373 104.754 32.9212 105.961 32.9623L106.029 30.9635ZM104.182 30.4465C103.725 30.0506 103.424 29.6348 103.244 29.2033L101.398 29.9725C101.713 30.7285 102.216 31.3889 102.872 31.9578L104.182 30.4465ZM103.247 29.21C103.046 28.7167 102.95 28.2324 102.95 27.751H100.95C100.95 28.5065 101.102 29.2468 101.395 29.9658L103.247 29.21ZM102.95 27.751C102.95 27.2328 103.044 26.7393 103.233 26.2636L101.373 25.5275C101.091 26.2392 100.95 26.9827 100.95 27.751H102.95ZM103.229 26.2734C103.408 25.833 103.707 25.4231 104.154 25.0453L102.864 23.5172C102.198 24.0795 101.692 24.7458 101.377 25.5176L103.229 26.2734ZM104.155 25.044C104.52 24.7351 105.002 24.5486 105.675 24.539L105.647 22.5392C104.588 22.5543 103.636 22.8625 102.862 23.5185L104.155 25.044ZM105.661 24.5391H112.712V22.5391H105.661V24.5391ZM112.712 24.5391C112.805 24.5391 112.838 24.5598 112.877 24.5987L114.291 23.1845C113.86 22.7533 113.311 22.5391 112.712 22.5391V24.5391ZM112.915 24.6349C112.932 24.6504 112.942 24.6617 112.946 24.6679C112.949 24.671 112.95 24.6732 112.951 24.6744C112.952 24.6757 112.952 24.6763 112.952 24.6765C112.952 24.6767 112.952 24.6768 112.952 24.6771C112.952 24.6774 112.953 24.6783 112.953 24.68C112.954 24.6832 112.955 24.692 112.955 24.708H114.955C114.955 24.0919 114.703 23.5531 114.253 23.1483L112.915 24.6349ZM112.955 24.708C112.955 24.7484 112.948 24.7661 112.945 24.7731C112.942 24.7807 112.931 24.8021 112.895 24.8365L114.273 26.2865C114.714 25.8673 114.955 25.3228 114.955 24.708H112.955ZM112.896 24.8356C112.861 24.8692 112.822 24.8955 112.712 24.8955V26.8955C113.295 26.8955 113.837 26.6991 114.272 26.2875L112.896 24.8356ZM112.712 24.8955H105.772V26.8955H112.712V24.8955ZM105.772 24.8955C105.249 24.8955 104.774 25.0826 104.387 25.424L105.71 26.9237C105.734 26.9029 105.746 26.8986 105.746 26.8984C105.748 26.898 105.749 26.8975 105.752 26.897C105.755 26.8964 105.761 26.8955 105.772 26.8955V24.8955ZM104.365 25.4443C104.028 25.7598 103.798 26.1511 103.655 26.5812L105.552 27.2137C105.607 27.0501 105.674 26.9589 105.733 26.9034L104.365 25.4443ZM103.644 26.6175C103.533 26.9974 103.474 27.3824 103.474 27.7695H105.474C105.474 27.5876 105.501 27.3912 105.564 27.1775L103.644 26.6175ZM103.474 27.7695C103.474 28.1735 103.53 28.5709 103.644 28.9587L105.564 28.3987C105.503 28.1928 105.474 27.984 105.474 27.7695H103.474ZM103.655 28.9949C103.798 29.4251 104.028 29.8163 104.365 30.1319L105.733 28.6728C105.674 28.6173 105.607 28.5261 105.552 28.3625L103.655 28.9949ZM104.413 30.1743C104.79 30.485 105.239 30.6574 105.727 30.6796L105.818 28.6817C105.762 28.6792 105.728 28.666 105.685 28.6304L104.413 30.1743ZM105.772 30.6807H112.712V28.6807H105.772V30.6807ZM112.712 30.6807C112.822 30.6807 112.861 30.707 112.896 30.7406L114.272 29.2887C113.837 28.877 113.295 28.6807 112.712 28.6807V30.6807ZM112.915 30.7579C112.952 30.7913 112.958 30.8074 112.956 30.8028C112.955 30.8015 112.954 30.7997 112.954 30.7989C112.954 30.7983 112.955 30.8023 112.955 30.8125H114.955C114.955 30.1963 114.693 29.6674 114.253 29.2714L112.915 30.7579ZM112.955 30.8125C112.955 30.8285 112.954 30.8373 112.953 30.8405C112.953 30.8422 112.952 30.8431 112.952 30.8434C112.952 30.8437 112.952 30.8438 112.952 30.844C112.952 30.8442 112.952 30.8448 112.951 30.8461C112.95 30.8473 112.949 30.8495 112.946 30.8526C112.942 30.8588 112.932 30.8701 112.915 30.8856L114.253 32.3722C114.703 31.9674 114.955 31.4287 114.955 30.8125H112.955ZM112.896 30.903C112.861 30.9366 112.822 30.9629 112.712 30.9629V32.9629C113.295 32.9629 113.837 32.7665 114.272 32.3549L112.896 30.903ZM112.712 30.9629H105.995V32.9629H112.712V30.9629ZM112.732 27.7139C112.732 27.6974 112.734 27.6759 112.74 27.6515C112.746 27.6269 112.755 27.6044 112.765 27.5853C112.785 27.5462 112.801 27.5382 112.781 27.5542L114.053 29.0981C114.453 28.7687 114.732 28.2971 114.732 27.7139H112.732ZM112.762 27.5705C112.764 27.569 112.767 27.5666 112.771 27.5642C112.773 27.5632 112.775 27.5623 112.776 27.5617C112.777 27.5611 112.778 27.5609 112.778 27.5609C112.778 27.5609 112.773 27.5625 112.763 27.5641C112.753 27.5657 112.736 27.5674 112.712 27.5674V29.5674C113.197 29.5674 113.676 29.4249 114.072 29.0819L112.762 27.5705ZM112.712 27.5674H106.645V29.5674H112.712V27.5674ZM106.645 27.5674C106.597 27.5674 106.574 27.5608 106.566 27.5584C106.561 27.5564 106.557 27.5547 106.551 27.5501L105.29 29.1023C105.687 29.4248 106.159 29.5674 106.645 29.5674V27.5674ZM106.579 27.5736C106.565 27.5613 106.581 27.5708 106.598 27.6069C106.617 27.6458 106.624 27.6859 106.624 27.7139H104.624C104.624 28.2735 104.876 28.7409 105.262 29.0787L106.579 27.5736ZM106.624 27.7139C106.624 27.7568 106.613 27.8049 106.593 27.8457C106.574 27.8825 106.56 27.8896 106.579 27.8727L105.262 26.3675C104.891 26.6928 104.624 27.15 104.624 27.7139H106.624ZM106.551 27.8962C106.557 27.8916 106.561 27.8899 106.566 27.8879C106.574 27.8855 106.597 27.8789 106.645 27.8789V25.8789C106.159 25.8789 105.687 26.0215 105.29 26.344L106.551 27.8962ZM106.645 27.8789H112.712V25.8789H106.645V27.8789ZM112.712 27.8789C112.752 27.8789 112.767 27.8847 112.768 27.885C112.769 27.8854 112.77 27.8856 112.77 27.8857C112.77 27.8859 112.772 27.8873 112.777 27.8912L114.094 26.3861C113.698 26.0398 113.217 25.8789 112.712 25.8789V27.8789ZM112.805 27.9148C112.816 27.9239 112.794 27.9085 112.77 27.8617C112.743 27.8112 112.732 27.7568 112.732 27.7139H114.732C114.732 27.1441 114.46 26.6822 114.066 26.3626L112.805 27.9148ZM116.479 25.877L117.404 26.2549L117.408 26.245L116.479 25.877ZM117.666 24.2812L118.311 25.0453L118.313 25.044L117.666 24.2812ZM119.818 23.5391V22.5391H119.811L119.804 22.5392L119.818 23.5391ZM127.667 23.9102L126.942 24.5989L126.96 24.6175L126.978 24.6352L127.667 23.9102ZM127.667 25.6729L126.96 24.9657L127.667 25.6729ZM119.132 26.3223L119.863 27.0046L119.874 26.9928L119.884 26.9808L119.132 26.3223ZM118.724 26.9902L117.789 26.6342L117.782 26.654L117.775 26.674L118.724 26.9902ZM118.594 30.9795L119.589 31.079L119.594 31.0294V30.9795H118.594ZM117.369 32.1855V33.1855H117.411L117.452 33.1821L117.369 32.1855ZM116.46 31.8516L115.771 32.5766L115.79 32.5942L115.809 32.6108L116.46 31.8516ZM116.089 27.751V26.751H115.089V27.751H116.089ZM116.107 27.751V28.751H117.107V27.751H116.107ZM117.408 26.245C117.575 25.8252 117.863 25.424 118.311 25.0453L117.021 23.5172C116.356 24.0786 115.853 24.7412 115.549 25.5089L117.408 26.245ZM118.313 25.044C118.677 24.7351 119.159 24.5486 119.833 24.539L119.804 22.5392C118.745 22.5543 117.793 22.8625 117.019 23.5185L118.313 25.044ZM119.818 24.5391H126.795V22.5391H119.818V24.5391ZM126.795 24.5391C126.872 24.5391 126.899 24.5536 126.942 24.5989L128.392 23.2214C127.965 22.7719 127.411 22.5391 126.795 22.5391V24.5391ZM126.978 24.6352C127.024 24.6782 127.038 24.7053 127.038 24.7822H129.038C129.038 24.1664 128.805 23.6122 128.356 23.1852L126.978 24.6352ZM127.038 24.7822C127.038 24.8604 127.022 24.9037 126.96 24.9657L128.374 26.38C128.807 25.9472 129.038 25.3968 129.038 24.7822H127.038ZM126.96 24.9657C126.921 25.0046 126.888 25.0254 126.795 25.0254V27.0254C127.394 27.0254 127.943 26.8111 128.374 26.38L126.96 24.9657ZM126.795 25.0254H119.744V27.0254H126.795V25.0254ZM119.744 25.0254C119.185 25.0254 118.717 25.2777 118.379 25.6638L119.884 26.9808C119.897 26.9667 119.887 26.9819 119.851 26.9994C119.812 27.0183 119.772 27.0254 119.744 27.0254V25.0254ZM118.401 25.6399C118.131 25.9287 117.93 26.2651 117.789 26.6342L119.658 27.3462C119.715 27.1958 119.786 27.0869 119.863 27.0046L118.401 25.6399ZM117.775 26.674C117.66 27.0193 117.594 27.3738 117.594 27.7324H119.594C119.594 27.621 119.614 27.4807 119.672 27.3065L117.775 26.674ZM117.594 27.7324V30.9795H119.594V27.7324H117.594ZM117.599 30.88C117.588 30.9854 117.569 31.0493 117.554 31.0838C117.541 31.1157 117.531 31.1246 117.53 31.1252C117.53 31.1257 117.521 31.1352 117.489 31.1479C117.455 31.1618 117.391 31.1802 117.286 31.189L117.452 33.1821C117.985 33.1377 118.518 32.9591 118.934 32.5501C119.349 32.1413 119.536 31.6113 119.589 31.079L117.599 30.88ZM117.369 31.1855C117.258 31.1855 117.187 31.1575 117.111 31.0923L115.809 32.6108C116.253 32.9909 116.787 33.1855 117.369 33.1855V31.1855ZM117.149 31.1266C117.103 31.0835 117.089 31.0564 117.089 30.9795H115.089C115.089 31.5953 115.322 32.1496 115.771 32.5766L117.149 31.1266ZM117.089 30.9795V27.751H115.089V30.9795H117.089ZM116.089 28.751H116.107V26.751H116.089V28.751ZM117.107 27.751C117.107 27.2397 117.205 26.7432 117.404 26.2549L115.553 25.4991C115.257 26.223 115.107 26.9758 115.107 27.751H117.107ZM147.187 23.4834L146.953 24.4558L146.957 24.4568L147.187 23.4834ZM148.986 24.1514L148.524 25.038L148.531 25.0419L148.539 25.0458L148.986 24.1514ZM150.489 25.3018L149.745 25.9697L149.754 25.98L150.489 25.3018ZM151.213 27.0273H152.213V26.9996L152.211 26.9719L151.213 27.0273ZM151.213 30.9795L152.208 31.079L152.213 31.0294V30.9795H151.213ZM149.988 32.1855V33.1855H150.03L150.071 33.1821L149.988 32.1855ZM149.079 31.8516L148.39 32.5766L148.409 32.5942L148.428 32.6108L149.079 31.8516ZM148.708 27.6025H149.708V27.5703L149.706 27.5382L148.708 27.6025ZM148.263 26.6562L147.556 27.3634L147.572 27.3802L147.59 27.3962L148.263 26.6562ZM147.372 26.0439L146.953 26.9519L146.959 26.9549L146.966 26.9578L147.372 26.0439ZM146.352 25.71L146.142 26.6878L146.149 26.6892L146.352 25.71ZM144.218 25.71L144.015 24.7307L144.008 24.7322L144.218 25.71ZM143.197 26.0439L142.791 25.1301L142.785 25.133L142.778 25.136L143.197 26.0439ZM142.307 26.6562L142.996 27.3804L142.997 27.3796L142.307 26.6562ZM141.88 27.6025L140.882 27.5382L140.88 27.5703V27.6025H141.88ZM141.88 30.9795L142.876 31.0625L142.88 31.0211V30.9795H141.88ZM140.674 32.1855V33.1855H140.715L140.757 33.1821L140.674 32.1855ZM139.765 31.8516L139.076 32.5766L139.094 32.5942L139.114 32.6108L139.765 31.8516ZM139.394 27.0273L138.395 26.9719L138.394 26.9996V27.0273H139.394ZM141.602 24.1514L142.049 25.0458L142.056 25.0419L142.064 25.038L141.602 24.1514ZM143.383 23.4834L143.154 22.51L143.149 22.511L143.383 23.4834ZM145.294 24.2607C145.859 24.2607 146.412 24.3259 146.953 24.4558L147.42 22.511C146.724 22.344 146.015 22.2607 145.294 22.2607V24.2607ZM146.957 24.4568C147.508 24.5863 148.029 24.78 148.524 25.038L149.449 23.2648C148.805 22.929 148.127 22.6773 147.416 22.51L146.957 24.4568ZM148.539 25.0458C148.994 25.273 149.394 25.5789 149.745 25.9697L151.234 24.6338C150.718 24.0597 150.117 23.5987 149.434 23.2569L148.539 25.0458ZM149.754 25.98C150.039 26.2883 150.19 26.642 150.214 27.0828L152.211 26.9719C152.162 26.0768 151.83 25.2801 151.224 24.6235L149.754 25.98ZM150.213 27.0273V27.8066H152.213V27.0273H150.213ZM150.213 27.8066V30.9795H152.213V27.8066H150.213ZM150.218 30.88C150.207 30.9854 150.188 31.0493 150.173 31.0838C150.16 31.1157 150.15 31.1246 150.149 31.1252C150.149 31.1257 150.14 31.1352 150.108 31.1479C150.074 31.1618 150.01 31.1802 149.905 31.189L150.071 33.1821C150.605 33.1377 151.137 32.9591 151.553 32.5501C151.968 32.1413 152.155 31.6113 152.208 31.079L150.218 30.88ZM149.988 31.1855C149.877 31.1855 149.806 31.1575 149.73 31.0923L148.428 32.6108C148.872 32.9909 149.406 33.1855 149.988 33.1855V31.1855ZM149.768 31.1266C149.723 31.0835 149.708 31.0564 149.708 30.9795H147.708C147.708 31.5953 147.941 32.1496 148.39 32.5766L149.768 31.1266ZM149.708 30.9795V30.1631H147.708V30.9795H149.708ZM149.708 30.1631V27.6025H147.708V30.1631H149.708ZM149.706 27.5382C149.665 26.9087 149.409 26.3467 148.935 25.9163L147.59 27.3962C147.661 27.4606 147.701 27.5294 147.71 27.6669L149.706 27.5382ZM148.97 25.9491C148.624 25.603 148.225 25.3287 147.778 25.1301L146.966 26.9578C147.187 27.0561 147.382 27.1899 147.556 27.3634L148.97 25.9491ZM147.791 25.136C147.398 24.9545 146.985 24.8198 146.554 24.7307L146.149 26.6892C146.436 26.7485 146.703 26.8365 146.953 26.9519L147.791 25.136ZM146.561 24.7322C146.145 24.643 145.722 24.5986 145.294 24.5986V26.5986C145.583 26.5986 145.865 26.6285 146.142 26.6878L146.561 24.7322ZM145.294 24.5986C144.866 24.5986 144.439 24.643 144.015 24.7307L144.42 26.6892C144.714 26.6285 145.005 26.5986 145.294 26.5986V24.5986ZM144.008 24.7322C143.592 24.8213 143.186 24.9545 142.791 25.1301L143.603 26.9578C143.876 26.8365 144.151 26.747 144.427 26.6878L144.008 24.7322ZM142.778 25.136C142.351 25.3334 141.963 25.6018 141.616 25.9329L142.997 27.3796C143.195 27.1912 143.401 27.0514 143.616 26.9519L142.778 25.136ZM141.617 25.9321C141.162 26.3659 140.922 26.9234 140.882 27.5382L142.878 27.6669C142.888 27.5148 142.932 27.4414 142.996 27.3804L141.617 25.9321ZM140.88 27.6025V30.1631H142.88V27.6025H140.88ZM140.88 30.1631V30.9795H142.88V30.1631H140.88ZM140.883 30.8964C140.875 31.0015 140.856 31.0641 140.843 31.0966C140.837 31.1125 140.831 31.1214 140.829 31.1255C140.827 31.1276 140.826 31.1288 140.826 31.1295C140.825 31.1301 140.825 31.1304 140.825 31.1305C140.825 31.1307 140.824 31.131 140.824 31.1315C140.823 31.132 140.822 31.1329 140.82 31.1343C140.816 31.137 140.807 31.1422 140.791 31.1486C140.758 31.1619 140.696 31.1802 140.591 31.189L140.757 33.1821C141.29 33.1377 141.825 32.959 142.239 32.5448C142.653 32.1305 142.832 31.5952 142.876 31.0625L140.883 30.8964ZM140.674 31.1855C140.563 31.1855 140.492 31.1575 140.415 31.0923L139.114 32.6108C139.557 32.9909 140.092 33.1855 140.674 33.1855V31.1855ZM140.453 31.1266C140.408 31.0835 140.394 31.0564 140.394 30.9795H138.394C138.394 31.5953 138.626 32.1496 139.076 32.5766L140.453 31.1266ZM140.394 30.9795V27.8066H138.394V30.9795H140.394ZM140.394 27.8066V27.0273H138.394V27.8066H140.394ZM140.392 27.0828C140.417 26.6341 140.567 26.277 140.843 25.9697L139.354 24.6338C138.764 25.2914 138.444 26.0847 138.395 26.9719L140.392 27.0828ZM140.843 25.9697C141.194 25.5789 141.594 25.273 142.049 25.0458L141.154 23.2569C140.471 23.5987 139.87 24.0597 139.354 24.6338L140.843 25.9697ZM142.064 25.038C142.561 24.7786 143.078 24.5849 143.616 24.4558L143.149 22.511C142.451 22.6787 141.78 22.9304 141.139 23.2648L142.064 25.038ZM143.612 24.4568C144.168 24.3259 144.728 24.2607 145.294 24.2607V22.2607C144.573 22.2607 143.859 22.344 143.154 22.51L143.612 24.4568ZM157.41 31.9629L157.376 32.9623L157.393 32.9629H157.41V31.9629ZM154.942 31.2021L154.287 31.9579L154.297 31.9662L154.942 31.2021ZM153.736 29.5879L152.81 29.9658L152.813 29.9725L153.736 29.5879ZM153.718 25.8955L152.792 25.5176L152.788 25.5275L153.718 25.8955ZM154.924 24.2812L155.569 25.0453L155.571 25.044L154.924 24.2812ZM157.076 23.5391V22.5391H157.069L157.062 22.5392L157.076 23.5391ZM163.088 23.5391L163.102 22.5392L163.095 22.5391H163.088V23.5391ZM165.222 24.2812L164.567 25.0369L164.576 25.0447L164.585 25.0522L165.222 24.2812ZM166.428 25.8955L165.495 26.257L165.5 26.2686L165.505 26.2801L166.428 25.8955ZM166.428 29.5879L167.351 29.9725L167.354 29.9658L166.428 29.5879ZM165.222 31.2021L165.867 31.9662L165.877 31.9578L165.222 31.2021ZM162.754 31.9629V32.9629H162.771L162.788 32.9623L162.754 31.9629ZM156.39 26.3223L157.121 27.0046L157.132 26.9928L157.142 26.9808L156.39 26.3223ZM156 26.9902L155.051 26.674L155.047 26.6884L155.042 26.7029L156 26.9902ZM156 28.5117L155.038 28.7864L155.046 28.8145L155.056 28.8421L156 28.5117ZM156.39 29.1797L155.637 29.8382L155.648 29.8503L155.659 29.862L156.39 29.1797ZM157.002 29.4766L156.949 30.4752L156.976 30.4766H157.002V29.4766ZM163.162 29.4766V30.4766H163.188L163.215 30.4752L163.162 29.4766ZM163.774 29.1797L164.505 29.862L164.516 29.8503L164.527 29.8382L163.774 29.1797ZM164.146 28.5117L163.197 28.1955L163.192 28.2099L163.188 28.2244L164.146 28.5117ZM164.146 26.9902L163.184 27.265L163.192 27.293L163.202 27.3206L164.146 26.9902ZM163.774 26.3223L163.022 26.9808L163.032 26.9928L163.043 27.0046L163.774 26.3223ZM157.444 30.9635C156.474 30.9304 155.906 30.7071 155.588 30.4381L154.297 31.9662C155.092 32.6373 156.17 32.9212 157.376 32.9623L157.444 30.9635ZM155.597 30.4465C155.141 30.0506 154.839 29.6348 154.659 29.2033L152.813 29.9725C153.128 30.7285 153.631 31.3889 154.287 31.9578L155.597 30.4465ZM154.662 29.21C154.461 28.7167 154.365 28.2324 154.365 27.751H152.365C152.365 28.5065 152.517 29.2468 152.81 29.9658L154.662 29.21ZM154.365 27.751C154.365 27.2328 154.459 26.7393 154.648 26.2636L152.788 25.5275C152.506 26.2392 152.365 26.9827 152.365 27.751H154.365ZM154.644 26.2734C154.823 25.833 155.122 25.4231 155.569 25.0453L154.279 23.5172C153.613 24.0795 153.107 24.7458 152.792 25.5176L154.644 26.2734ZM155.571 25.044C155.935 24.7351 156.417 24.5486 157.09 24.539L157.062 22.5392C156.003 22.5543 155.051 22.8625 154.277 23.5185L155.571 25.044ZM157.076 24.5391H163.088V22.5391H157.076V24.5391ZM163.074 24.539C163.747 24.5486 164.219 24.7351 164.567 25.0369L165.877 23.5256C165.112 22.8625 164.16 22.5543 163.102 22.5392L163.074 24.539ZM164.585 25.0522C165.04 25.4283 165.33 25.831 165.495 26.257L167.36 25.534C167.055 24.7478 166.541 24.0743 165.859 23.5103L164.585 25.0522ZM165.505 26.2801C165.701 26.752 165.799 27.2398 165.799 27.751H167.799C167.799 26.9757 167.649 26.2265 167.351 25.5109L165.505 26.2801ZM165.799 27.751C165.799 28.2324 165.703 28.7167 165.502 29.21L167.354 29.9658C167.647 29.2468 167.799 28.5065 167.799 27.751H165.799ZM165.505 29.2033C165.325 29.6348 165.024 30.0506 164.567 30.4465L165.877 31.9578C166.533 31.3889 167.036 30.7285 167.351 29.9725L165.505 29.2033ZM164.576 30.4381C164.258 30.7071 163.69 30.9304 162.72 30.9635L162.788 32.9623C163.995 32.9212 165.072 32.6373 165.867 31.9662L164.576 30.4381ZM162.754 30.9629H157.41V32.9629H162.754V30.9629ZM157.002 25.0254C156.442 25.0254 155.975 25.2777 155.637 25.6638L157.142 26.9808C157.155 26.9667 157.145 26.9819 157.109 26.9994C157.07 27.0183 157.03 27.0254 157.002 27.0254V25.0254ZM155.659 25.6399C155.38 25.9386 155.18 26.2889 155.051 26.674L156.949 27.3065C156.993 27.172 157.053 27.0771 157.121 27.0046L155.659 25.6399ZM155.042 26.7029C154.941 27.0394 154.889 27.3835 154.889 27.7324H156.889C156.889 27.5866 156.91 27.4359 156.958 27.2776L155.042 26.7029ZM154.889 27.7324C154.889 28.0888 154.94 28.4409 155.038 28.7864L156.962 28.237C156.912 28.063 156.889 27.8956 156.889 27.7324H154.889ZM155.056 28.8421C155.185 29.2105 155.38 29.5444 155.637 29.8382L157.142 28.5212C157.053 28.4191 156.988 28.3078 156.944 28.1814L155.056 28.8421ZM155.659 29.862C155.993 30.2205 156.434 30.4481 156.949 30.4752L157.055 28.4779C157.058 28.4782 157.066 28.479 157.077 28.4817C157.088 28.4845 157.099 28.4885 157.109 28.4933C157.13 28.5035 157.133 28.5108 157.121 28.4974L155.659 29.862ZM157.002 30.4766H163.162V28.4766H157.002V30.4766ZM163.215 30.4752C163.73 30.4481 164.171 30.2205 164.505 29.862L163.043 28.4974C163.031 28.5108 163.034 28.5035 163.055 28.4933C163.065 28.4885 163.076 28.4845 163.087 28.4817C163.098 28.479 163.106 28.4782 163.11 28.4779L163.215 30.4752ZM164.527 29.8382C164.793 29.5347 164.987 29.186 165.103 28.7991L163.188 28.2244C163.155 28.3323 163.103 28.4289 163.022 28.5212L164.527 29.8382ZM165.094 28.8279C165.213 28.4718 165.275 28.1054 165.275 27.7324H163.275C163.275 27.879 163.251 28.0321 163.197 28.1955L165.094 28.8279ZM165.275 27.7324C165.275 27.366 165.211 27.0071 165.089 26.6599L163.202 27.3206C163.253 27.4682 163.275 27.6041 163.275 27.7324H165.275ZM165.107 26.7155C164.992 26.3136 164.794 25.9486 164.505 25.6399L163.043 27.0046C163.102 27.067 163.15 27.1473 163.184 27.265L165.107 26.7155ZM164.527 25.6638C164.189 25.2777 163.722 25.0254 163.162 25.0254V27.0254C163.134 27.0254 163.094 27.0183 163.055 26.9994C163.019 26.9819 163.01 26.9667 163.022 26.9808L164.527 25.6638ZM163.162 25.0254H157.002V27.0254H163.162V25.0254ZM171.604 31.9814L171.263 32.9213L171.272 32.9244L171.604 31.9814ZM170.417 31.332L169.805 32.1228L169.813 32.129L169.821 32.1351L170.417 31.332ZM168.951 28.4375H167.951V28.456L167.952 28.4745L168.951 28.4375ZM169.322 23.6318L169.991 24.3751L169.993 24.3734L169.322 23.6318ZM170.231 23.2793L170.314 22.2828L170.273 22.2793H170.231V23.2793ZM171.438 24.4854H172.438V24.4438L172.434 24.4023L171.438 24.4854ZM171.438 28.2891H170.438V28.3099L170.438 28.3307L171.438 28.2891ZM171.623 29.0498L170.739 29.5177L170.745 29.529L170.751 29.5401L171.623 29.0498ZM171.994 29.5322L171.321 30.2722L171.341 30.2897L171.361 30.3062L171.994 29.5322ZM172.402 29.792L171.989 30.7024L172.036 30.7241L172.086 30.7407L172.402 29.792ZM173.293 29.792L173.609 30.7407L173.644 30.7291L173.678 30.7151L173.293 29.792ZM173.72 29.5322L174.353 30.3062L174.373 30.2897L174.392 30.2722L173.72 29.5322ZM174.091 29.0498L174.962 29.5401L174.969 29.529L174.975 29.5177L174.091 29.0498ZM174.629 23.6318L175.298 24.3751L175.3 24.3734L174.629 23.6318ZM175.538 23.2793L175.621 22.2828L175.58 22.2793H175.538V23.2793ZM176.763 24.4854H177.763V24.4355L177.758 24.3858L176.763 24.4854ZM176.763 28.2891H175.763V28.3099L175.764 28.3307L176.763 28.2891ZM176.948 29.0312L177.832 28.5634L177.826 28.5521L177.82 28.541L176.948 29.0312ZM177.319 29.5322L176.647 30.2722L176.666 30.2897L176.686 30.3062L177.319 29.5322ZM177.728 29.792L177.314 30.7024L177.362 30.7241L177.411 30.7407L177.728 29.792ZM178.618 29.792L178.934 30.7407L178.969 30.7291L179.003 30.7151L178.618 29.792ZM179.045 29.5322L179.678 30.3062L179.698 30.2897L179.718 30.2722L179.045 29.5322ZM179.416 29.0498L180.288 29.5401L180.294 29.529L180.3 29.5177L179.416 29.0498ZM179.954 23.6318L180.623 24.3751L180.625 24.3734L179.954 23.6318ZM180.863 23.2793L180.946 22.2828L180.905 22.2793H180.863V23.2793ZM182.088 24.4854H183.088V24.4355L183.083 24.3858L182.088 24.4854ZM181.643 30.1631L180.791 29.639L180.786 29.647L180.781 29.6551L181.643 30.1631ZM180.641 31.332L181.249 32.1256L181.253 32.1228L180.641 31.332ZM179.453 31.9814L179.12 31.0384L179.111 31.0417L179.453 31.9814ZM176.93 31.9814L176.588 32.9213L176.597 32.9244L176.93 31.9814ZM175.742 31.3135L176.354 30.5228L176.326 30.5011L176.297 30.4814L175.742 31.3135ZM175.538 31.1465L176.245 30.4394L175.599 29.7936L174.898 30.3783L175.538 31.1465ZM175.334 31.3135L175.946 32.1042L175.952 32.0993L175.959 32.0943L175.334 31.3135ZM174.128 31.9814L173.795 31.0384L173.786 31.0417L174.128 31.9814ZM172.866 31.2041C172.566 31.2041 172.257 31.1515 171.937 31.0385L171.272 32.9244C171.793 33.1083 172.326 33.2041 172.866 33.2041V31.2041ZM171.946 31.0417C171.637 30.9294 171.326 30.7615 171.013 30.5289L169.821 32.1351C170.275 32.4716 170.755 32.7367 171.263 32.9212L171.946 31.0417ZM171.029 30.5413C170.76 30.3331 170.506 30.045 170.276 29.6551L168.554 30.6711C168.893 31.246 169.307 31.7372 169.805 32.1228L171.029 30.5413ZM170.276 29.6551C170.091 29.3411 169.97 28.9345 169.95 28.4005L167.952 28.4745C167.982 29.2765 168.17 30.0203 168.554 30.6711L170.276 29.6551ZM169.951 28.4375V24.4854H167.951V28.4375H169.951ZM169.951 24.4854C169.951 24.4334 169.96 24.4135 169.961 24.4109C169.962 24.4094 169.966 24.3978 169.991 24.3751L168.653 22.8885C168.186 23.3094 167.951 23.8686 167.951 24.4854H169.951ZM169.993 24.3734C170.071 24.3026 170.136 24.2793 170.231 24.2793V22.2793C169.634 22.2793 169.093 22.491 168.651 22.8903L169.993 24.3734ZM170.148 24.2758C170.253 24.2846 170.316 24.303 170.349 24.3162C170.364 24.3226 170.373 24.3279 170.377 24.3305C170.38 24.3319 170.381 24.3329 170.381 24.3334C170.382 24.3339 170.382 24.3342 170.382 24.3343C170.383 24.3344 170.383 24.3348 170.383 24.3354C170.384 24.336 170.385 24.3372 170.386 24.3394C170.389 24.3434 170.394 24.3523 170.401 24.3682C170.414 24.4008 170.432 24.4633 170.441 24.5684L172.434 24.4023C172.39 23.8696 172.211 23.3343 171.797 22.9201C171.382 22.5058 170.847 22.3271 170.314 22.2828L170.148 24.2758ZM170.438 24.4854V28.2891H172.438V24.4854H170.438ZM170.438 28.3307C170.455 28.7404 170.543 29.1471 170.739 29.5177L172.507 28.5819C172.48 28.5319 172.444 28.4315 172.437 28.2474L170.438 28.3307ZM170.751 29.5401C170.903 29.8103 171.09 30.0618 171.321 30.2722L172.667 28.7923C172.626 28.7553 172.565 28.6852 172.495 28.5595L170.751 29.5401ZM171.361 30.3062C171.552 30.4629 171.761 30.5991 171.989 30.7024L172.816 28.8816C172.771 28.8612 172.708 28.8242 172.627 28.7583L171.361 30.3062ZM172.086 30.7407C172.331 30.8223 172.586 30.8662 172.848 30.8662V28.8662C172.812 28.8662 172.771 28.8606 172.719 28.8433L172.086 30.7407ZM172.848 30.8662C173.109 30.8662 173.364 30.8223 173.609 30.7407L172.977 28.8433C172.925 28.8606 172.883 28.8662 172.848 28.8662V30.8662ZM173.678 30.7151C173.924 30.6125 174.149 30.4733 174.353 30.3062L173.086 28.7583C173.019 28.8138 172.959 28.8477 172.908 28.8689L173.678 30.7151ZM174.392 30.2722C174.624 30.0618 174.81 29.8103 174.962 29.5401L173.219 28.5595C173.149 28.6852 173.088 28.7553 173.047 28.7923L174.392 30.2722ZM174.975 29.5177C175.179 29.1319 175.258 28.7094 175.258 28.2891H173.258C173.258 28.4625 173.225 28.5472 173.207 28.5819L174.975 29.5177ZM175.258 28.2891V24.4854H173.258V28.2891H175.258ZM175.258 24.4854C175.258 24.4334 175.267 24.4135 175.268 24.4109C175.268 24.4094 175.273 24.3978 175.298 24.3751L173.96 22.8885C173.492 23.3094 173.258 23.8686 173.258 24.4854H175.258ZM175.3 24.3734C175.378 24.3026 175.443 24.2793 175.538 24.2793V22.2793C174.941 22.2793 174.399 22.491 173.958 22.8903L175.3 24.3734ZM175.455 24.2758C175.56 24.2846 175.624 24.303 175.658 24.3169C175.69 24.3297 175.699 24.3391 175.699 24.3397C175.7 24.3402 175.71 24.3491 175.723 24.381C175.738 24.4156 175.757 24.4794 175.768 24.5849L177.758 24.3858C177.705 23.8536 177.518 23.3235 177.103 22.9147C176.687 22.5057 176.154 22.3272 175.621 22.2828L175.455 24.2758ZM175.763 24.4854V28.2891H177.763V24.4854H175.763ZM175.764 28.3307C175.781 28.7383 175.868 29.1505 176.077 29.5215L177.82 28.541C177.806 28.5162 177.77 28.4336 177.762 28.2474L175.764 28.3307ZM176.064 29.4991C176.215 29.7831 176.404 30.0516 176.647 30.2722L177.992 28.7923C177.963 28.7655 177.904 28.6999 177.832 28.5634L176.064 29.4991ZM176.686 30.3062C176.878 30.4629 177.087 30.5991 177.314 30.7024L178.141 28.8816C178.096 28.8612 178.033 28.8242 177.953 28.7583L176.686 30.3062ZM177.411 30.7407C177.656 30.8223 177.911 30.8662 178.173 30.8662V28.8662C178.138 28.8662 178.096 28.8606 178.044 28.8433L177.411 30.7407ZM178.173 30.8662C178.434 30.8662 178.69 30.8223 178.934 30.7407L178.302 28.8433C178.25 28.8606 178.208 28.8662 178.173 28.8662V30.8662ZM179.003 30.7151C179.249 30.6125 179.474 30.4733 179.678 30.3062L178.412 28.7583C178.344 28.8138 178.284 28.8477 178.234 28.8689L179.003 30.7151ZM179.718 30.2722C179.949 30.0618 180.136 29.8103 180.288 29.5401L178.544 28.5595C178.474 28.6852 178.413 28.7553 178.372 28.7923L179.718 30.2722ZM180.3 29.5177C180.504 29.1319 180.583 28.7094 180.583 28.2891H178.583C178.583 28.4625 178.551 28.5472 178.532 28.5819L180.3 29.5177ZM180.583 28.2891V24.4854H178.583V28.2891H180.583ZM180.583 24.4854C180.583 24.4334 180.592 24.4135 180.593 24.4109C180.594 24.4094 180.598 24.3978 180.623 24.3751L179.285 22.8885C178.818 23.3094 178.583 23.8686 178.583 24.4854H180.583ZM180.625 24.3734C180.703 24.3026 180.768 24.2793 180.863 24.2793V22.2793C180.266 22.2793 179.724 22.491 179.283 22.8903L180.625 24.3734ZM180.78 24.2758C180.885 24.2846 180.949 24.303 180.983 24.3169C181.015 24.3297 181.024 24.3391 181.024 24.3397C181.025 24.3402 181.035 24.3491 181.048 24.381C181.063 24.4156 181.082 24.4794 181.093 24.5849L183.083 24.3858C183.03 23.8536 182.843 23.3235 182.428 22.9147C182.012 22.5057 181.48 22.3272 180.946 22.2828L180.78 24.2758ZM181.088 24.4854V28.4375H183.088V24.4854H181.088ZM181.088 28.4375C181.088 28.954 180.975 29.3405 180.791 29.639L182.494 30.6872C182.904 30.0208 183.088 29.257 183.088 28.4375H181.088ZM180.781 29.6551C180.551 30.045 180.297 30.3331 180.028 30.5413L181.253 32.1228C181.751 31.7372 182.165 31.246 182.504 30.6711L180.781 29.6551ZM180.032 30.5384C179.74 30.7621 179.437 30.9267 179.12 31.0385L179.786 32.9244C180.31 32.7393 180.799 32.471 181.249 32.1256L180.032 30.5384ZM179.111 31.0417C178.812 31.1504 178.507 31.2041 178.191 31.2041V33.2041C178.741 33.2041 179.277 33.1094 179.795 32.9212L179.111 31.0417ZM178.191 31.2041C177.891 31.2041 177.583 31.1515 177.263 31.0385L176.597 32.9244C177.118 33.1083 177.651 33.2041 178.191 33.2041V31.2041ZM177.271 31.0417C176.971 30.9325 176.665 30.7635 176.354 30.5228L175.13 32.1042C175.586 32.4572 176.072 32.7336 176.588 32.9212L177.271 31.0417ZM176.297 30.4814C176.276 30.4678 176.26 30.4537 176.245 30.4394L174.831 31.8536C174.94 31.9629 175.06 32.0602 175.187 32.1455L176.297 30.4814ZM174.898 30.3783C174.828 30.4367 174.765 30.4881 174.709 30.5326L175.959 32.0943C176.027 32.0399 176.1 31.9799 176.178 31.9147L174.898 30.3783ZM174.722 30.5228C174.415 30.76 174.107 30.9285 173.795 31.0385L174.461 32.9244C174.99 32.7375 175.486 32.4607 175.946 32.1042L174.722 30.5228ZM173.786 31.0417C173.487 31.1504 173.182 31.2041 172.866 31.2041V33.2041C173.416 33.2041 173.952 33.1094 174.47 32.9212L173.786 31.0417Z" mask="url(#path-3-outside-1_1008_66)"/></svg>