<svg width="136" height="12" viewBox="0 0 136 12" fill="none" xmlns="http://www.w3.org/2000/svg">
<path d="M1.67578 3.28125C1.9043 3.28971 2.09896 3.37435 2.25977 3.53516C2.42057 3.6875 2.50521 3.87793 2.51367 4.10645V6.22656H6.63965V4.10645C6.64811 3.86947 6.73698 3.6748 6.90625 3.52246C7.07552 3.36165 7.27865 3.28125 7.51562 3.28125C7.74414 3.28971 7.9388 3.37435 8.09961 3.53516C8.26042 3.6875 8.34505 3.87793 8.35352 4.10645V10.3271C8.30273 10.835 8.02344 11.11 7.51562 11.1523C7.27865 11.1523 7.07129 11.0762 6.89355 10.9238C6.72428 10.763 6.63965 10.5641 6.63965 10.3271V7.92773H2.51367V10.3271C2.46289 10.835 2.18359 11.11 1.67578 11.1523C1.4388 11.1523 1.23145 11.0762 1.05371 10.9238C0.88444 10.763 0.799805 10.5641 0.799805 10.3271V4.10645C0.808268 3.86947 0.897135 3.6748 1.06641 3.52246C1.23568 3.36165 1.4388 3.28125 1.67578 3.28125ZM17.0244 10.3018V7.24219C17.0244 7.0306 16.9144 6.92057 16.6943 6.91211H12.251C12.0902 6.92057 11.9505 6.99251 11.832 7.12793C11.7135 7.25488 11.6247 7.40723 11.5654 7.58496C11.5146 7.75423 11.4893 7.92773 11.4893 8.10547C11.4893 8.27474 11.5146 8.44824 11.5654 8.62598C11.6247 8.79525 11.7135 8.94759 11.832 9.08301C11.9505 9.20996 12.0902 9.27344 12.251 9.27344H15.501C15.738 9.27344 15.9368 9.35807 16.0977 9.52734C16.2669 9.68815 16.3516 9.88704 16.3516 10.124C16.3516 10.361 16.2669 10.5599 16.0977 10.7207C15.9368 10.89 15.738 10.9746 15.501 10.9746H12.3018C11.7093 10.9661 11.2184 10.8011 10.8291 10.4795C10.4482 10.1494 10.1732 9.78125 10.0039 9.375C9.8431 8.96029 9.7627 8.53288 9.7627 8.09277C9.7627 7.6696 9.84733 7.25488 10.0166 6.84863C10.1859 6.43392 10.4609 6.06576 10.8418 5.74414C11.2227 5.41406 11.7855 5.23633 12.5303 5.21094H17.8623C18.0993 5.21094 18.3024 5.29134 18.4717 5.45215C18.641 5.60449 18.7298 5.79915 18.7383 6.03613V10.3018C18.7383 10.5387 18.6494 10.7376 18.4717 10.8984C18.3024 11.0508 18.0993 11.127 17.8623 11.127C17.3545 11.0846 17.0752 10.8096 17.0244 10.3018ZM22.9531 10.9746C22.2083 10.9492 21.6455 10.7757 21.2646 10.4541C20.8838 10.124 20.6087 9.75586 20.4395 9.34961C20.2702 8.9349 20.1855 8.51595 20.1855 8.09277C20.1855 7.65267 20.266 7.22949 20.4268 6.82324C20.596 6.40853 20.8711 6.04036 21.252 5.71875C21.6413 5.38867 22.1322 5.2194 22.7246 5.21094H27.5488C27.7858 5.21094 27.9847 5.29557 28.1455 5.46484C28.3148 5.62565 28.3994 5.82454 28.3994 6.06152C28.3994 6.2985 28.3148 6.50163 28.1455 6.6709C27.9847 6.83171 27.7858 6.91211 27.5488 6.91211H22.6738C22.513 6.91211 22.3734 6.97982 22.2549 7.11523C22.1364 7.24219 22.0475 7.39453 21.9883 7.57227C21.9375 7.74154 21.9121 7.91081 21.9121 8.08008C21.9121 8.25781 21.9375 8.43555 21.9883 8.61328C22.0475 8.78255 22.1364 8.9349 22.2549 9.07031C22.3734 9.19727 22.513 9.26497 22.6738 9.27344H27.5488C27.7858 9.27344 27.9847 9.35807 28.1455 9.52734C28.3148 9.68815 28.3994 9.88704 28.3994 10.124C28.3994 10.361 28.3148 10.5599 28.1455 10.7207C27.9847 10.89 27.7858 10.9746 27.5488 10.9746H22.9531ZM30.6084 3.28125C30.8369 3.28971 31.0316 3.37435 31.1924 3.53516C31.3532 3.6875 31.4378 3.87793 31.4463 4.10645V10.3271C31.3955 10.835 31.1162 11.11 30.6084 11.1523C30.3714 11.1523 30.1641 11.0762 29.9863 10.9238C29.8171 10.763 29.7324 10.5641 29.7324 10.3271V4.10645C29.7409 3.86947 29.8298 3.6748 29.999 3.52246C30.1683 3.36165 30.3714 3.28125 30.6084 3.28125ZM32.2207 6.82324C32.4661 6.42546 32.9359 6.13346 33.6299 5.94727L36.8926 5.07129C37.1211 5.00358 37.3369 5.02474 37.54 5.13477C37.7516 5.23633 37.8913 5.40137 37.959 5.62988C38.0352 5.84993 38.0182 6.06576 37.9082 6.27734C37.8066 6.48047 37.6416 6.62012 37.4131 6.69629L33.9346 7.59766C33.6891 7.69076 33.5706 7.85156 33.5791 8.08008C33.5706 8.30859 33.6891 8.4694 33.9346 8.5625L37.4131 9.46387C37.6416 9.54004 37.8066 9.68392 37.9082 9.89551C38.0182 10.0986 38.0352 10.3102 37.959 10.5303C37.8913 10.7588 37.7516 10.9238 37.54 11.0254C37.3369 11.1354 37.1211 11.1566 36.8926 11.0889L33.6299 10.2129C32.9274 10.0182 32.4535 9.72201 32.208 9.32422C31.971 8.92643 31.8525 8.51172 31.8525 8.08008C31.8525 7.64844 31.9753 7.22949 32.2207 6.82324ZM52.5332 3.28125C52.7702 3.28125 52.9733 3.36165 53.1426 3.52246C53.3118 3.6748 53.4007 3.86947 53.4092 4.10645V5.21094H57.7256C57.9626 5.21094 58.1657 5.29134 58.335 5.45215C58.4958 5.62142 58.5762 5.82454 58.5762 6.06152C58.5762 6.2985 58.4915 6.50163 58.3223 6.6709C58.1615 6.83171 57.9626 6.91211 57.7256 6.91211H53.4092V7.16602C53.4007 7.51302 53.4219 7.83464 53.4727 8.13086C53.5319 8.41862 53.6673 8.67676 53.8789 8.90527C54.0905 9.13379 54.3571 9.25651 54.6787 9.27344H57.7764C58.0133 9.2819 58.208 9.37077 58.3604 9.54004C58.5212 9.70931 58.6016 9.91243 58.6016 10.1494C58.5931 10.3779 58.5085 10.5726 58.3477 10.7334C58.1953 10.8857 58.0049 10.9661 57.7764 10.9746H54.2471C53.6546 10.9408 53.1637 10.7419 52.7744 10.3779C52.3936 10.0055 52.1185 9.55273 51.9492 9.01953C51.7884 8.48633 51.7038 7.91927 51.6953 7.31836V6.91211H50.2354C49.9984 6.91211 49.7995 6.82747 49.6387 6.6582C49.4694 6.4974 49.3848 6.2985 49.3848 6.06152C49.3848 5.82454 49.4652 5.62565 49.626 5.46484C49.7952 5.29557 49.9984 5.21094 50.2354 5.21094H51.6953V4.10645C51.7038 3.87793 51.7884 3.6875 51.9492 3.53516C52.11 3.37435 52.3047 3.28971 52.5332 3.28125ZM60.6963 3.28125C60.9248 3.28971 61.1195 3.37435 61.2803 3.53516C61.4411 3.6875 61.5257 3.87793 61.5342 4.10645V5.21094H65.4697C66.0622 5.2194 66.5488 5.38867 66.9297 5.71875C67.319 6.04036 67.5941 6.4043 67.7549 6.81055C67.9242 7.22526 68.0088 7.65267 68.0088 8.09277H68.0215V10.3018C68.0215 10.5387 67.9326 10.7376 67.7549 10.8984C67.5856 11.0508 67.3825 11.127 67.1455 11.127C66.6377 11.0846 66.3584 10.8096 66.3076 10.3018V8.08008C66.3076 7.91927 66.2738 7.75 66.2061 7.57227C66.1468 7.39453 66.0579 7.24219 65.9395 7.11523C65.821 6.97982 65.6813 6.91211 65.5205 6.91211H61.5342V10.3271C61.4834 10.835 61.2041 11.11 60.6963 11.1523C60.4593 11.1523 60.252 11.0762 60.0742 10.9238C59.9049 10.763 59.8203 10.5641 59.8203 10.3271V4.10645C59.8288 3.86947 59.9176 3.6748 60.0869 3.52246C60.2562 3.36165 60.4593 3.28125 60.6963 3.28125ZM72.2236 10.9746C71.4788 10.9492 70.916 10.7757 70.5352 10.4541C70.1543 10.124 69.8792 9.75586 69.71 9.34961C69.5407 8.9349 69.4561 8.51595 69.4561 8.09277C69.4561 7.65267 69.5365 7.22949 69.6973 6.82324C69.8665 6.40853 70.1416 6.04036 70.5225 5.71875C70.9118 5.38867 71.4027 5.2194 71.9951 5.21094H76.8193C77.0563 5.21094 77.2552 5.29134 77.416 5.45215C77.5853 5.60449 77.6699 5.79069 77.6699 6.01074C77.6699 6.23926 77.5853 6.43392 77.416 6.59473C77.2552 6.74707 77.0563 6.82324 76.8193 6.82324H72.0713C71.8851 6.82324 71.7201 6.88672 71.5762 7.01367C71.4408 7.14062 71.3392 7.30566 71.2715 7.50879C71.2122 7.71191 71.1826 7.91081 71.1826 8.10547C71.1826 8.31706 71.2122 8.52441 71.2715 8.72754C71.3392 8.93066 71.4408 9.0957 71.5762 9.22266C71.7201 9.34115 71.8851 9.40462 72.0713 9.41309H76.8193C77.0563 9.41309 77.2552 9.48926 77.416 9.6416C77.5853 9.79395 77.6699 9.97591 77.6699 10.1875C77.6699 10.4076 77.5853 10.5938 77.416 10.7461C77.2552 10.8984 77.0563 10.9746 76.8193 10.9746H72.2236ZM77.5176 8.06738C77.5176 8.22819 77.4456 8.36784 77.3018 8.48633C77.1748 8.59635 77.014 8.65137 76.8193 8.65137H72.668C72.4733 8.65137 72.3083 8.59635 72.1729 8.48633C72.0374 8.36784 71.9697 8.22819 71.9697 8.06738C71.9697 7.91504 72.0374 7.77962 72.1729 7.66113C72.3083 7.55111 72.4733 7.49609 72.668 7.49609H76.8193C77.014 7.49609 77.179 7.55534 77.3145 7.67383C77.4499 7.78385 77.5176 7.91504 77.5176 8.06738ZM83.1797 5.02051C83.6198 5.02051 84.0514 5.07129 84.4746 5.17285C84.9062 5.27441 85.3167 5.42676 85.7061 5.62988C86.0954 5.82454 86.4382 6.08691 86.7344 6.41699C87.0391 6.74707 87.2041 7.14062 87.2295 7.59766V8.13086V10.3018C87.1787 10.8096 86.8994 11.0846 86.3916 11.127C86.1546 11.127 85.9473 11.0508 85.7695 10.8984C85.6003 10.7376 85.5156 10.5387 85.5156 10.3018V9.74316V7.99121C85.4987 7.72884 85.3971 7.51302 85.2109 7.34375C85.0332 7.16602 84.8301 7.02637 84.6016 6.9248C84.3815 6.82324 84.1488 6.74707 83.9033 6.69629C83.6663 6.64551 83.4251 6.62012 83.1797 6.62012C82.9342 6.62012 82.6888 6.64551 82.4434 6.69629C82.2064 6.74707 81.9736 6.82324 81.7451 6.9248C81.5251 7.02637 81.3219 7.16602 81.1357 7.34375C80.958 7.51302 80.8607 7.72884 80.8438 7.99121V9.74316V10.3018C80.8014 10.8096 80.5264 11.0846 80.0186 11.127C79.7816 11.127 79.5742 11.0508 79.3965 10.8984C79.2272 10.7376 79.1426 10.5387 79.1426 10.3018V8.13086V7.59766C79.168 7.14062 79.3288 6.74707 79.625 6.41699C79.9212 6.08691 80.264 5.82454 80.6533 5.62988C81.0426 5.42676 81.4489 5.27441 81.8721 5.17285C82.3037 5.07129 82.7396 5.02051 83.1797 5.02051ZM95.9385 10.3018V7.24219C95.9385 7.0306 95.8285 6.92057 95.6084 6.91211H91.165C91.0042 6.92057 90.8646 6.99251 90.7461 7.12793C90.6276 7.25488 90.5387 7.40723 90.4795 7.58496C90.4287 7.75423 90.4033 7.92773 90.4033 8.10547C90.4033 8.27474 90.4287 8.44824 90.4795 8.62598C90.5387 8.79525 90.6276 8.94759 90.7461 9.08301C90.8646 9.20996 91.0042 9.27344 91.165 9.27344H94.415C94.652 9.27344 94.8509 9.35807 95.0117 9.52734C95.181 9.68815 95.2656 9.88704 95.2656 10.124C95.2656 10.361 95.181 10.5599 95.0117 10.7207C94.8509 10.89 94.652 10.9746 94.415 10.9746H91.2158C90.6234 10.9661 90.1325 10.8011 89.7432 10.4795C89.3623 10.1494 89.0872 9.78125 88.918 9.375C88.7572 8.96029 88.6768 8.53288 88.6768 8.09277C88.6768 7.6696 88.7614 7.25488 88.9307 6.84863C89.0999 6.43392 89.375 6.06576 89.7559 5.74414C90.1367 5.41406 90.6995 5.23633 91.4443 5.21094H96.7764C97.0133 5.21094 97.2165 5.29134 97.3857 5.45215C97.555 5.60449 97.6439 5.79915 97.6523 6.03613V10.3018C97.6523 10.5387 97.5635 10.7376 97.3857 10.8984C97.2165 11.0508 97.0133 11.127 96.7764 11.127C96.2686 11.0846 95.9893 10.8096 95.9385 10.3018ZM106.844 5.26172C106.768 5.30404 106.691 5.3252 106.615 5.3252C106.573 5.3252 106.531 5.31673 106.488 5.2998C106.37 5.26595 106.281 5.18978 106.222 5.07129C106.162 4.9528 106.15 4.83431 106.184 4.71582C106.217 4.58887 106.289 4.4873 106.399 4.41113C106.933 4.02181 107.22 3.52669 107.263 2.92578C107.263 2.89193 107.25 2.86654 107.225 2.84961C107.199 2.82422 107.17 2.81152 107.136 2.81152C106.848 2.81152 106.603 2.72266 106.399 2.54492C106.196 2.35872 106.095 2.11328 106.095 1.80859C106.095 1.47852 106.192 1.21615 106.387 1.02148C106.581 0.818359 106.831 0.716797 107.136 0.716797C107.542 0.716797 107.851 0.873372 108.062 1.18652C108.283 1.49121 108.393 1.92285 108.393 2.48145C108.393 3.6748 107.876 4.60156 106.844 5.26172ZM116.594 4.33496C116.594 4.09798 116.674 3.89909 116.835 3.73828C117.004 3.56901 117.207 3.48438 117.444 3.48438H122.345C122.396 3.48438 122.446 3.48861 122.497 3.49707H122.573C123.166 3.514 123.652 3.64941 124.033 3.90332C124.414 4.15723 124.689 4.44922 124.858 4.7793C125.028 5.10091 125.112 5.42676 125.112 5.75684C125.112 6.09538 125.028 6.42969 124.858 6.75977C124.698 7.08138 124.423 7.36914 124.033 7.62305C123.652 7.87695 123.166 8.01237 122.573 8.0293H118.968C118.807 8.03776 118.672 8.07585 118.562 8.14355C118.46 8.21126 118.384 8.30013 118.333 8.41016C118.282 8.51172 118.257 8.59212 118.257 8.65137V8.91797C118.257 9.02799 118.282 9.11263 118.333 9.17188C118.392 9.23112 118.502 9.25651 118.663 9.24805H124.198C124.435 9.24805 124.634 9.33268 124.795 9.50195C124.964 9.66276 125.049 9.86165 125.049 10.0986C125.049 10.3356 124.964 10.5387 124.795 10.708C124.634 10.8688 124.435 10.9492 124.198 10.9492H117.978C117.504 10.9492 117.14 10.835 116.886 10.6064C116.64 10.3695 116.513 10.0352 116.505 9.60352V8.65137C116.505 8.30436 116.585 7.96582 116.746 7.63574C116.915 7.2972 117.19 7.00098 117.571 6.74707C117.961 6.4847 118.451 6.34505 119.044 6.32812H122.649C122.81 6.31966 122.941 6.28581 123.043 6.22656C123.153 6.15885 123.233 6.08691 123.284 6.01074C123.335 5.92611 123.36 5.84147 123.36 5.75684C123.36 5.6722 123.335 5.5918 123.284 5.51562C123.233 5.43099 123.153 5.35905 123.043 5.2998C122.941 5.2321 122.81 5.19401 122.649 5.18555H117.444C117.207 5.18555 117.008 5.10091 116.848 4.93164C116.678 4.77083 116.594 4.57194 116.594 4.33496ZM126.75 10.0986C126.75 9.86165 126.835 9.66276 127.004 9.50195C127.165 9.33268 127.364 9.24805 127.601 9.24805H132.806C132.966 9.23958 133.098 9.2015 133.199 9.13379C133.309 9.06608 133.39 8.98991 133.44 8.90527C133.491 8.82064 133.517 8.73177 133.517 8.63867C133.517 8.54557 133.491 8.45671 133.44 8.37207C133.39 8.28743 133.309 8.21126 133.199 8.14355C133.098 8.07585 132.966 8.03776 132.806 8.0293H129.2C128.608 8.01237 128.117 7.87695 127.728 7.62305C127.347 7.36068 127.072 7.06445 126.902 6.73438C126.742 6.39583 126.661 6.05306 126.661 5.70605V4.83008C126.67 4.39844 126.797 4.06836 127.042 3.83984C127.296 3.60286 127.66 3.48438 128.134 3.48438H134.354C134.591 3.48438 134.79 3.56901 134.951 3.73828C135.12 3.89909 135.205 4.09798 135.205 4.33496C135.205 4.57194 135.12 4.77083 134.951 4.93164C134.79 5.10091 134.591 5.18555 134.354 5.18555H128.819C128.659 5.17708 128.549 5.20247 128.489 5.26172C128.438 5.32096 128.413 5.4056 128.413 5.51562V5.70605C128.413 5.7653 128.438 5.84993 128.489 5.95996C128.54 6.06152 128.616 6.14616 128.718 6.21387C128.828 6.28158 128.963 6.31966 129.124 6.32812H132.729C133.322 6.33659 133.809 6.47201 134.189 6.73438C134.579 6.98828 134.854 7.28451 135.015 7.62305C135.184 7.95312 135.269 8.29167 135.269 8.63867C135.269 8.96875 135.184 9.30306 135.015 9.6416C134.845 9.97168 134.57 10.2679 134.189 10.5303C133.809 10.7842 133.322 10.9196 132.729 10.9365H132.653C132.603 10.945 132.552 10.9492 132.501 10.9492H127.601C127.364 10.9492 127.16 10.8688 126.991 10.708C126.83 10.5387 126.75 10.3356 126.75 10.0986Z" fill="#05050A"/>
<path d="M46.4268 10.3018V7.24219C46.4268 7.0306 46.3167 6.92057 46.0967 6.91211H41.6533C41.4925 6.92057 41.3529 6.99251 41.2344 7.12793C41.1159 7.25488 41.027 7.40723 40.9678 7.58496C40.917 7.75423 40.8916 7.92773 40.8916 8.10547C40.8916 8.27474 40.917 8.44824 40.9678 8.62598C41.027 8.79525 41.1159 8.94759 41.2344 9.08301C41.3529 9.20996 41.4925 9.27344 41.6533 9.27344H44.9033C45.1403 9.27344 45.3392 9.35807 45.5 9.52734C45.6693 9.68815 45.7539 9.88704 45.7539 10.124C45.7539 10.361 45.6693 10.5599 45.5 10.7207C45.3392 10.89 45.1403 10.9746 44.9033 10.9746H41.7041C41.1117 10.9661 40.6208 10.8011 40.2314 10.4795C39.8506 10.1494 39.5755 9.78125 39.4062 9.375C39.2454 8.96029 39.165 8.53288 39.165 8.09277C39.165 7.6696 39.2497 7.25488 39.4189 6.84863C39.5882 6.43392 39.8633 6.06576 40.2441 5.74414C40.625 5.41406 41.1878 5.23633 41.9326 5.21094H47.2646C47.5016 5.21094 47.7048 5.29134 47.874 5.45215C48.0433 5.60449 48.1322 5.79915 48.1406 6.03613V10.3018C48.1406 10.5387 48.0518 10.7376 47.874 10.8984C47.7048 11.0508 47.5016 11.127 47.2646 11.127C46.7568 11.0846 46.4775 10.8096 46.4268 10.3018Z" fill="#BA0403"/>
</svg>
