<svg width="321" height="31" viewBox="0 0 321 31" fill="none" xmlns="http://www.w3.org/2000/svg">
<path d="M1.67578 10.2812C1.9043 10.2897 2.09896 10.3743 2.25977 10.5352C2.42057 10.6875 2.50521 10.8779 2.51367 11.1064V13.2266H6.63965V11.1064C6.64811 10.8695 6.73698 10.6748 6.90625 10.5225C7.07552 10.3617 7.27865 10.2812 7.51562 10.2812C7.74414 10.2897 7.9388 10.3743 8.09961 10.5352C8.26042 10.6875 8.34505 10.8779 8.35352 11.1064V17.3271C8.30273 17.835 8.02344 18.11 7.51562 18.1523C7.27865 18.1523 7.07129 18.0762 6.89355 17.9238C6.72428 17.763 6.63965 17.5641 6.63965 17.3271V14.9277H2.51367V17.3271C2.46289 17.835 2.18359 18.11 1.67578 18.1523C1.4388 18.1523 1.23145 18.0762 1.05371 17.9238C0.88444 17.763 0.799805 17.5641 0.799805 17.3271V11.1064C0.808268 10.8695 0.897135 10.6748 1.06641 10.5225C1.23568 10.3617 1.4388 10.2812 1.67578 10.2812ZM17.0244 17.3018V14.2422C17.0244 14.0306 16.9144 13.9206 16.6943 13.9121H12.251C12.0902 13.9206 11.9505 13.9925 11.832 14.1279C11.7135 14.2549 11.6247 14.4072 11.5654 14.585C11.5146 14.7542 11.4893 14.9277 11.4893 15.1055C11.4893 15.2747 11.5146 15.4482 11.5654 15.626C11.6247 15.7952 11.7135 15.9476 11.832 16.083C11.9505 16.21 12.0902 16.2734 12.251 16.2734H15.501C15.738 16.2734 15.9368 16.3581 16.0977 16.5273C16.2669 16.6882 16.3516 16.887 16.3516 17.124C16.3516 17.361 16.2669 17.5599 16.0977 17.7207C15.9368 17.89 15.738 17.9746 15.501 17.9746H12.3018C11.7093 17.9661 11.2184 17.8011 10.8291 17.4795C10.4482 17.1494 10.1732 16.7812 10.0039 16.375C9.8431 15.9603 9.7627 15.5329 9.7627 15.0928C9.7627 14.6696 9.84733 14.2549 10.0166 13.8486C10.1859 13.4339 10.4609 13.0658 10.8418 12.7441C11.2227 12.4141 11.7855 12.2363 12.5303 12.2109H17.8623C18.0993 12.2109 18.3024 12.2913 18.4717 12.4521C18.641 12.6045 18.7298 12.7992 18.7383 13.0361V17.3018C18.7383 17.5387 18.6494 17.7376 18.4717 17.8984C18.3024 18.0508 18.0993 18.127 17.8623 18.127C17.3545 18.0846 17.0752 17.8096 17.0244 17.3018ZM22.9531 17.9746C22.2083 17.9492 21.6455 17.7757 21.2646 17.4541C20.8838 17.124 20.6087 16.7559 20.4395 16.3496C20.2702 15.9349 20.1855 15.516 20.1855 15.0928C20.1855 14.6527 20.266 14.2295 20.4268 13.8232C20.596 13.4085 20.8711 13.0404 21.252 12.7188C21.6413 12.3887 22.1322 12.2194 22.7246 12.2109H27.5488C27.7858 12.2109 27.9847 12.2956 28.1455 12.4648C28.3148 12.6257 28.3994 12.8245 28.3994 13.0615C28.3994 13.2985 28.3148 13.5016 28.1455 13.6709C27.9847 13.8317 27.7858 13.9121 27.5488 13.9121H22.6738C22.513 13.9121 22.3734 13.9798 22.2549 14.1152C22.1364 14.2422 22.0475 14.3945 21.9883 14.5723C21.9375 14.7415 21.9121 14.9108 21.9121 15.0801C21.9121 15.2578 21.9375 15.4355 21.9883 15.6133C22.0475 15.7826 22.1364 15.9349 22.2549 16.0703C22.3734 16.1973 22.513 16.265 22.6738 16.2734H27.5488C27.7858 16.2734 27.9847 16.3581 28.1455 16.5273C28.3148 16.6882 28.3994 16.887 28.3994 17.124C28.3994 17.361 28.3148 17.5599 28.1455 17.7207C27.9847 17.89 27.7858 17.9746 27.5488 17.9746H22.9531ZM30.6084 10.2812C30.8369 10.2897 31.0316 10.3743 31.1924 10.5352C31.3532 10.6875 31.4378 10.8779 31.4463 11.1064V17.3271C31.3955 17.835 31.1162 18.11 30.6084 18.1523C30.3714 18.1523 30.1641 18.0762 29.9863 17.9238C29.8171 17.763 29.7324 17.5641 29.7324 17.3271V11.1064C29.7409 10.8695 29.8298 10.6748 29.999 10.5225C30.1683 10.3617 30.3714 10.2812 30.6084 10.2812ZM32.2207 13.8232C32.4661 13.4255 32.9359 13.1335 33.6299 12.9473L36.8926 12.0713C37.1211 12.0036 37.3369 12.0247 37.54 12.1348C37.7516 12.2363 37.8913 12.4014 37.959 12.6299C38.0352 12.8499 38.0182 13.0658 37.9082 13.2773C37.8066 13.4805 37.6416 13.6201 37.4131 13.6963L33.9346 14.5977C33.6891 14.6908 33.5706 14.8516 33.5791 15.0801C33.5706 15.3086 33.6891 15.4694 33.9346 15.5625L37.4131 16.4639C37.6416 16.54 37.8066 16.6839 37.9082 16.8955C38.0182 17.0986 38.0352 17.3102 37.959 17.5303C37.8913 17.7588 37.7516 17.9238 37.54 18.0254C37.3369 18.1354 37.1211 18.1566 36.8926 18.0889L33.6299 17.2129C32.9274 17.0182 32.4535 16.722 32.208 16.3242C31.971 15.9264 31.8525 15.5117 31.8525 15.0801C31.8525 14.6484 31.9753 14.2295 32.2207 13.8232ZM46.4268 17.3018V14.2422C46.4268 14.0306 46.3167 13.9206 46.0967 13.9121H41.6533C41.4925 13.9206 41.3529 13.9925 41.2344 14.1279C41.1159 14.2549 41.027 14.4072 40.9678 14.585C40.917 14.7542 40.8916 14.9277 40.8916 15.1055C40.8916 15.2747 40.917 15.4482 40.9678 15.626C41.027 15.7952 41.1159 15.9476 41.2344 16.083C41.3529 16.21 41.4925 16.2734 41.6533 16.2734H44.9033C45.1403 16.2734 45.3392 16.3581 45.5 16.5273C45.6693 16.6882 45.7539 16.887 45.7539 17.124C45.7539 17.361 45.6693 17.5599 45.5 17.7207C45.3392 17.89 45.1403 17.9746 44.9033 17.9746H41.7041C41.1117 17.9661 40.6208 17.8011 40.2314 17.4795C39.8506 17.1494 39.5755 16.7812 39.4062 16.375C39.2454 15.9603 39.165 15.5329 39.165 15.0928C39.165 14.6696 39.2497 14.2549 39.4189 13.8486C39.5882 13.4339 39.8633 13.0658 40.2441 12.7441C40.625 12.4141 41.1878 12.2363 41.9326 12.2109H47.2646C47.5016 12.2109 47.7048 12.2913 47.874 12.4521C48.0433 12.6045 48.1322 12.7992 48.1406 13.0361V17.3018C48.1406 17.5387 48.0518 17.7376 47.874 17.8984C47.7048 18.0508 47.5016 18.127 47.2646 18.127C46.7568 18.0846 46.4775 17.8096 46.4268 17.3018ZM52.5332 10.2812C52.7702 10.2812 52.9733 10.3617 53.1426 10.5225C53.3118 10.6748 53.4007 10.8695 53.4092 11.1064V12.2109H57.7256C57.9626 12.2109 58.1657 12.2913 58.335 12.4521C58.4958 12.6214 58.5762 12.8245 58.5762 13.0615C58.5762 13.2985 58.4915 13.5016 58.3223 13.6709C58.1615 13.8317 57.9626 13.9121 57.7256 13.9121H53.4092V14.166C53.4007 14.513 53.4219 14.8346 53.4727 15.1309C53.5319 15.4186 53.6673 15.6768 53.8789 15.9053C54.0905 16.1338 54.3571 16.2565 54.6787 16.2734H57.7764C58.0133 16.2819 58.208 16.3708 58.3604 16.54C58.5212 16.7093 58.6016 16.9124 58.6016 17.1494C58.5931 17.3779 58.5085 17.5726 58.3477 17.7334C58.1953 17.8857 58.0049 17.9661 57.7764 17.9746H54.2471C53.6546 17.9408 53.1637 17.7419 52.7744 17.3779C52.3936 17.0055 52.1185 16.5527 51.9492 16.0195C51.7884 15.4863 51.7038 14.9193 51.6953 14.3184V13.9121H50.2354C49.9984 13.9121 49.7995 13.8275 49.6387 13.6582C49.4694 13.4974 49.3848 13.2985 49.3848 13.0615C49.3848 12.8245 49.4652 12.6257 49.626 12.4648C49.7952 12.2956 49.9984 12.2109 50.2354 12.2109H51.6953V11.1064C51.7038 10.8779 51.7884 10.6875 51.9492 10.5352C52.11 10.3743 52.3047 10.2897 52.5332 10.2812ZM60.6963 10.2812C60.9248 10.2897 61.1195 10.3743 61.2803 10.5352C61.4411 10.6875 61.5257 10.8779 61.5342 11.1064V12.2109H65.4697C66.0622 12.2194 66.5488 12.3887 66.9297 12.7188C67.319 13.0404 67.5941 13.4043 67.7549 13.8105C67.9242 14.2253 68.0088 14.6527 68.0088 15.0928H68.0215V17.3018C68.0215 17.5387 67.9326 17.7376 67.7549 17.8984C67.5856 18.0508 67.3825 18.127 67.1455 18.127C66.6377 18.0846 66.3584 17.8096 66.3076 17.3018V15.0801C66.3076 14.9193 66.2738 14.75 66.2061 14.5723C66.1468 14.3945 66.0579 14.2422 65.9395 14.1152C65.821 13.9798 65.6813 13.9121 65.5205 13.9121H61.5342V17.3271C61.4834 17.835 61.2041 18.11 60.6963 18.1523C60.4593 18.1523 60.252 18.0762 60.0742 17.9238C59.9049 17.763 59.8203 17.5641 59.8203 17.3271V11.1064C59.8288 10.8695 59.9176 10.6748 60.0869 10.5225C60.2562 10.3617 60.4593 10.2812 60.6963 10.2812ZM72.2236 17.9746C71.4788 17.9492 70.916 17.7757 70.5352 17.4541C70.1543 17.124 69.8792 16.7559 69.71 16.3496C69.5407 15.9349 69.4561 15.516 69.4561 15.0928C69.4561 14.6527 69.5365 14.2295 69.6973 13.8232C69.8665 13.4085 70.1416 13.0404 70.5225 12.7188C70.9118 12.3887 71.4027 12.2194 71.9951 12.2109H76.8193C77.0563 12.2109 77.2552 12.2913 77.416 12.4521C77.5853 12.6045 77.6699 12.7907 77.6699 13.0107C77.6699 13.2393 77.5853 13.4339 77.416 13.5947C77.2552 13.7471 77.0563 13.8232 76.8193 13.8232H72.0713C71.8851 13.8232 71.7201 13.8867 71.5762 14.0137C71.4408 14.1406 71.3392 14.3057 71.2715 14.5088C71.2122 14.7119 71.1826 14.9108 71.1826 15.1055C71.1826 15.3171 71.2122 15.5244 71.2715 15.7275C71.3392 15.9307 71.4408 16.0957 71.5762 16.2227C71.7201 16.3411 71.8851 16.4046 72.0713 16.4131H76.8193C77.0563 16.4131 77.2552 16.4893 77.416 16.6416C77.5853 16.7939 77.6699 16.9759 77.6699 17.1875C77.6699 17.4076 77.5853 17.5938 77.416 17.7461C77.2552 17.8984 77.0563 17.9746 76.8193 17.9746H72.2236ZM77.5176 15.0674C77.5176 15.2282 77.4456 15.3678 77.3018 15.4863C77.1748 15.5964 77.014 15.6514 76.8193 15.6514H72.668C72.4733 15.6514 72.3083 15.5964 72.1729 15.4863C72.0374 15.3678 71.9697 15.2282 71.9697 15.0674C71.9697 14.915 72.0374 14.7796 72.1729 14.6611C72.3083 14.5511 72.4733 14.4961 72.668 14.4961H76.8193C77.014 14.4961 77.179 14.5553 77.3145 14.6738C77.4499 14.7839 77.5176 14.915 77.5176 15.0674ZM83.1797 12.0205C83.6198 12.0205 84.0514 12.0713 84.4746 12.1729C84.9062 12.2744 85.3167 12.4268 85.7061 12.6299C86.0954 12.8245 86.4382 13.0869 86.7344 13.417C87.0391 13.7471 87.2041 14.1406 87.2295 14.5977V15.1309V17.3018C87.1787 17.8096 86.8994 18.0846 86.3916 18.127C86.1546 18.127 85.9473 18.0508 85.7695 17.8984C85.6003 17.7376 85.5156 17.5387 85.5156 17.3018V16.7432V14.9912C85.4987 14.7288 85.3971 14.513 85.2109 14.3438C85.0332 14.166 84.8301 14.0264 84.6016 13.9248C84.3815 13.8232 84.1488 13.7471 83.9033 13.6963C83.6663 13.6455 83.4251 13.6201 83.1797 13.6201C82.9342 13.6201 82.6888 13.6455 82.4434 13.6963C82.2064 13.7471 81.9736 13.8232 81.7451 13.9248C81.5251 14.0264 81.3219 14.166 81.1357 14.3438C80.958 14.513 80.8607 14.7288 80.8438 14.9912V16.7432V17.3018C80.8014 17.8096 80.5264 18.0846 80.0186 18.127C79.7816 18.127 79.5742 18.0508 79.3965 17.8984C79.2272 17.7376 79.1426 17.5387 79.1426 17.3018V15.1309V14.5977C79.168 14.1406 79.3288 13.7471 79.625 13.417C79.9212 13.0869 80.264 12.8245 80.6533 12.6299C81.0426 12.4268 81.4489 12.2744 81.8721 12.1729C82.3037 12.0713 82.7396 12.0205 83.1797 12.0205ZM95.9385 17.3018V14.2422C95.9385 14.0306 95.8285 13.9206 95.6084 13.9121H91.165C91.0042 13.9206 90.8646 13.9925 90.7461 14.1279C90.6276 14.2549 90.5387 14.4072 90.4795 14.585C90.4287 14.7542 90.4033 14.9277 90.4033 15.1055C90.4033 15.2747 90.4287 15.4482 90.4795 15.626C90.5387 15.7952 90.6276 15.9476 90.7461 16.083C90.8646 16.21 91.0042 16.2734 91.165 16.2734H94.415C94.652 16.2734 94.8509 16.3581 95.0117 16.5273C95.181 16.6882 95.2656 16.887 95.2656 17.124C95.2656 17.361 95.181 17.5599 95.0117 17.7207C94.8509 17.89 94.652 17.9746 94.415 17.9746H91.2158C90.6234 17.9661 90.1325 17.8011 89.7432 17.4795C89.3623 17.1494 89.0872 16.7812 88.918 16.375C88.7572 15.9603 88.6768 15.5329 88.6768 15.0928C88.6768 14.6696 88.7614 14.2549 88.9307 13.8486C89.0999 13.4339 89.375 13.0658 89.7559 12.7441C90.1367 12.4141 90.6995 12.2363 91.4443 12.2109H96.7764C97.0133 12.2109 97.2165 12.2913 97.3857 12.4521C97.555 12.6045 97.6439 12.7992 97.6523 13.0361V17.3018C97.6523 17.5387 97.5635 17.7376 97.3857 17.8984C97.2165 18.0508 97.0133 18.127 96.7764 18.127C96.2686 18.0846 95.9893 17.8096 95.9385 17.3018ZM106.844 12.2617C106.768 12.304 106.691 12.3252 106.615 12.3252C106.573 12.3252 106.531 12.3167 106.488 12.2998C106.37 12.266 106.281 12.1898 106.222 12.0713C106.162 11.9528 106.15 11.8343 106.184 11.7158C106.217 11.5889 106.289 11.4873 106.399 11.4111C106.933 11.0218 107.22 10.5267 107.263 9.92578C107.263 9.89193 107.25 9.86654 107.225 9.84961C107.199 9.82422 107.17 9.81152 107.136 9.81152C106.848 9.81152 106.603 9.72266 106.399 9.54492C106.196 9.35872 106.095 9.11328 106.095 8.80859C106.095 8.47852 106.192 8.21615 106.387 8.02148C106.581 7.81836 106.831 7.7168 107.136 7.7168C107.542 7.7168 107.851 7.87337 108.062 8.18652C108.283 8.49121 108.393 8.92285 108.393 9.48145C108.393 10.6748 107.876 11.6016 106.844 12.2617ZM116.594 11.335C116.594 11.098 116.674 10.8991 116.835 10.7383C117.004 10.569 117.207 10.4844 117.444 10.4844H122.345C122.396 10.4844 122.446 10.4886 122.497 10.4971H122.573C123.166 10.514 123.652 10.6494 124.033 10.9033C124.414 11.1572 124.689 11.4492 124.858 11.7793C125.028 12.1009 125.112 12.4268 125.112 12.7568C125.112 13.0954 125.028 13.4297 124.858 13.7598C124.698 14.0814 124.423 14.3691 124.033 14.623C123.652 14.877 123.166 15.0124 122.573 15.0293H118.968C118.807 15.0378 118.672 15.0758 118.562 15.1436C118.46 15.2113 118.384 15.3001 118.333 15.4102C118.282 15.5117 118.257 15.5921 118.257 15.6514V15.918C118.257 16.028 118.282 16.1126 118.333 16.1719C118.392 16.2311 118.502 16.2565 118.663 16.248H124.198C124.435 16.248 124.634 16.3327 124.795 16.502C124.964 16.6628 125.049 16.8617 125.049 17.0986C125.049 17.3356 124.964 17.5387 124.795 17.708C124.634 17.8688 124.435 17.9492 124.198 17.9492H117.978C117.504 17.9492 117.14 17.835 116.886 17.6064C116.64 17.3695 116.513 17.0352 116.505 16.6035V15.6514C116.505 15.3044 116.585 14.9658 116.746 14.6357C116.915 14.2972 117.19 14.001 117.571 13.7471C117.961 13.4847 118.451 13.3451 119.044 13.3281H122.649C122.81 13.3197 122.941 13.2858 123.043 13.2266C123.153 13.1589 123.233 13.0869 123.284 13.0107C123.335 12.9261 123.36 12.8415 123.36 12.7568C123.36 12.6722 123.335 12.5918 123.284 12.5156C123.233 12.431 123.153 12.359 123.043 12.2998C122.941 12.2321 122.81 12.194 122.649 12.1855H117.444C117.207 12.1855 117.008 12.1009 116.848 11.9316C116.678 11.7708 116.594 11.5719 116.594 11.335ZM126.75 17.0986C126.75 16.8617 126.835 16.6628 127.004 16.502C127.165 16.3327 127.364 16.248 127.601 16.248H132.806C132.966 16.2396 133.098 16.2015 133.199 16.1338C133.309 16.0661 133.39 15.9899 133.44 15.9053C133.491 15.8206 133.517 15.7318 133.517 15.6387C133.517 15.5456 133.491 15.4567 133.44 15.3721C133.39 15.2874 133.309 15.2113 133.199 15.1436C133.098 15.0758 132.966 15.0378 132.806 15.0293H129.2C128.608 15.0124 128.117 14.877 127.728 14.623C127.347 14.3607 127.072 14.0645 126.902 13.7344C126.742 13.3958 126.661 13.0531 126.661 12.7061V11.8301C126.67 11.3984 126.797 11.0684 127.042 10.8398C127.296 10.6029 127.66 10.4844 128.134 10.4844H134.354C134.591 10.4844 134.79 10.569 134.951 10.7383C135.12 10.8991 135.205 11.098 135.205 11.335C135.205 11.5719 135.12 11.7708 134.951 11.9316C134.79 12.1009 134.591 12.1855 134.354 12.1855H128.819C128.659 12.1771 128.549 12.2025 128.489 12.2617C128.438 12.321 128.413 12.4056 128.413 12.5156V12.7061C128.413 12.7653 128.438 12.8499 128.489 12.96C128.54 13.0615 128.616 13.1462 128.718 13.2139C128.828 13.2816 128.963 13.3197 129.124 13.3281H132.729C133.322 13.3366 133.809 13.472 134.189 13.7344C134.579 13.9883 134.854 14.2845 135.015 14.623C135.184 14.9531 135.269 15.2917 135.269 15.6387C135.269 15.9688 135.184 16.3031 135.015 16.6416C134.845 16.9717 134.57 17.2679 134.189 17.5303C133.809 17.7842 133.322 17.9196 132.729 17.9365H132.653C132.603 17.945 132.552 17.9492 132.501 17.9492H127.601C127.364 17.9492 127.16 17.8688 126.991 17.708C126.83 17.5387 126.75 17.3356 126.75 17.0986Z" fill="white"/>
<path d="M239.54 21.247L249.498 4L259.456 21.247H239.54Z" stroke="white" stroke-width="4"/>
<circle cx="278.028" cy="12.6802" r="10.6802" stroke="#FF6E6D" stroke-width="4"/>
<rect x="297.64" y="2" width="21.3603" height="21.3603" stroke="white" stroke-width="4"/>
</svg>
