<svg width="107" height="251" viewBox="0 0 107 251" fill="none" xmlns="http://www.w3.org/2000/svg">
<path d="M47.2342 139.793L53.018 125.333H61.6937L70.3694 132.081L73.2612 139.793L75.1892 149.432L76.1531 153.288L78.0811 163.892L80.009 175.459L83.8648 187.027L85.7928 193.775H73.2612V191.847V187.027L70.3694 181.243L67.4775 170.64L63.6216 163.892L54.9459 166.784L47.2342 173.532L44.3423 182.207L41.4504 191.847L40.4865 204.378L41.4504 216.91V223.658L46.2703 231.369L54.9459 237.153H70.3694V242V245V246.793L65.9998 251L59.7657 249.685L44.3423 246.793L35.6666 239.081L31.8108 229.441V218.838V212.09L33.7387 200.523L35.6666 191.847L38.5585 177.387L41.4504 163.892L44.3423 150.396L47.2342 139.793Z" fill="#B0B0B0"/>
<path d="M1.92793 99.3063L9.63964 89.6667H11.5676V104.126H13.4955L12.5315 108.946L13.4955 115.694L16.3874 123.405L19.2793 129.189L27.955 133.045C27.955 133.045 29.8829 135.937 34.7027 135.937C39.5225 135.937 39.5225 135.937 42.4144 134.009C45.3063 132.081 48.1982 129.189 48.1982 129.189L51.0901 126.297L57.8378 125.333L63.6216 126.297L69.4054 129.189L72.2973 134.009L79.045 132.081L85.7928 128.225L91.5766 125.333L95.4324 121.477L98.3243 115.694L99.2883 111.838L97.3604 107.018L93.5045 104.126V88.7027H95.4324L97.3604 90.6306L102.18 95.4504L105.072 101.234L107 107.018V120.514L104.108 134.009L89.6487 143.649L79.045 148.468L62.6577 150.396H49.1622L39.5225 148.468L27.955 145.577L18.3153 141.721L9.63964 135.937L4.81982 131.117L1.92793 124.369L0.963964 117.622L0 110.874L0.963964 107.018L1.92793 99.3063Z" fill="#B0B0B0"/>
<path d="M11.5677 -15.4054V-52.036L91.5767 -53V-17.3333L92.5406 83.8829V103.162H11.5677V101.234V77.1351V39.5405V-15.4054Z" fill="#BA0403" fill-opacity="0.77"/>
</svg>
