<svg xmlns="http://www.w3.org/2000/svg" width="24" height="25" viewBox="0 0 24 25" fill="none">
  <path d="M12 22.5C6.47715 22.5 2 18.0228 2 12.5C2 6.97715 6.47715 2.5 12 2.5C17.5228 2.5 22 6.97715 22 12.5C22 18.0228 17.5228 22.5 12 22.5ZM12 20.5C16.4183 20.5 20 16.9183 20 12.5C20 8.08172 16.4183 4.5 12 4.5C7.58172 4.5 4 8.08172 4 12.5C4 16.9183 7.58172 20.5 12 20.5ZM12 8.5C12.5523 8.5 13 8.94772 13 9.5C13 10.0523 12.5523 10.5 12 10.5C11.4477 10.5 11 10.0523 11 9.5C11 8.94772 11.4477 8.5 12 8.5ZM12 12.5C13.6569 12.5 15 11.1569 15 9.5C15 7.84315 13.6569 6.5 12 6.5C10.3431 6.5 9 7.84315 9 9.5C9 11.1569 10.3431 12.5 12 12.5ZM12 15.5C10.8954 15.5 10 16.3954 10 17.5H8C8 15.2909 9.79086 13.5 12 13.5C14.2091 13.5 16 15.2909 16 17.5H14C14 16.3954 13.1046 15.5 12 15.5Z" fill="#500000"/>
</svg>