<svg width="115" height="119" viewBox="0 0 115 119" fill="none" xmlns="http://www.w3.org/2000/svg">
<g clip-path="url(#clip0_67_25)">
<path d="M36.9601 53.6473C36.9002 52.568 37.0643 51.5043 37.2413 50.4432C37.4653 49.1032 37.7986 47.7919 38.1346 46.4754C38.3273 45.7193 38.4601 44.9503 38.6502 44.1942C39.0434 42.6091 39.5903 41.0762 40.3507 39.6241C41.0069 38.3727 41.8324 37.2413 42.8324 36.2454C43.5225 35.5572 44.2724 34.9393 45.0849 34.397C45.2516 34.2849 45.4156 34.165 45.6083 34.0294C45.5068 33.9512 45.4417 33.8939 45.3662 33.8496C43.387 32.6425 41.9027 30.9923 40.9574 28.8702C40.4236 27.6761 40.1189 26.4143 39.921 25.1213C39.6892 23.6118 39.7048 22.0971 39.7439 20.5824C39.7621 19.9046 39.8429 19.2294 39.8975 18.5542C39.9027 18.4864 39.9288 18.4238 39.96 18.2935C40.0095 18.429 40.046 18.5099 40.0668 18.5933C40.7491 21.4037 41.8272 24.0602 43.1943 26.6021C44.3011 28.659 45.5901 30.5986 47.0067 32.4548C48.0979 33.8861 49.2567 35.2626 50.4598 36.6C50.5171 36.6651 50.5848 36.7225 50.6811 36.8137C50.9832 36.2793 51.2697 35.7709 51.5691 35.2365C51.3973 35.0045 51.2228 34.7698 51.0509 34.5352C50.8061 34.1989 50.5614 33.86 50.3166 33.5211C50.327 33.5107 50.3374 33.5028 50.3452 33.4924C50.6655 33.6306 50.9858 33.7687 51.3087 33.9069C52.6446 34.4831 54.0196 34.9184 55.4675 35.0801C55.9935 35.14 56.5248 35.1974 57.0534 35.1974C58.7695 35.1974 60.4205 34.8507 62.0038 34.1859C62.3684 34.0321 62.7225 33.8574 63.0819 33.6905C63.1626 33.654 63.2434 33.6201 63.3736 33.5628C63.3267 33.7792 63.2928 33.9538 63.2486 34.1259C63.1574 34.4883 63.0663 34.8481 62.9673 35.2104C62.9179 35.3929 62.9491 35.5311 63.0975 35.6641C63.4595 35.9847 63.8085 36.321 64.1834 36.6704C64.285 36.5609 64.3735 36.4774 64.4491 36.381C65.1027 35.5285 65.7615 34.6786 66.3995 33.8157C67.4881 32.3401 68.5193 30.8254 69.462 29.2508C70.7797 27.0505 71.9333 24.7719 72.7353 22.3291C73.1676 21.0152 73.4983 19.6804 73.6207 18.2987C73.6259 18.2466 73.6468 18.197 73.7197 18.1423C73.7926 18.5542 73.8681 18.9661 73.9358 19.378C74.1676 20.7884 74.2796 22.2092 74.2145 23.6379C74.0843 26.4978 73.2119 29.0918 71.4385 31.3625C70.4698 32.6008 69.3396 33.6697 68.087 34.616C68.0245 34.663 67.962 34.7125 67.9021 34.7672C67.8787 34.7881 67.8604 34.8194 67.8188 34.8793C67.9594 34.9888 68.0974 35.1009 68.2406 35.2052C70.2328 36.673 71.988 38.378 73.3499 40.4557C74.3629 42.0017 75.079 43.6832 75.4462 45.5029C75.6572 46.5484 75.7848 47.6042 75.7587 48.6679C75.7301 49.7524 75.6233 50.8291 75.4019 51.898C75.1676 53.032 74.8499 54.1374 74.4514 55.2193C74.3238 55.5634 74.0817 55.7042 73.6832 55.686C73.376 55.6729 73.1754 55.4774 73.0687 55.1489C72.9541 54.797 73.0478 54.4528 73.0817 54.1087C73.1442 53.4804 73.2249 52.8521 73.2692 52.2212C73.3239 51.4313 73.3707 50.6414 73.3759 49.8488C73.3812 49.1945 73.3343 48.5375 73.29 47.8831C73.2536 47.3644 73.1937 46.8482 73.1312 46.332C73.0114 45.3074 72.79 44.3037 72.5088 43.3157C72.2015 42.239 71.8239 41.1831 71.3578 40.1638C71.3109 40.0621 71.2536 39.9656 71.1911 39.8457C70.5609 40.0908 69.9463 40.3332 69.3161 40.5783C69.3292 40.706 69.3318 40.8077 69.35 40.9042C69.6937 42.5961 70.0427 44.2907 70.389 45.9826C70.5948 46.9889 70.777 48.0031 71.001 49.0042C71.1416 49.6351 70.5635 50.193 70.0427 50.1721C69.4437 50.1486 68.8448 50.1747 68.2432 50.1799C65.686 50.2008 63.1288 50.219 60.5742 50.2399C59.7252 50.2477 58.8763 50.2451 58.0299 50.2894C57.5091 50.3181 57.0456 49.8749 57.1003 49.3327C57.1966 48.3785 57.2409 47.4165 57.3034 46.4571C57.3294 46.0843 57.3477 45.7115 57.3737 45.3413C57.4388 44.348 57.5091 43.3574 57.5742 42.3641C57.6237 41.6315 57.6654 40.8963 57.7148 40.1638C57.7435 39.7414 57.9779 39.4833 58.3711 39.3504C59.3971 39.001 60.4257 38.6491 61.4517 38.2997C61.5585 38.2632 61.6627 38.2215 61.8137 38.1668C61.5767 37.6506 61.3476 37.1553 61.1028 36.626C60.194 36.892 59.2955 37.1344 58.3555 37.1944C57.4154 37.2543 56.4831 37.2022 55.5586 37.0249C54.6342 36.845 53.7488 36.54 52.8452 36.149C52.5223 36.5739 52.1993 37.0014 51.8556 37.4577C52.1681 37.6323 52.4519 37.7914 52.7358 37.9478C53.3816 38.2997 54.0222 38.6595 54.6732 39.001C54.8972 39.1184 54.9935 39.2487 54.9909 39.5224C54.9597 42.849 54.9441 46.1782 54.9311 49.5047C54.9311 49.8906 54.8295 50.2008 54.4623 50.3676C54.3425 50.4224 54.2019 50.4458 54.0691 50.4485C53.3243 50.4589 52.5769 50.4537 51.8322 50.4589C51.3686 50.4641 50.9051 50.4876 50.4416 50.4902C50.103 50.4902 49.7645 50.4667 49.426 50.4693C48.9963 50.4693 48.5666 50.4954 48.1369 50.498C47.0406 50.5032 45.9417 50.498 44.8453 50.5006C44.348 50.5006 43.848 50.485 43.3532 50.5136C42.7855 50.5475 42.2725 50.0131 42.486 49.3509C43.1579 47.2627 43.7959 45.164 44.4469 43.068C44.8245 41.8479 45.2021 40.6252 45.5797 39.4051C45.6083 39.3113 45.6214 39.2148 45.6552 39.0688C45.1448 39.0219 44.6683 38.9802 44.1787 38.9333C44.025 39.2956 43.8766 39.6215 43.749 39.9578C43.3167 41.0997 42.8766 42.2416 42.4652 43.3913C41.8636 45.0728 41.3246 46.7778 40.8871 48.5114C40.572 49.7602 40.2647 51.0116 40.0043 52.2734C39.7621 53.4439 39.585 54.6301 39.3819 55.8111C39.3559 55.9545 39.3403 56.1005 39.3194 56.2465C39.283 56.5046 39.2179 56.5541 38.9653 56.5358C37.9288 56.4655 37.4419 55.9545 37.171 55.0551C37.0356 54.6067 36.9809 54.1244 36.9549 53.6525L36.9601 53.6473ZM8.22898 48.4854C8.37221 48.2038 8.53887 47.9327 8.69251 47.6563C8.75241 47.5495 8.82532 47.4686 8.96074 47.5025C9.41906 47.6172 9.87478 47.7346 10.3591 47.8597C10.3019 47.9979 10.268 48.0917 10.2237 48.1803C9.34093 50.0548 8.45554 51.9266 7.57014 53.8011C7.34358 54.2834 7.11963 54.7657 6.89828 55.248C6.7837 55.4983 6.79412 55.6025 7.00505 55.785C7.11963 55.8841 7.26806 55.9727 7.4139 55.9936C7.90607 56.064 8.40085 56.1005 8.89563 56.15C9.41125 56.1995 9.92946 56.2465 10.4477 56.2986C11.268 56.382 12.0857 56.4681 12.906 56.5515C13.4554 56.6088 14.0049 56.6688 14.557 56.7236C14.984 56.7653 15.4111 56.8122 15.8408 56.833C16.221 56.8513 16.4085 56.6871 16.4554 56.3116C16.5153 55.8293 16.5517 55.3444 16.596 54.8621C16.6793 53.9966 16.7626 53.1311 16.846 52.2655C16.9033 51.6816 16.9606 51.095 17.0126 50.511C17.0725 49.8593 17.122 49.2049 17.1923 48.5532C17.221 48.2951 17.1481 48.136 16.9163 48.0005C16.497 47.7554 16.096 47.4791 15.6924 47.2079C15.6168 47.1558 15.5127 47.0593 15.5179 46.9889C15.5387 46.6657 15.5934 46.345 15.6429 45.9748C17.8043 46.9551 20.0386 47.002 22.325 46.6787C22.3797 47.088 22.4292 47.4504 22.4787 47.8336C22.3745 47.844 22.3068 47.8545 22.2417 47.8571C21.3485 47.8988 20.4579 47.9379 19.5647 47.9796C19.2652 47.9926 19.0699 48.1595 19.036 48.4463C18.9579 49.1189 18.8902 49.7941 18.8147 50.4667C18.7392 51.1628 18.6636 51.8589 18.5855 52.5549C18.5022 53.2849 18.4136 54.0122 18.3303 54.7422C18.2756 55.2141 18.247 55.6886 18.1584 56.1552C18.0439 56.76 18.3459 57.0885 18.8902 57.0312C18.9345 57.026 18.9813 57.0312 19.0256 57.0312C22.2964 57.0312 25.5671 57.0312 28.8379 57.0312C28.916 57.0312 28.9967 57.0312 29.0749 57.0208C29.5384 56.9504 29.7337 56.6688 29.6478 56.21C29.4967 55.3992 29.3509 54.5884 29.1999 53.7802C28.9603 52.4715 28.7181 51.1602 28.4785 49.8514C28.4108 49.4786 28.3561 49.1006 28.291 48.707C28.5332 48.6705 28.7311 48.6288 28.9316 48.6105C29.3301 48.574 29.3301 48.5792 29.4733 48.9416C29.515 49.0459 29.554 49.1528 29.5905 49.2597C30.1764 50.9673 30.3951 52.7348 30.4186 54.5284C30.429 55.2636 30.3899 55.9988 30.3561 56.734C30.317 57.5474 30.2129 58.3529 30.0332 59.1481C29.9551 59.4896 29.8665 59.8285 29.7988 60.1726C29.7389 60.4751 29.8691 60.7253 30.1113 60.814C30.429 60.9313 30.7545 60.8192 30.9186 60.5116C31.1113 60.1544 31.2988 59.792 31.4654 59.4192C32.0566 58.0948 32.3847 56.6975 32.5071 55.261C32.5826 54.3955 32.5826 53.5247 32.4836 52.654C32.3639 51.6034 32.1503 50.5788 31.7805 49.5881C31.0384 47.5964 29.817 45.9592 28.1192 44.6791C27.8535 44.4784 27.5801 44.2881 27.3093 44.0925C27.3301 44.0613 27.3353 44.0482 27.3431 44.043C27.4421 43.9883 27.541 43.9335 27.64 43.8814C28.8874 43.24 29.9394 42.3667 30.7884 41.2483C31.5982 40.1794 32.1555 38.9854 32.5201 37.7001C32.8248 36.6182 32.9784 35.5076 32.9784 34.3866C32.9784 33.6306 32.9394 32.8719 32.7909 32.1263C32.7154 31.7431 32.6138 31.3651 32.5227 30.9818C32.5045 30.9818 32.4888 30.9871 32.4706 30.9897C32.4055 31.3651 32.3534 31.7431 32.2779 32.1159C31.8587 34.1337 31.0019 35.9821 30.0045 37.7627C29.1504 39.293 28.2233 40.7842 27.3483 42.3041C26.6843 43.4564 25.976 44.567 24.9317 45.4195C24.9135 45.4326 24.9005 45.4534 24.8823 45.4664C24.825 45.5108 24.7651 45.5525 24.6895 45.6098C24.5125 45.2031 24.3484 44.8225 24.1791 44.4315C24.088 44.4549 24.0229 44.468 23.9604 44.4862C23.1948 44.726 22.4214 44.932 21.6193 45.0128C20.5803 45.1171 19.5438 45.1119 18.51 44.945C17.109 44.7208 15.7653 44.2907 14.4476 43.7667C14.1065 43.6311 13.7653 43.4929 13.4216 43.3574C13.4086 43.3756 13.3929 43.3939 13.3799 43.4121C13.8721 44.0326 14.3669 44.6504 14.8773 45.2944C14.6559 45.5082 14.4658 45.6933 14.2653 45.8914C14.0882 45.7298 13.9346 45.5968 13.7888 45.456C12.5726 44.2881 11.5727 42.9481 10.6951 41.5142C9.58572 39.7023 8.69251 37.7862 8.00763 35.7735C7.57275 34.4961 7.2264 33.2004 7.04151 31.863C6.99463 31.5241 6.94776 31.1852 6.89828 30.8463C6.76287 30.9792 6.68735 31.1278 6.62225 31.279C6.03632 32.6556 5.86706 34.0842 6.0832 35.565C6.3384 37.3065 7.01286 38.8941 7.88524 40.4036C8.55449 41.5637 9.33833 42.6404 10.2237 43.6467C10.4008 43.8475 10.5649 44.056 10.755 44.2829C10.656 44.3141 10.5935 44.3376 10.531 44.3532C9.42687 44.6192 8.47637 45.1849 7.62743 45.9122C6.53371 46.8508 5.66914 47.9796 4.98426 49.2466C4.32022 50.4745 3.80981 51.7702 3.3567 53.0868C2.94525 54.2808 2.74733 55.5191 2.73171 56.7809C2.72911 57.0859 2.76296 57.3909 2.77858 57.696C2.80983 58.2982 2.94004 58.8822 3.15357 59.4453C3.30201 59.8285 3.50773 60.1805 3.81762 60.4568C4.03116 60.6471 4.26813 60.7957 4.59104 60.754C4.61969 60.6914 4.65354 60.6315 4.66917 60.5689C4.78375 60.1544 4.90354 59.7425 5.0077 59.3254C5.46863 57.4587 5.90872 55.5895 6.38788 53.7281C6.85141 51.9292 7.38004 50.1513 8.22117 48.4854H8.22898ZM70.225 54.9899C69.8838 54.8282 69.5245 54.8309 69.1625 54.8647C68.9594 54.883 68.7589 54.9143 68.5557 54.9117C68.2615 54.9117 67.9698 54.8778 67.6756 54.8674C67.0558 54.8465 66.4334 54.8387 65.8136 54.8152C64.5272 54.7657 63.2382 54.7057 61.9517 54.6536C61.1497 54.6223 60.3476 54.604 59.5455 54.5754C59.2304 54.5649 58.9153 54.5337 58.5976 54.5284C58.2253 54.5206 57.8529 54.5284 57.457 54.5284C56.681 55.9023 56.6211 57.3675 56.9831 58.9056C56.2591 58.8535 55.5795 58.804 54.8712 58.7518C54.9024 58.6058 54.9206 58.5302 54.9389 58.452C54.9571 58.3738 54.9753 58.2982 54.9909 58.22C55.2227 57.0703 55.03 56.0223 54.293 55.0837C54.142 54.8908 53.9806 54.8283 53.7462 54.8335C52.2202 54.8647 50.6916 54.8856 49.1656 54.9091C47.288 54.9377 45.4104 54.9664 43.5329 54.9977C43.0355 55.0055 42.5381 55.0212 42.0407 55.0446C41.9444 55.0498 41.8246 55.0707 41.7621 55.1307C41.5642 55.321 41.4261 55.5426 41.4079 55.8398C41.3741 56.4029 41.559 56.8852 41.8871 57.3232C41.9808 57.4457 42.0407 57.5656 42.0173 57.7273C41.8064 59.1481 41.7048 60.5819 41.6475 62.0132C41.5772 63.7781 41.5902 65.5457 41.7829 67.3028C41.8116 67.5531 41.8089 67.819 41.986 68.0432C42.2464 68.3691 42.5798 68.4265 42.96 68.3639C44.0771 68.1736 45.2021 68.1006 46.3349 68.0954C47.7281 68.0902 49.1109 68.184 50.4728 68.4995C51.0275 68.6272 51.5171 68.4108 51.6082 67.7226C51.7853 66.4008 51.9806 65.0843 52.1707 63.7651C52.2045 63.5227 52.254 63.2802 52.2957 63.0351C52.9025 63.0534 53.478 63.0873 54.0509 63.0847C54.6368 63.0795 55.2279 63.0586 55.8112 63.0065C56.3841 62.9569 56.9518 62.8605 57.5221 62.7797C58.095 62.6988 58.6549 62.5346 59.2304 62.4642C59.2513 62.5372 59.2695 62.5685 59.2721 62.5998C59.345 63.4914 59.4153 64.3804 59.4856 65.272C59.5507 66.0827 59.608 66.8961 59.6809 67.7069C59.7356 68.3117 60.1471 68.6037 60.7356 68.4786C61.5663 68.3039 62.4048 68.1736 63.2538 68.1814C64.272 68.1918 65.2876 68.2127 66.3058 68.2414C66.7902 68.2544 67.2745 68.3065 67.7615 68.3196C68.186 68.33 68.5375 68.0432 68.5896 67.6652C68.6156 67.4853 68.6339 67.3054 68.6469 67.1256C68.7406 65.8168 68.8318 64.5107 68.9229 63.202C68.988 62.2661 69.0583 61.3302 69.1234 60.3942C69.1911 59.4479 69.2719 58.5015 69.3187 57.5526C69.3318 57.3075 69.4073 57.1954 69.6339 57.1146C70.0349 56.9712 70.3786 56.7262 70.6156 56.3638C70.9802 55.8085 70.8161 55.274 70.2224 54.9925L70.225 54.9899ZM29.015 61.2754C28.7181 61.0851 28.3874 61.033 28.041 61.0616C27.8952 61.0747 27.7468 61.0955 27.6035 61.0825C26.9056 61.0251 26.2103 60.9574 25.5124 60.8974C24.5125 60.8088 23.5125 60.7201 22.5099 60.6341C21.8693 60.5793 21.2261 60.5324 20.5855 60.4777C19.8667 60.4151 19.1454 60.3525 18.4267 60.2847C18.2418 60.2665 18.1376 60.3369 18.0517 60.4985C17.846 60.8896 17.76 61.3093 17.7366 61.7395C17.6975 62.4303 17.7626 63.1186 17.8902 63.799C17.9111 63.9059 17.9215 64.018 17.9423 64.1666C17.0205 64.1953 16.1324 64.2239 15.208 64.2552C15.2471 64.1145 15.2731 64.018 15.3017 63.9241C15.4918 63.3167 15.622 62.6962 15.6064 62.0575C15.596 61.6143 15.5153 61.1789 15.2627 60.7957C15.1793 60.6706 15.0856 60.5689 14.9163 60.5559C14.083 60.4985 13.2497 60.4333 12.4164 60.376C11.82 60.3343 11.2211 60.3108 10.6248 60.2691C9.89301 60.217 9.16125 60.1518 8.4295 60.0996C7.83316 60.0553 7.23421 60.0293 6.63787 59.9771C6.21601 59.938 5.92695 60.1752 5.8983 60.6054C5.88008 60.8896 5.94257 61.1607 6.11445 61.3745C6.30715 61.6169 6.30194 61.8594 6.23684 62.1279C6.23163 62.1488 6.23163 62.1722 6.22642 62.1957C6.00507 63.2124 5.86706 64.2396 5.74727 65.2746C5.62227 66.3356 5.62227 67.3967 5.65091 68.4604C5.66394 68.9896 5.91653 69.2164 6.44777 69.1955C6.69516 69.1851 6.94255 69.1486 7.19255 69.1434C8.23159 69.1173 9.27062 69.1199 10.3071 69.2451C11.0596 69.3363 11.807 69.438 12.5388 69.6309C13.0257 69.7586 13.333 69.5866 13.4528 69.1017C13.6742 68.2023 13.8903 67.3002 14.1117 66.4008C14.1481 66.2496 14.1872 66.101 14.2315 65.9289C16.0804 66.1896 17.9006 66.101 19.7443 65.8481C19.7443 65.9498 19.7496 65.9837 19.7443 66.015C19.4996 67.1412 19.2548 68.2674 19.0074 69.3937C18.9084 69.8395 19.1975 70.2044 19.6506 70.1862C19.8407 70.1784 20.0308 70.1419 20.2235 70.1315C20.9553 70.095 21.6896 70.035 22.424 70.0376C23.1687 70.0376 23.9135 70.0976 24.6583 70.1419C25.1427 70.1706 25.627 70.2044 26.1088 70.2644C26.6661 70.3322 26.9525 70.1158 27.0254 69.5475C27.0801 69.1225 27.1504 68.6976 27.2155 68.2753C27.3535 67.3941 27.4942 66.5129 27.6296 65.6317C27.7676 64.7401 27.9108 63.8485 28.0384 62.9517C28.0645 62.7718 28.1348 62.7014 28.3014 62.6597C28.627 62.5815 28.9134 62.4303 29.1348 62.1696C29.4108 61.849 29.3691 61.51 29.0098 61.2806L29.015 61.2754ZM69.8109 51.6581C67.9229 51.6425 66.0376 51.619 64.1496 51.6034C63.2225 51.5955 62.2955 51.6034 61.3684 51.5955C59.0742 51.5773 56.78 51.5512 54.4857 51.5408C52.1108 51.5278 49.7359 51.5278 47.3609 51.5199C46.7385 51.5199 46.1161 51.5173 45.4938 51.5095C44.7698 51.4991 44.0485 51.4704 43.3245 51.473C42.9522 51.473 42.6162 51.606 42.3662 51.9058C42.0928 52.2343 42.1084 52.6357 42.3949 52.946C42.6345 53.2067 42.9469 53.2953 43.2777 53.324C43.5928 53.3501 43.9079 53.3449 44.223 53.3449C45.5016 53.3501 46.7802 53.3553 48.0562 53.3579C49.7411 53.3631 51.4233 53.3657 53.1082 53.3761C53.7071 53.3787 54.3061 53.4074 54.905 53.4126C57.7409 53.4387 60.5794 53.4622 63.4152 53.483C64.3527 53.4908 65.2928 53.483 66.2303 53.483V53.4908C66.5688 53.4908 66.9099 53.4908 67.2485 53.4908C67.587 53.4908 67.9282 53.5013 68.2667 53.5013C68.7302 53.5013 69.1937 53.5091 69.6573 53.4804C70.0896 53.4543 70.4672 53.2823 70.7458 52.9329C70.9828 52.6331 70.9463 52.2525 70.6729 51.984C70.4307 51.7467 70.1416 51.6581 69.8109 51.6555V51.6581ZM66.5948 70.3452C65.7381 70.3009 64.8813 70.2566 64.0246 70.2123C63.1913 70.168 62.3554 70.1236 61.5533 70.0793C61.4101 70.0793 61.2955 70.0689 61.1835 70.0819C61.0611 70.095 60.9361 70.1158 60.8242 70.1601C59.996 70.4886 59.6158 71.4454 59.9648 72.3083C60.2591 73.0305 60.5559 73.7526 60.8528 74.4721C61.3319 75.6427 61.8085 76.8159 62.2955 77.9864C62.4569 78.3749 62.7251 78.6773 63.1262 78.8363C63.8215 79.11 64.5324 78.8545 64.9282 78.1793C65.0819 77.916 65.2121 77.6397 65.3553 77.3685C66.1417 75.8773 66.9256 74.3861 67.7198 72.9001C67.9177 72.5299 68.0245 72.1519 67.9854 71.7296C67.9203 70.9944 67.311 70.3817 66.5922 70.3452H66.5948ZM49.2567 70.3661C48.7958 70.34 48.3322 70.3165 47.8713 70.2983C46.7333 70.2488 45.5927 70.2044 44.4547 70.1549C44.4547 70.1497 44.4547 70.1445 44.4547 70.1367C44.3193 70.1367 44.1839 70.1419 44.0485 70.1367C43.0459 70.0871 42.1944 71.2082 42.6735 72.2562C43.2933 73.6144 43.8714 74.9883 44.4704 76.357C44.6657 76.8028 44.8558 77.2512 45.0667 77.6866C45.3297 78.2262 46.0536 78.5417 46.6474 78.3983C47.1344 78.281 47.4625 77.9968 47.7047 77.5693C48.6317 75.9243 49.5666 74.2844 50.4963 72.642C50.6499 72.3709 50.741 72.0763 50.715 71.7661C50.6525 71.0048 50.0223 70.4078 49.2593 70.3635L49.2567 70.3661ZM27.8952 58.1861C27.5463 58.16 27.1973 58.1418 26.8484 58.1209C26.3171 58.0922 25.7885 58.0688 25.2572 58.0375C24.2416 57.9775 23.2286 57.9124 22.213 57.855C21.5125 57.8159 20.812 57.795 20.1141 57.7533C19.2339 57.7038 18.3564 57.6386 17.4788 57.5865C16.7913 57.5474 16.1012 57.5265 15.4137 57.4874C14.3434 57.4274 13.2705 57.3597 12.2002 57.2971C11.6924 57.2684 11.1846 57.2476 10.6768 57.2189C9.61697 57.1563 8.5571 57.0885 7.49983 57.0234C7.49983 57.0286 7.49983 57.0312 7.49983 57.0364C7.354 57.0364 7.20296 57.0208 7.05974 57.039C6.7212 57.0859 6.42954 57.3727 6.39048 57.6725C6.34361 58.014 6.50767 58.2982 6.86182 58.4494C7.00505 58.512 7.1639 58.5537 7.31754 58.5667C7.71076 58.6032 8.10659 58.6215 8.49981 58.6423C9.49197 58.6945 10.4867 58.7414 11.4789 58.7909C11.9294 58.8144 12.3825 58.8405 12.833 58.8665C13.8799 58.9291 14.9294 58.9917 15.9762 59.0542C16.4944 59.0855 17.0152 59.109 17.5335 59.1403C18.536 59.2002 19.5386 59.2654 20.5438 59.3201C21.2313 59.3592 21.9214 59.3827 22.6089 59.4218C23.4995 59.474 24.3901 59.5339 25.2807 59.5887C25.9916 59.633 26.6999 59.6799 27.4108 59.7086C27.7051 59.719 27.9942 59.6617 28.2572 59.5078C28.515 59.3566 28.666 59.1298 28.6478 58.8405C28.6296 58.5641 28.4577 58.3608 28.1921 58.2565C28.0983 58.22 27.9994 58.1913 27.9004 58.1835L27.8952 58.1861ZM12.5075 71.2655C12.1976 71.0439 11.8461 70.9918 11.4789 70.9839C10.7888 70.9683 10.0987 70.9657 9.41125 70.9422C8.59876 70.9162 7.78628 70.8745 6.9738 70.838C6.55714 70.8171 6.16653 70.8823 5.82018 71.143C5.31498 71.5236 5.2603 72.0841 5.50769 72.5221C5.86966 73.1608 6.20299 73.8178 6.55194 74.4643C6.89828 75.1135 7.25504 75.7574 7.59618 76.4092C8.09878 77.3711 9.55187 77.3425 10.1378 76.5056C11.0206 75.2464 11.9008 73.9846 12.794 72.7333C13.2211 72.1362 12.9685 71.5966 12.5101 71.2681L12.5075 71.2655ZM24.2468 71.5236C23.739 71.4975 23.2312 71.4741 22.7234 71.4584C21.7183 71.4324 20.7105 71.4115 19.7053 71.3906C19.7053 71.375 19.7053 71.3568 19.7027 71.3411C19.4006 71.375 19.0907 71.3724 18.7991 71.4506C18.2209 71.6018 17.859 72.0997 17.9345 72.6264C17.9631 72.8219 18.0543 73.0148 18.1454 73.1921C18.4735 73.8256 18.8147 74.4513 19.1506 75.0796C19.4709 75.6792 19.7938 76.2762 20.1089 76.8784C20.3172 77.2773 20.6323 77.5406 21.0724 77.611C21.7599 77.7231 22.3485 77.5536 22.7573 76.9358C23.0307 76.5213 23.3276 76.1198 23.614 75.7131C24.2 74.8788 24.7885 74.0498 25.3666 73.2103C25.6687 72.775 25.6218 72.3318 25.2546 71.9485C24.9812 71.6644 24.6323 71.5445 24.2495 71.5236H24.2468ZM50.34 33.495C50.3166 33.4898 50.2931 33.4846 50.2697 33.482C50.2827 33.4976 50.2983 33.5107 50.3114 33.5263C50.3218 33.5159 50.3322 33.508 50.34 33.4976V33.495ZM111.352 50.2295C110.211 47.7554 108.432 45.8653 106.052 44.541C105.821 44.4106 105.586 44.2855 105.323 44.1421C105.456 44.0508 105.555 43.9804 105.656 43.9153C106.451 43.4069 107.18 42.8203 107.818 42.119C109.096 40.7191 109.708 39.061 109.737 37.1735C109.748 36.5139 109.716 35.8596 109.604 35.2104C109.458 34.3631 109.292 33.5211 109.133 32.679C109.107 32.679 109.081 32.679 109.055 32.679C109.034 32.7859 109.011 32.8902 108.995 32.9971C108.901 33.6462 108.823 34.2954 108.714 34.9419C108.518 36.0968 108.172 37.2048 107.664 38.2633C106.784 40.0908 105.516 41.6367 104.133 43.0914C103.336 43.9283 102.5 44.7234 101.68 45.5368C101.62 45.5968 101.547 45.6463 101.44 45.7324C101.177 45.0597 100.927 44.421 100.675 43.7745C100.589 43.8032 100.524 43.8214 100.464 43.8449C99.167 44.3923 97.8337 44.8095 96.4301 44.9659C95.6645 45.0519 94.8989 45.0728 94.1307 44.9815C93.0239 44.8486 91.9589 44.567 90.9224 44.1551C90.8469 44.1264 90.7636 44.1212 90.6308 44.0951C90.8834 44.6843 91.1151 45.211 91.3313 45.7428C91.3834 45.8731 91.4094 46.0296 91.3964 46.1677C91.3573 46.5588 91.2922 46.9498 91.2271 47.4139C91.1073 47.3252 91.024 47.2731 90.9537 47.2079C89.6126 45.9435 88.261 44.6896 87.0215 43.3209C86.0163 42.2129 85.0528 41.0736 84.1882 39.8535C83.0502 38.2476 82.0815 36.5557 81.4851 34.6656C81.4669 34.6056 81.4305 34.5482 81.3914 34.4674C81.0919 35.6197 81.2143 37.7966 81.7612 39.4416C82.683 42.2129 84.4408 44.2698 87.1178 45.6072C86.9538 45.6672 86.8626 45.7011 86.7715 45.735C86.3913 45.8783 86.0033 46.0087 85.6283 46.1677C84.7767 46.5275 84.0111 47.028 83.3523 47.6798C82.5606 48.4671 81.9669 49.3926 81.6153 50.4459C81.1961 51.6998 80.8263 52.9694 80.4826 54.2469C80.2586 55.0759 80.1571 55.931 80.0946 56.7887C80.0399 57.5656 80.0737 58.3269 80.2768 59.0751C80.3784 59.4505 80.5477 59.7972 80.8159 60.0814C81.1206 60.3995 81.4825 60.5637 81.9383 60.4672C82.0685 59.719 82.183 58.9943 82.3211 58.2747C82.6987 56.309 83.0997 54.3486 83.6674 52.4298C84.0788 51.0376 84.5736 49.6794 85.2142 48.3759C85.2897 48.2195 85.3731 48.1465 85.5528 48.1777C85.8522 48.2299 86.1543 48.2664 86.4564 48.3133C86.6283 48.3394 86.8001 48.3759 86.9798 48.4072C86.959 48.4932 86.9486 48.5375 86.9355 48.5792C86.4746 49.9766 86.0137 51.374 85.5502 52.7687C85.2272 53.7463 84.8939 54.7188 84.5762 55.699C84.4174 56.1891 84.7273 56.5541 85.2377 56.515C85.4174 56.502 85.5996 56.4941 85.7793 56.4941C87.2845 56.4889 88.7897 56.4889 90.2948 56.4785C91.5162 56.4681 92.7375 56.4498 93.9588 56.4264C94.4223 56.4185 94.6385 56.1917 94.6515 55.7355C94.6749 54.8309 94.701 53.9262 94.7166 53.019C94.7453 51.5825 94.7609 50.146 94.7947 48.7096C94.7999 48.5036 94.727 48.4019 94.5473 48.3263C94.089 48.1308 93.6385 47.9196 93.1854 47.7137C92.9927 47.6251 92.8 47.539 92.6437 47.4686V46.0061C94.9614 46.8091 97.227 46.5379 99.4873 45.9253C99.7425 46.4571 99.9821 46.9524 100.237 47.4843C100.071 47.5182 99.9405 47.5442 99.8102 47.5677C98.8754 47.7267 97.9379 47.8832 97.003 48.0474C96.6332 48.1126 96.4822 48.282 96.477 48.6366C96.4588 49.7576 96.4457 50.8786 96.4327 51.9996C96.4171 53.2223 96.4067 54.445 96.3911 55.6677C96.3858 55.9962 96.6046 56.2543 96.9353 56.2882C97.0369 56.2986 97.1384 56.2934 97.24 56.2934C100.183 56.2647 103.123 56.236 106.065 56.2074C106.326 56.2074 106.586 56.2074 106.847 56.1943C106.969 56.1891 107.097 56.1735 107.211 56.1318C107.573 56.0066 107.729 55.712 107.649 55.334C107.628 55.2349 107.607 55.1333 107.584 55.0368C107.021 52.7322 106.459 50.4276 105.899 48.1204C105.875 48.0239 105.87 47.9249 105.854 47.8023C106.279 47.6616 106.682 47.5208 107.091 47.3956C107.367 47.3096 107.404 47.3252 107.537 47.6016C107.849 48.2533 108.172 48.9025 108.453 49.5699C109.229 51.4104 109.776 53.3214 110.136 55.2845C110.274 56.0379 110.375 56.8018 110.438 57.5656C110.484 58.1496 110.44 58.7388 110.432 59.3254C110.427 59.6173 110.37 59.9119 110.406 60.1961C110.443 60.4959 110.711 60.6393 111.013 60.6002C111.281 60.5663 111.484 60.4568 111.568 60.1779C111.599 60.071 111.656 59.9693 111.698 59.865C112.266 58.4598 112.482 56.9895 112.503 55.4878C112.51 55.0264 112.443 54.5623 112.401 54.1009C112.276 52.7478 111.922 51.4496 111.357 50.219L111.352 50.2295ZM109.169 60.0527C108.909 59.9354 108.636 59.8833 108.344 59.9093C108.063 59.9354 107.781 59.9537 107.498 59.951C106.774 59.9406 106.052 59.9145 105.328 59.8937C104.604 59.8728 103.883 59.852 103.159 59.8337C101.961 59.8077 100.763 59.7842 99.5655 59.7607C99.0681 59.7503 98.5707 59.7503 98.0733 59.7373C97.3832 59.719 97.3546 59.7373 97.1879 60.4125C97.1827 60.4333 97.1801 60.4568 97.1749 60.4803C97.0317 61.192 97.0916 61.9011 97.214 62.605C97.2869 63.0247 97.3936 63.4366 97.49 63.872C96.4952 63.9372 95.5291 64.0727 94.5421 64.1092C94.5552 64.0284 94.5552 63.9945 94.563 63.9632C94.7947 63.2307 94.8468 62.4772 94.7947 61.7134C94.7635 61.265 94.6124 60.8531 94.3677 60.4751C94.2557 60.3004 94.1073 60.2196 93.8859 60.2222C93.2401 60.2326 92.5969 60.2222 91.9511 60.2196C90.8547 60.2117 89.7584 60.1987 88.6621 60.1883C87.3834 60.1752 86.1048 60.1648 84.8262 60.1466C84.6517 60.1466 84.5189 60.2144 84.4148 60.3447C84.2429 60.5585 84.1778 60.7983 84.2455 61.0721C84.3106 61.3432 84.433 61.583 84.6127 61.7916C84.7377 61.935 84.7533 62.081 84.7351 62.2609C84.6205 63.3506 84.4721 64.4377 84.4174 65.5301C84.3549 66.7606 84.3523 67.9963 84.5398 69.2242C84.6231 69.7691 84.9304 70.0063 85.4746 69.9359C86.0684 69.8577 86.6621 69.7743 87.2611 69.7534C88.1881 69.7248 89.1178 69.7195 90.0422 69.7613C90.6698 69.7873 91.2948 69.9099 91.9224 69.9881C92.0578 70.0037 92.1932 70.0298 92.326 70.0246C92.6698 70.0141 92.9172 69.7925 92.9797 69.451C93.1333 68.6063 93.2818 67.7617 93.4328 66.917C93.4875 66.6094 93.5448 66.3043 93.6047 65.9759C95.615 66.0958 97.5707 65.9628 99.5603 65.5144C99.5498 65.6969 99.5498 65.8325 99.529 65.9628C99.3519 67.123 99.1827 68.2857 98.9874 69.4432C98.9457 69.6883 99.0264 69.8369 99.1983 69.9646C99.3858 70.1054 99.5993 70.1679 99.8389 70.1184C101.354 69.8056 102.894 69.7899 104.43 69.7508C105.117 69.7326 105.805 69.7769 106.492 69.7925C106.672 69.7978 106.854 69.8082 107.034 69.7925C107.354 69.7639 107.604 69.5344 107.633 69.2451C107.703 68.536 107.763 67.8268 107.826 67.1203C107.883 66.466 107.932 65.8142 107.99 65.1599C108.07 64.237 108.156 63.3141 108.242 62.3912C108.263 62.1566 108.294 61.922 108.32 61.6821C108.477 61.6195 108.636 61.5804 108.768 61.497C108.987 61.3614 109.219 61.2259 109.388 61.0382C109.716 60.681 109.607 60.243 109.162 60.0449L109.169 60.0527ZM86.235 57.2371C86.0918 57.2371 85.9408 57.2606 85.8027 57.3049C85.4798 57.4092 85.2246 57.7585 85.2429 58.0375C85.2637 58.3555 85.5033 58.6397 85.8574 58.7205C86.0658 58.7675 86.2819 58.7883 86.4954 58.7909C88.2688 58.8144 90.0422 58.83 91.8156 58.8483C93.951 58.8717 96.089 58.9004 98.2243 58.9187C100.146 58.9343 102.068 58.9395 103.992 58.9526C104.737 58.9578 105.485 58.9812 106.229 58.9838C106.617 58.9838 106.995 58.9265 107.305 58.6501C107.669 58.3243 107.628 57.8081 107.201 57.5708C107.068 57.4978 106.904 57.4483 106.753 57.4431C105.893 57.4144 105.037 57.3962 104.177 57.3883C101.42 57.3623 98.6592 57.344 95.9015 57.3232C93.2114 57.3023 90.5214 57.2788 87.8287 57.258C87.8287 57.2502 87.8287 57.245 87.8287 57.2371C87.2975 57.2371 86.7663 57.2319 86.235 57.2397V57.2371ZM106.758 70.9605C106.557 70.9318 106.354 70.9136 106.151 70.9057C104.753 70.8614 103.352 70.8223 101.951 70.7832C101.951 70.7754 101.951 70.7702 101.951 70.7623C101.826 70.7623 101.701 70.7571 101.578 70.7623C101.183 70.778 100.826 70.8901 100.526 71.1664C100.154 71.508 100.071 71.9068 100.284 72.3605C100.323 72.4413 100.365 72.5221 100.409 72.6029C101.06 73.8204 101.735 75.0248 102.354 76.2553C102.907 77.3529 104.448 77.2434 104.977 76.4013C105.091 76.2188 105.222 76.0494 105.344 75.8721C106.107 74.7902 106.87 73.7109 107.628 72.629C107.886 72.2588 107.899 71.8599 107.654 71.5184C107.435 71.2134 107.133 71.0152 106.755 70.9631L106.758 70.9605ZM91.8 71.242C91.3365 71.2186 90.8756 71.1925 90.412 71.1795C89.4876 71.1508 88.5605 71.1273 87.6334 71.1013C87.6334 71.0961 87.6334 71.0908 87.6334 71.0856C87.373 71.0856 87.1126 71.0908 86.8548 71.0856C86.5423 71.0778 86.2481 71.1325 85.9824 71.3046C85.4746 71.6331 85.2481 72.1597 85.5554 72.7307C86.2611 74.0342 86.9538 75.3429 87.6517 76.649C87.7715 76.8732 87.9303 77.0661 88.1621 77.1782C88.8183 77.5041 89.7219 77.4259 90.2141 76.7064C90.8 75.8486 91.412 75.0066 92.0109 74.1567C92.3026 73.7396 92.6021 73.3277 92.8807 72.9027C93.1594 72.4752 93.1333 72.0971 92.8364 71.7504C92.563 71.4297 92.2193 71.2655 91.8026 71.2446L91.8 71.242Z" fill="#EC3237"/>
<path d="M29.5931 63.4027C30.692 62.5763 31.6842 61.643 32.481 60.5089C33.5696 58.9604 34.1685 57.2502 34.2414 55.3549C34.2492 55.1333 34.2753 54.9091 34.2935 54.6875C34.4107 54.9873 34.4758 55.2819 34.5591 55.5738C35.0201 57.172 35.7909 58.5902 37.0408 59.706C37.4861 60.1022 37.9809 60.4464 38.4731 60.7879C38.6476 60.9104 38.6944 61.0095 38.6684 61.2233C38.5981 61.8177 38.546 62.4173 38.5278 63.0143C38.4965 64.0545 38.4783 65.0973 38.4835 66.1375C38.4913 67.8034 38.5903 69.4667 38.8246 71.1143C38.9991 72.3448 39.2335 73.5675 39.4783 74.7876C39.7673 76.2136 40.2283 77.5771 41.0303 78.8076C41.6735 79.7957 42.4287 80.669 43.4521 81.2817C44.236 81.7509 45.0849 82.0038 45.9912 82.0299C46.9807 82.0586 47.9156 81.8057 48.7932 81.3521C50.5666 80.4344 51.8191 79.0031 52.7254 77.259C54.017 74.7772 54.5092 72.1076 54.4701 69.3259C54.4571 68.3404 54.418 67.355 54.3946 66.3721C54.3946 66.2861 54.405 66.2001 54.4076 66.1401H56.6446C56.7357 67.1959 56.8268 68.197 56.9102 69.2007C56.9831 70.0923 57.0482 70.9839 57.1211 71.8755C57.194 72.7776 57.2695 73.6796 57.3451 74.5816C57.3815 75.0092 57.3763 75.4498 57.4727 75.8643C57.6836 76.7689 58.0169 77.6345 58.4805 78.4478C58.9284 79.2326 59.4804 79.9312 60.2174 80.4605C61.6314 81.4746 63.16 81.5841 64.7538 80.9584C66.0871 80.437 67.1157 79.5089 68.0141 78.427C68.7615 77.525 69.3318 76.5082 69.8943 75.4889C71.139 73.226 72.0869 70.8536 72.5713 68.3065C72.889 66.6354 73.027 64.9487 72.9723 63.2489C72.9385 62.1852 72.8786 61.1242 72.7197 60.071C72.6937 59.8937 72.7458 59.7764 72.8812 59.659C73.1312 59.4453 73.3681 59.2185 73.5973 58.9864C74.9879 57.5682 76.2327 56.0379 77.1753 54.2756C78.0477 52.6462 78.5607 50.9151 78.6883 49.0746C78.7717 47.8857 78.6623 46.6996 78.4071 45.5368C78.0243 43.7927 77.355 42.1555 76.5087 40.5835C75.5165 38.7429 74.3108 37.051 72.9984 35.432C72.8004 35.1896 72.6051 34.9445 72.4046 34.6968C72.4541 34.6343 72.4853 34.5873 72.5218 34.5456C73.3161 33.5993 74.0348 32.6008 74.6832 31.5502C76.6858 28.307 77.9097 24.8188 78.0321 20.9761C78.0894 19.245 77.9123 17.54 77.4983 15.8611C76.6285 12.3312 74.8785 9.28362 72.3682 6.67138C70.8291 5.07067 69.074 3.7437 67.1209 2.68786C64.121 1.06108 60.9049 0.205976 57.5065 0.0234842C56.1342 -0.0495123 54.7722 0.0599825 53.4155 0.273758C51.5353 0.568351 49.7072 1.06108 47.9494 1.79886C44.9365 3.06588 42.3506 4.90904 40.2673 7.44567C39.27 8.66054 38.4549 9.9823 37.8221 11.4162C36.7726 13.799 36.283 16.2939 36.3143 18.9009C36.3351 20.5173 36.5487 22.1023 36.9367 23.6665C37.5252 26.0441 38.4861 28.2653 39.7048 30.3848C40.3663 31.5319 41.1059 32.6243 41.8897 33.6957C41.8324 33.7766 41.7829 33.8548 41.7282 33.9226C40.8559 34.9784 40.033 36.0681 39.2752 37.21C37.4783 39.9083 36.0356 42.7786 35.0852 45.8836C34.4524 47.9483 34.0643 50.0496 34.0956 52.2186C34.0956 52.302 34.0956 52.3855 34.0956 52.4689L34.0305 52.4819C33.3925 49.4239 31.9784 46.7152 30.2936 44.1316C30.3431 44.0691 30.3769 44.0248 30.416 43.983C31.5722 42.6847 32.5696 41.277 33.3664 39.731C34.481 37.5698 35.1346 35.2886 35.1867 32.8433C35.2206 31.2686 34.9966 29.7331 34.5044 28.2393C33.8977 26.3961 32.9211 24.7693 31.6243 23.3328C30.7467 22.363 29.7415 21.5418 28.6374 20.8457C27.2885 19.9985 25.8328 19.391 24.2937 18.9843C23.1661 18.6871 22.0177 18.4994 20.8537 18.4603C20.0881 18.4343 19.3147 18.4916 18.5517 18.5855C17.6454 18.695 16.7418 18.8462 15.8512 19.0443C12.8096 19.7169 10.0545 20.9683 7.74723 23.1165C6.77069 24.0237 5.94518 25.0509 5.27853 26.2058C4.15356 28.1532 3.6119 30.2701 3.47649 32.5017C3.40618 33.6697 3.47649 34.835 3.63534 35.9899C3.85408 37.5724 4.22387 39.1183 4.76552 40.62C5.12228 41.608 5.52332 42.5805 5.91654 43.5555C5.97904 43.7093 5.98424 43.811 5.87487 43.9518C4.79938 45.3361 3.78638 46.7673 2.88536 48.2742C1.98434 49.7811 1.18227 51.3374 0.635407 53.0138C0.11719 54.5988 -0.164054 56.2126 0.0807323 57.8863C0.203125 58.7205 0.463536 59.5104 0.859361 60.2561C1.33331 61.1451 1.97131 61.9037 2.72651 62.5633C2.86192 62.6806 2.93744 62.8005 2.94265 62.9934C2.9739 64.0467 3.01556 65.0999 3.06504 66.1505C3.11712 67.282 3.17441 68.4134 3.24733 69.5423C3.31243 70.546 3.40618 71.5497 3.47649 72.556C3.55461 73.7213 3.70565 74.8762 4.02335 76.0025C4.26814 76.8654 4.57021 77.7048 5.10145 78.44C5.53113 79.0344 6.06237 79.4854 6.80454 79.6366C7.46077 79.7696 8.08576 79.6366 8.69773 79.4177C9.34875 79.1804 9.9477 78.8389 10.518 78.4478C11.1039 78.0464 11.7237 77.6736 12.1794 77.1183C12.6325 76.5708 13.0726 76.0051 13.4502 75.4054C14.8252 73.2182 15.5231 70.8041 15.7549 68.244C15.7783 67.9781 15.8095 67.7095 15.8382 67.4123C16.2705 67.4593 16.6793 67.5036 17.1168 67.5479C17.1012 67.8347 17.0856 68.0823 17.0725 68.3274C17.0335 68.9713 16.997 69.6153 16.9527 70.2566C16.9033 70.9996 16.846 71.7452 16.7939 72.4882C16.7444 73.1764 16.6871 73.8621 16.6481 74.5503C16.6376 74.7146 16.6481 74.8945 16.7028 75.0483C16.8929 75.5801 17.083 76.1146 17.3173 76.6255C17.6142 77.2773 18.0126 77.8717 18.5543 78.3514C19.1402 78.8702 19.8277 79.1204 20.6089 79.0787C21.0959 79.0527 21.562 78.9171 22.0151 78.7294C22.8693 78.3722 23.6193 77.8508 24.3328 77.2773C24.9057 76.8185 25.4473 76.3335 25.8744 75.7183C27.153 73.8777 28.0801 71.8808 28.6478 69.7169C29.1452 67.8138 29.3405 65.8716 29.3353 63.9111C29.3353 63.6869 29.3926 63.5409 29.5775 63.4027H29.5931ZM50.4963 72.642C49.564 74.2844 48.6317 75.9242 47.7047 77.5693C47.4651 77.9968 47.137 78.281 46.6474 78.3983C46.0511 78.5417 45.3271 78.2262 45.0667 77.6866C44.8558 77.2486 44.6657 76.8028 44.4704 76.357C43.8714 74.9909 43.2933 73.6144 42.6735 72.2562C42.197 71.2082 43.0485 70.0871 44.0485 70.1367C44.1839 70.1445 44.3193 70.1367 44.4547 70.1367C44.4547 70.1419 44.4547 70.1471 44.4547 70.1549C45.5927 70.2018 46.7333 70.2488 47.8713 70.2983C48.3322 70.3192 48.7958 70.3426 49.2567 70.3661C50.0197 70.4078 50.6499 71.0048 50.7124 71.7687C50.7384 72.0789 50.6473 72.3735 50.4937 72.6446L50.4963 72.642ZM67.7224 72.8975C66.9282 74.3835 66.1443 75.8747 65.3579 77.3659C65.2147 77.6371 65.0871 77.9134 64.9308 78.1767C64.535 78.8519 63.8241 79.1074 63.1288 78.8337C62.7278 78.6747 62.4595 78.3722 62.2981 77.9838C61.8111 76.8158 61.3346 75.6427 60.8554 74.4695C60.5585 73.7474 60.2617 73.0278 59.9674 72.3057C59.6158 71.4454 59.996 70.486 60.8268 70.1575C60.9387 70.1132 61.0663 70.0923 61.1861 70.0793C61.2981 70.0663 61.4127 70.0767 61.5559 70.0767C62.358 70.121 63.1939 70.1653 64.0272 70.2097C64.884 70.254 65.7407 70.2983 66.5975 70.3426C67.3162 70.3791 67.9256 70.9918 67.9907 71.7269C68.0271 72.1493 67.923 72.5273 67.725 72.8975H67.7224ZM70.6182 56.3612C70.3812 56.7209 70.0375 56.9686 69.6365 57.112C69.4099 57.1928 69.3318 57.3049 69.3214 57.55C69.2719 58.4989 69.1938 59.4453 69.1261 60.3916C69.0583 61.3275 68.9906 62.2635 68.9255 63.1994C68.8318 64.5081 68.7432 65.8142 68.6495 67.1229C68.6365 67.3028 68.6182 67.4827 68.5922 67.6626C68.5375 68.0406 68.1886 68.3274 67.7641 68.317C67.2797 68.3039 66.7954 68.2518 66.3084 68.2388C65.2902 68.2101 64.2746 68.1892 63.2564 68.1788C62.4049 68.171 61.5689 68.3013 60.7382 68.476C60.1497 68.6011 59.7356 68.3091 59.6836 67.7043C59.6106 66.8935 59.5533 66.0801 59.4882 65.2694C59.4179 64.3778 59.3476 63.4888 59.2747 62.5972C59.2721 62.5633 59.2565 62.532 59.233 62.4616C58.6601 62.5294 58.0977 62.6962 57.5247 62.777C56.9544 62.8579 56.3868 62.9543 55.8139 63.0039C55.2279 63.056 54.6394 63.0769 54.0535 63.0821C53.4806 63.0873 52.9051 63.0534 52.2983 63.0325C52.2566 63.2802 52.2072 63.52 52.1733 63.7625C51.9832 65.0816 51.7905 66.4008 51.6108 67.72C51.5171 68.4082 51.0301 68.6272 50.4754 68.4968C49.1135 68.1814 47.7333 68.0875 46.3375 68.0928C45.2047 68.098 44.0797 68.171 42.9626 68.3613C42.5824 68.4265 42.2491 68.3691 41.9886 68.0406C41.8116 67.8164 41.8116 67.5505 41.7855 67.3002C41.5902 65.5405 41.5772 63.7755 41.6501 62.0106C41.7074 60.5767 41.809 59.1455 42.0199 57.7246C42.0433 57.563 41.9834 57.4457 41.8897 57.3206C41.5616 56.8826 41.3767 56.3977 41.4105 55.8372C41.4288 55.54 41.5668 55.3184 41.7647 55.1281C41.8272 55.0681 41.947 55.0472 42.0433 55.042C42.5407 55.0212 43.0381 55.0029 43.5355 54.9951C45.413 54.9638 47.2906 54.9351 49.1682 54.9065C50.6942 54.883 52.2228 54.8621 53.7488 54.8309C53.9832 54.8256 54.142 54.8856 54.2957 55.0811C55.0326 56.0196 55.2253 57.0677 54.9936 58.2174C54.9779 58.2956 54.9597 58.3712 54.9415 58.4494C54.9232 58.5276 54.9076 58.6032 54.8738 58.7492C55.5821 58.8013 56.2618 58.8483 56.9857 58.903C56.6237 57.3649 56.6862 55.8997 57.4596 54.5258C57.8555 54.5258 58.2279 54.518 58.6002 54.5258C58.9153 54.5336 59.2304 54.5623 59.5481 54.5728C60.3502 54.6014 61.1523 54.6197 61.9543 54.651C63.2408 54.7005 64.5298 54.7631 65.8162 54.8126C66.436 54.8361 67.0584 54.8439 67.6782 54.8647C67.9724 54.8752 68.2641 54.9065 68.5583 54.9091C68.7615 54.9091 68.962 54.8804 69.1651 54.8621C69.5297 54.8282 69.8864 54.8256 70.2276 54.9873C70.8239 55.2688 70.9854 55.8033 70.6208 56.3586L70.6182 56.3612ZM70.7458 52.9329C70.4698 53.2823 70.0896 53.4543 69.6573 53.4804C69.1964 53.5091 68.7302 53.4987 68.2667 53.5013C67.9282 53.5013 67.587 53.4934 67.2485 53.4908C66.91 53.4882 66.5688 53.4908 66.2303 53.4908V53.483C65.2928 53.483 64.3527 53.4882 63.4152 53.483C60.5794 53.4622 57.7409 53.4387 54.905 53.4126C54.3061 53.4074 53.7071 53.3787 53.1082 53.3761C51.4233 53.3657 49.7411 53.3631 48.0562 53.3579C46.7776 53.3527 45.499 53.3501 44.223 53.3448C43.9079 53.3448 43.5902 53.3501 43.2777 53.324C42.947 53.2953 42.6371 53.2067 42.3949 52.946C42.1084 52.6357 42.0928 52.2317 42.3662 51.9058C42.6162 51.6034 42.9522 51.4756 43.3245 51.473C44.0485 51.4678 44.7698 51.4991 45.4938 51.5095C46.1161 51.5173 46.7385 51.5199 47.3609 51.5199C49.7359 51.5278 52.1108 51.5278 54.4858 51.5408C56.78 51.5538 59.0742 51.5799 61.3684 51.5955C62.2955 51.6034 63.2225 51.5955 64.1496 51.6034C66.0376 51.619 67.923 51.6425 69.8109 51.6581C70.1416 51.6607 70.4307 51.7494 70.6729 51.9866C70.9463 52.2551 70.9828 52.6383 70.7458 52.9355V52.9329ZM50.4338 12.4538C50.4338 12.4538 50.4338 12.4538 50.4364 12.4538C50.4832 11.0616 50.5275 9.66946 50.577 8.27731C50.5874 7.99575 50.59 7.70898 50.6447 7.43263C50.8973 6.11348 52.0145 5.20102 53.353 5.24013C54.2904 5.26881 55.2279 5.34962 56.1654 5.40959C57.7122 5.50865 59.2591 5.61033 60.8059 5.712C61.2564 5.74068 61.7122 5.7485 62.1575 5.81367C63.5949 6.03006 64.5064 7.26839 64.4595 8.54062C64.4256 9.44525 64.3918 10.3499 64.3501 11.2571C64.2876 12.6701 64.2225 14.0857 64.1548 15.4988C64.121 16.2339 64.0871 16.9691 64.0454 17.7043C63.9647 19.1434 62.7798 20.267 61.3346 20.2461C60.6002 20.2357 59.8658 20.1836 59.1315 20.1471C57.5274 20.0689 55.9232 19.9906 54.3191 19.9072C53.7436 19.8785 53.1629 19.8733 52.5926 19.7899C51.2228 19.5918 50.2593 18.4447 50.2905 17.0682C50.3244 15.5274 50.3843 13.9893 50.4338 12.4511V12.4538ZM37.2388 50.4432C37.4627 49.1032 37.796 47.7919 38.132 46.4754C38.3247 45.7193 38.4575 44.9502 38.6476 44.1942C39.0408 42.6091 39.5877 41.0762 40.3481 39.6241C41.0043 38.3727 41.8298 37.2413 42.8298 36.2454C43.5199 35.5572 44.2698 34.9393 45.0823 34.397C45.249 34.2849 45.413 34.165 45.6057 34.0294C45.5042 33.9512 45.4391 33.8939 45.3636 33.8496C43.3844 32.6425 41.9001 30.9923 40.9548 28.8702C40.421 27.6761 40.1163 26.4143 39.9184 25.1213C39.6866 23.6118 39.7022 22.0971 39.7413 20.5824C39.7595 19.9046 39.8403 19.2294 39.8949 18.5542C39.9001 18.4864 39.9262 18.4238 39.9574 18.2935C40.0069 18.429 40.0434 18.5099 40.0642 18.5933C40.7465 21.4036 41.8246 24.0602 43.1917 26.602C44.2985 28.659 45.5875 30.5986 47.0042 32.4548C48.0953 33.8861 49.2541 35.2626 50.4572 36.6C50.5145 36.6651 50.5822 36.7225 50.6786 36.8137C50.9806 36.2793 51.2671 35.7709 51.5666 35.2365C51.3947 35.0045 51.2202 34.7698 51.0483 34.5352C50.8035 34.1989 50.5588 33.86 50.314 33.5211C50.301 33.5054 50.2853 33.4924 50.2723 33.4768C50.2957 33.482 50.3192 33.4872 50.3426 33.4898C50.6629 33.628 50.9832 33.7661 51.3061 33.9043C52.642 34.4805 54.017 34.9158 55.4649 35.0775C55.9909 35.1374 56.5222 35.1948 57.0508 35.1948C58.7669 35.1948 60.4179 34.848 62.0012 34.1833C62.3658 34.0294 62.7199 33.8548 63.0793 33.6879C63.16 33.6514 63.2408 33.6175 63.371 33.5602C63.3241 33.7766 63.2902 33.9512 63.246 34.1233C63.1548 34.4857 63.0637 34.8454 62.9647 35.2078C62.9152 35.3903 62.9465 35.5285 63.0949 35.6614C63.4569 35.9821 63.8059 36.3184 64.1808 36.6677C64.2824 36.5583 64.3709 36.4748 64.4465 36.3784C65.1001 35.5259 65.7589 34.676 66.3969 33.8131C67.4855 32.3375 68.5167 30.8228 69.4594 29.2482C70.7771 27.0478 71.9307 24.7693 72.7327 22.3265C73.165 21.0126 73.4957 19.6778 73.6181 18.2961C73.6233 18.2439 73.6442 18.1944 73.7171 18.1397C73.79 18.5516 73.8655 18.9635 73.9332 19.3754C74.165 20.7858 74.277 22.2066 74.2119 23.6353C74.0817 26.4952 73.2093 29.0891 71.4359 31.3599C70.4672 32.5982 69.337 33.6671 68.0844 34.6134C68.0219 34.6603 67.9594 34.7099 67.8995 34.7646C67.8761 34.7855 67.8578 34.8168 67.8162 34.8767C67.9568 34.9862 68.0948 35.0983 68.2381 35.2026C70.2302 36.6704 71.9854 38.3753 73.3473 40.4531C74.3603 41.9991 75.0764 43.6806 75.4436 45.5003C75.6545 46.5457 75.7822 47.6016 75.7561 48.6652C75.7275 49.7498 75.6207 50.8265 75.3993 51.8953C75.165 53.0294 74.8473 54.1348 74.4489 55.2167C74.3213 55.5608 74.0791 55.7016 73.6806 55.6833C73.3734 55.6703 73.1728 55.4748 73.0661 55.1463C72.9515 54.7943 73.0452 54.4502 73.0791 54.1061C73.1416 53.4778 73.2223 52.8495 73.2666 52.2186C73.3213 51.4287 73.3681 50.6388 73.3734 49.8462C73.3786 49.1919 73.3317 48.5349 73.2874 47.8805C73.251 47.3617 73.1911 46.8456 73.1286 46.3294C73.0088 45.3048 72.7874 44.3011 72.5062 43.313C72.1989 42.2363 71.8213 41.1805 71.3552 40.1612C71.3083 40.0595 71.251 39.963 71.1885 39.8431C70.5583 40.0882 69.9437 40.3306 69.3135 40.5757C69.3266 40.7034 69.3292 40.8051 69.3474 40.9015C69.6911 42.5935 70.0401 44.2881 70.3864 45.98C70.5922 46.9863 70.7745 48.0005 70.9984 49.0016C71.139 49.6325 70.5609 50.1904 70.0401 50.1695C69.4411 50.146 68.8422 50.1721 68.2406 50.1773C65.6834 50.1982 63.1262 50.2164 60.5716 50.2373C59.7226 50.2451 58.8737 50.2425 58.0273 50.2868C57.5065 50.3155 57.043 49.8723 57.0977 49.33C57.194 48.3759 57.2383 47.4139 57.3008 46.4545C57.3268 46.0817 57.3451 45.7089 57.3711 45.3387C57.4362 44.3454 57.5065 43.3548 57.5716 42.3615C57.6211 41.6289 57.6628 40.8937 57.7122 40.1612C57.7409 39.7388 57.9753 39.4807 58.3685 39.3478C59.3945 38.9984 60.4231 38.6465 61.4491 38.2971C61.5559 38.2606 61.6601 38.2189 61.8111 38.1642C61.5741 37.648 61.345 37.1526 61.1002 36.6234C60.1914 36.8893 59.2929 37.1318 58.3529 37.1918C57.4128 37.2517 56.4805 37.1996 55.556 37.0223C54.6316 36.8424 53.7462 36.5374 52.8426 36.1463C52.5197 36.5713 52.1967 36.9988 51.853 37.4551C52.1655 37.6297 52.4493 37.7888 52.7332 37.9452C53.379 38.2971 54.0196 38.6569 54.6706 38.9984C54.8946 39.1157 54.991 39.2461 54.9883 39.5198C54.9571 42.8464 54.9415 46.1755 54.9285 49.5021C54.9285 49.8879 54.8269 50.1982 54.4597 50.365C54.3399 50.4198 54.1993 50.4432 54.0665 50.4458C53.3217 50.4563 52.5743 50.4511 51.8296 50.4563C51.366 50.4615 50.9025 50.485 50.439 50.4876C50.1004 50.4876 49.7619 50.4641 49.4234 50.4667C48.9937 50.4667 48.564 50.4928 48.1343 50.4954C47.038 50.5006 45.9391 50.4954 44.8427 50.498C44.3454 50.498 43.8454 50.4823 43.3506 50.511C42.7829 50.5449 42.2699 50.0105 42.4834 49.3483C43.1553 47.2601 43.7933 45.1614 44.4443 43.0654C44.8219 41.8453 45.1995 40.6226 45.5771 39.4025C45.6057 39.3087 45.6188 39.2122 45.6526 39.0662C45.1422 39.0193 44.6657 38.9776 44.1761 38.9306C44.0224 39.293 43.874 39.6189 43.7464 39.9552C43.3141 41.0971 42.874 42.2389 42.4626 43.3886C41.861 45.0702 41.322 46.7752 40.8845 48.5088C40.5694 49.7576 40.2621 51.009 40.0017 52.2708C39.7595 53.4413 39.5824 54.6275 39.3793 55.8085C39.3533 55.9519 39.3377 56.0979 39.3168 56.2439C39.2804 56.5019 39.2153 56.5515 38.9627 56.5332C37.9262 56.4628 37.4393 55.9519 37.1684 55.0524C37.033 54.604 36.9783 54.1217 36.9523 53.6499C36.8924 52.5706 37.0565 51.5069 37.2335 50.4458L37.2388 50.4432ZM13.2237 29.6914C13.294 29.2716 13.5023 28.9353 13.7783 28.6225C14.7965 27.4676 15.8095 26.3101 16.8251 25.1525C17.4736 24.4121 18.122 23.6718 18.7704 22.9314C18.8303 22.8636 18.885 22.7958 18.9657 22.6967C19.3642 22.0997 20.1063 21.1612 20.8771 21.2629C21.4552 21.3385 21.6349 22.0189 22.6375 23.9507C23.4891 25.5905 23.9474 26.4561 24.6687 27.5406C25.0333 28.088 25.3666 28.6564 25.7468 29.196C26.3353 30.0303 26.6504 30.3718 26.739 31.0053C26.7754 31.2738 26.8536 31.8291 26.4968 32.288C26.0515 32.8589 25.2755 32.8328 25.1765 32.8276C24.7547 32.8041 24.3719 32.7833 23.989 32.7624C22.0802 32.6555 20.1714 32.5487 18.2626 32.4418C17.2809 32.387 16.2965 32.3323 15.3148 32.2853C13.9815 32.2228 13.0049 31.0131 13.2237 29.694V29.6914ZM5.01552 59.3253C4.91135 59.7425 4.79156 60.1544 4.67698 60.5689C4.65875 60.6315 4.6249 60.6914 4.59886 60.754C4.27595 60.7957 4.03898 60.6471 3.82544 60.4568C3.51295 60.1805 3.30722 59.8285 3.16139 59.4453C2.94525 58.8822 2.81765 58.2982 2.7864 57.696C2.77078 57.3909 2.73432 57.0859 2.73953 56.7809C2.75515 55.5165 2.95046 54.2808 3.36451 53.0868C3.81763 51.7702 4.32803 50.4745 4.99208 49.2466C5.67696 47.9796 6.54413 46.8508 7.63525 45.9122C8.48419 45.1823 9.43469 44.6192 10.5388 44.3532C10.6013 44.3376 10.6638 44.3141 10.7628 44.2828C10.5727 44.056 10.4086 43.8449 10.2315 43.6467C9.34615 42.6404 8.56231 41.5637 7.89306 40.4036C7.02328 38.8941 6.34622 37.3091 6.09101 35.565C5.87487 34.0842 6.04674 32.6555 6.63006 31.279C6.69517 31.1278 6.77329 30.9818 6.9061 30.8463C6.95297 31.1852 7.00245 31.5241 7.04932 31.863C7.23161 33.2004 7.58056 34.4987 8.01545 35.7735C8.70033 37.7862 9.59093 39.7023 10.7029 41.5142C11.5805 42.9481 12.5804 44.2881 13.7966 45.456C13.9424 45.5968 14.096 45.7297 14.2731 45.8914C14.4762 45.6959 14.6663 45.5108 14.8851 45.2944C14.3747 44.653 13.8799 44.0326 13.3877 43.4121C13.4007 43.3939 13.4164 43.3756 13.4294 43.3574C13.7705 43.4929 14.1117 43.6311 14.4554 43.7667C15.7705 44.2907 17.1142 44.7208 18.5178 44.945C19.5516 45.1093 20.5881 45.1171 21.6271 45.0128C22.4292 44.932 23.2026 44.726 23.9682 44.4862C24.0307 44.4653 24.0958 44.4523 24.187 44.4314C24.3562 44.8225 24.5203 45.2031 24.6974 45.6098C24.7729 45.5551 24.8328 45.5108 24.8901 45.4664C24.9083 45.4534 24.9213 45.4325 24.9395 45.4195C25.9838 44.567 26.6921 43.4538 27.3562 42.3041C28.2337 40.7842 29.1582 39.293 30.0123 37.7627C31.0097 35.9795 31.8639 34.1337 32.2857 32.1159C32.3639 31.7431 32.4159 31.3651 32.4784 30.9897C32.4967 30.9897 32.5123 30.9844 32.5305 30.9818C32.6217 31.3625 32.7232 31.7405 32.7987 32.1263C32.9472 32.8719 32.9862 33.6306 32.9862 34.3866C32.9862 35.5102 32.8352 36.6182 32.5279 37.7001C32.1633 38.988 31.6087 40.1794 30.7962 41.2483C29.9472 42.3667 28.8952 43.24 27.6478 43.8814C27.5489 43.9335 27.4499 43.9883 27.3509 44.043C27.3431 44.0482 27.3379 44.0613 27.3171 44.0925C27.5853 44.2881 27.8614 44.4784 28.127 44.6791C29.8249 45.9592 31.0436 47.5964 31.7883 49.5881C32.1581 50.5788 32.3717 51.6008 32.4915 52.654C32.5904 53.5247 32.5878 54.3955 32.5149 55.261C32.3899 56.7001 32.0644 58.0948 31.4733 59.4192C31.3066 59.7894 31.1191 60.1518 30.9264 60.5115C30.7623 60.8166 30.4368 60.9287 30.1191 60.814C29.8769 60.7253 29.7467 60.475 29.8066 60.1726C29.8743 59.8285 29.9655 59.4896 30.041 59.1481C30.2207 58.3529 30.3248 57.5474 30.3639 56.734C30.3978 55.9988 30.4368 55.2636 30.4264 54.5284C30.403 52.7348 30.1868 50.9672 29.5983 49.2596C29.5618 49.1528 29.5228 49.0459 29.4811 48.9416C29.3379 48.5792 29.3353 48.574 28.9395 48.6105C28.7389 48.6288 28.541 48.6705 28.2988 48.707C28.3639 49.1006 28.4186 49.4786 28.4863 49.8514C28.7233 51.1628 28.9655 52.4715 29.2077 53.7802C29.3561 54.591 29.5019 55.4018 29.6556 56.21C29.7415 56.6688 29.5462 56.953 29.0827 57.0207C29.0046 57.0312 28.9238 57.0312 28.8457 57.0312C25.5749 57.0312 22.3042 57.0312 19.0334 57.0312C18.9892 57.0312 18.9423 57.026 18.898 57.0312C18.3538 57.0885 18.0517 56.76 18.1663 56.1552C18.2548 55.6912 18.2808 55.2141 18.3381 54.7422C18.4241 54.0122 18.51 53.2849 18.5933 52.5549C18.6715 51.8588 18.747 51.1628 18.8225 50.4667C18.8954 49.7941 18.9657 49.1189 19.0438 48.4463C19.0777 48.1569 19.2704 47.9926 19.5725 47.9796C20.4657 47.9379 21.3563 47.8988 22.2495 47.8571C22.3146 47.8545 22.3797 47.844 22.4865 47.8336C22.4344 47.453 22.3875 47.0906 22.3328 46.6787C20.0464 47.002 17.8121 46.955 15.6507 45.9748C15.6012 46.345 15.5465 46.6657 15.5257 46.9889C15.5205 47.0593 15.6247 47.1558 15.7002 47.2079C16.1038 47.4791 16.5048 47.7554 16.9241 48.0005C17.1533 48.136 17.2262 48.2924 17.2001 48.5532C17.1272 49.2049 17.0803 49.8593 17.0205 50.511C16.9658 51.095 16.9085 51.6816 16.8538 52.2655C16.7705 53.1311 16.6871 53.9966 16.6038 54.8621C16.5569 55.3444 16.5205 55.8293 16.4632 56.3116C16.4163 56.687 16.2314 56.8487 15.8486 56.833C15.4189 56.8148 14.9919 56.7653 14.5648 56.7235C14.0153 56.6688 13.4658 56.6088 12.9138 56.5515C12.0935 56.4655 11.2758 56.382 10.4555 56.2986C9.93988 56.2465 9.42167 56.1995 8.90345 56.15C8.40867 56.1005 7.91389 56.064 7.42171 55.9936C7.27849 55.9727 7.12745 55.8815 7.01287 55.785C6.80193 55.6025 6.79152 55.4982 6.9061 55.248C7.12745 54.7631 7.3514 54.2808 7.57796 53.8011C8.46075 51.9266 9.34615 50.0548 10.2315 48.1803C10.2732 48.0891 10.3097 47.9952 10.367 47.8597C9.88259 47.7372 9.42687 47.6172 8.96855 47.5025C8.83314 47.4686 8.76022 47.5494 8.70033 47.6563C8.54669 47.9327 8.38002 48.2038 8.2368 48.4854C7.39567 50.1512 6.86704 51.9318 6.40351 53.7281C5.92435 55.5895 5.48426 57.4587 5.02333 59.3253H5.01552ZM28.6426 58.8431C28.6608 59.1324 28.5098 59.3592 28.252 59.5104C27.989 59.6669 27.6999 59.7242 27.4056 59.7112C26.6947 59.6825 25.9838 59.6356 25.2755 59.5913C24.3849 59.5365 23.4943 59.4739 22.6037 59.4244C21.9162 59.3853 21.2261 59.3619 20.5386 59.3227C19.536 59.2654 18.5334 59.2002 17.5283 59.1429C17.01 59.1116 16.4892 59.0881 15.971 59.0568C14.9215 58.9943 13.8747 58.9317 12.8278 58.8691C12.3773 58.8431 11.9242 58.817 11.4737 58.7935C10.4815 58.744 9.48677 58.6971 8.4946 58.6449C8.09878 58.6241 7.70556 58.6058 7.31234 58.5693C7.1587 58.5537 6.99985 58.512 6.85662 58.452C6.50246 58.3008 6.3384 58.0166 6.38528 57.6751C6.42434 57.3753 6.7186 57.0885 7.05453 57.0416C7.19776 57.0207 7.3488 57.039 7.49463 57.039C7.49463 57.0338 7.49463 57.0312 7.49463 57.026C8.5545 57.0911 9.61437 57.1589 10.6716 57.2215C11.1794 57.2528 11.6872 57.271 12.195 57.2997C13.2653 57.3623 14.3356 57.43 15.4085 57.49C16.096 57.5291 16.7861 57.55 17.4736 57.5891C18.3538 57.6386 19.2313 57.7038 20.1089 57.7559C20.8094 57.795 21.5099 57.8185 22.2078 57.8576C23.2234 57.915 24.2364 57.9801 25.252 58.0401C25.7833 58.0714 26.3119 58.0948 26.8431 58.1235C27.1921 58.1418 27.541 58.16 27.89 58.1887C27.989 58.1965 28.0905 58.2252 28.1817 58.2617C28.4473 58.366 28.6192 58.5693 28.6374 58.8457L28.6426 58.8431ZM12.7914 72.7307C11.8982 73.982 11.018 75.2438 10.1352 76.503C9.54927 77.3425 8.09618 77.3685 7.59358 76.4065C7.25245 75.7548 6.89829 75.1109 6.54934 74.4617C6.20299 73.8126 5.86706 73.1582 5.50509 72.5195C5.2577 72.0815 5.31499 71.521 5.81758 71.1404C6.16393 70.8797 6.55454 70.8145 6.9712 70.8353C7.78368 70.8718 8.59616 70.9136 9.40865 70.9396C10.0987 70.9631 10.7888 70.9657 11.4763 70.9813C11.8409 70.9892 12.195 71.0439 12.5049 71.2629C12.9633 71.5914 13.2159 72.131 12.7888 72.728L12.7914 72.7307ZM25.364 73.2077C24.7859 74.0446 24.1974 74.8762 23.6115 75.7105C23.325 76.1172 23.0307 76.5186 22.7547 76.9332C22.3459 77.551 21.7599 77.7205 21.0698 77.6084C20.6297 77.538 20.3146 77.2747 20.1063 76.8758C19.7912 76.2736 19.4683 75.6766 19.148 75.077C18.8121 74.4487 18.4709 73.823 18.1428 73.1895C18.0517 73.0122 17.9579 72.8193 17.9319 72.6238C17.859 72.0971 18.2183 71.5992 18.7965 71.448C19.0855 71.3724 19.398 71.3724 19.7001 71.3385C19.7001 71.3541 19.7001 71.3724 19.7027 71.388C20.7079 71.4115 21.7157 71.4297 22.7208 71.4558C23.2286 71.4688 23.7364 71.4923 24.2442 71.521C24.6271 71.5418 24.976 71.6592 25.2494 71.9459C25.6166 72.3292 25.6635 72.7724 25.3614 73.2077H25.364ZM29.14 62.1644C28.916 62.4251 28.6296 62.5763 28.3067 62.6545C28.14 62.6936 28.0697 62.7666 28.0436 62.9465C27.9186 63.8407 27.7754 64.7323 27.6348 65.6265C27.4968 66.5077 27.3562 67.3889 27.2207 68.27C27.1556 68.695 27.0853 69.1173 27.0306 69.5423C26.9577 70.1106 26.6713 70.327 26.114 70.2592C25.6322 70.1992 25.1479 70.1653 24.6635 70.1367C23.9187 70.0923 23.174 70.035 22.4292 70.0324C21.6974 70.0324 20.9631 70.0897 20.2287 70.1262C20.0386 70.1367 19.8485 70.1732 19.6558 70.181C19.2027 70.1992 18.9136 69.8343 19.0126 69.3885C19.26 68.2622 19.5048 67.136 19.7496 66.0098C19.7574 65.9785 19.7496 65.942 19.7496 65.8429C17.9058 66.0958 16.0856 66.1844 14.2367 65.9237C14.1924 66.0958 14.1533 66.2444 14.1169 66.3956C13.8981 67.295 13.6794 68.197 13.458 69.0965C13.3382 69.5788 13.031 69.7534 12.544 69.6257C11.8096 69.4328 11.0623 69.3311 10.3123 69.2398C9.27584 69.1147 8.2368 69.1121 7.19776 69.1382C6.95037 69.1434 6.70298 69.1799 6.45298 69.1903C5.92435 69.2112 5.67175 68.9844 5.65613 68.4551C5.62748 67.3915 5.62748 66.3304 5.75248 65.2694C5.87227 64.237 6.01289 63.2072 6.23164 62.1905C6.23684 62.1696 6.23684 62.1461 6.24205 62.1227C6.30715 61.8542 6.31236 61.6091 6.11966 61.3693C5.94779 61.1555 5.88529 60.8843 5.90352 60.6002C5.92956 60.17 6.22122 59.9328 6.64308 59.9719C7.23942 60.0266 7.83837 60.0501 8.43471 60.0944C9.16646 60.1492 9.89822 60.2143 10.63 60.2639C11.2263 60.3056 11.8253 60.3291 12.4216 60.3708C13.2549 60.4281 14.0882 60.4933 14.9215 60.5506C15.0934 60.5611 15.1872 60.6654 15.2679 60.7905C15.5205 61.1711 15.6012 61.6091 15.6116 62.0523C15.6273 62.691 15.4971 63.3115 15.307 63.9189C15.2783 64.0128 15.2523 64.1092 15.2132 64.25C16.1377 64.2213 17.0257 64.1927 17.9475 64.1614C17.9267 64.0128 17.9137 63.9007 17.8954 63.7938C17.7652 63.1133 17.7027 62.4251 17.7418 61.7342C17.7652 61.3041 17.8512 60.8843 18.0569 60.4933C18.1428 60.3317 18.247 60.2613 18.4319 60.2795C19.1506 60.3499 19.8693 60.4125 20.5907 60.4724C21.2313 60.5272 21.8745 60.5741 22.5151 60.6289C23.5151 60.7149 24.5177 60.8035 25.5177 60.8922C26.2156 60.9547 26.9109 61.0225 27.6088 61.0773C27.7546 61.0903 27.9004 61.0668 28.0462 61.0564C28.3926 61.0277 28.7233 61.0799 29.0202 61.2702C29.3795 61.5022 29.4186 61.8385 29.1452 62.1592L29.14 62.1644ZM114.786 52.8104C114.5 51.4235 113.977 50.1304 113.315 48.8868C112.354 47.0776 111.125 45.4586 109.797 43.91C109.695 43.7927 109.596 43.6702 109.495 43.5503C109.547 43.4721 109.578 43.4121 109.62 43.36C110.781 41.8896 111.774 40.315 112.492 38.5787C113.151 36.9884 113.568 35.3408 113.661 33.6201C113.742 32.155 113.586 30.7081 113.164 29.2977C112.271 26.297 110.479 23.9429 107.964 22.1284C106.115 20.7936 104.052 19.9307 101.834 19.4275C100.284 19.0756 98.7113 18.9348 97.128 18.9478C96.6541 18.9504 96.1749 18.9713 95.7088 19.0495C94.6541 19.2242 93.5943 19.4015 92.5552 19.6491C89.8079 20.3061 87.2246 21.3567 84.9043 23.0018C83.3315 24.1202 81.9799 25.4576 80.9435 27.0948C79.6831 29.0917 79.0503 31.279 78.9904 33.6384C78.9539 35.1087 79.1388 36.5478 79.493 37.9686C80.0034 40.0099 80.8133 41.9339 81.8341 43.7693C82.1857 44.4002 82.558 45.0232 82.9278 45.662C82.8523 45.7767 82.7742 45.9018 82.6935 46.0217C81.6935 47.4921 80.7638 49.0016 79.9487 50.584C79.1545 52.1248 78.4696 53.7124 78.0633 55.4044C77.7326 56.7757 77.579 58.1574 77.8134 59.5704C78.0607 61.0616 78.7378 62.3182 79.7664 63.4053C80.2534 63.9163 80.8159 64.3334 81.3992 64.7245C81.5086 64.7975 81.6206 64.8548 81.6388 65.0217C81.6909 65.504 81.7664 65.9837 81.8393 66.466C82.0112 67.5948 82.1674 68.7263 82.3653 69.8525C82.6674 71.5757 83.0033 73.2964 83.321 75.017C83.5658 76.3362 83.9825 77.5953 84.5997 78.7868C84.9564 79.4776 85.4043 80.0981 86.0085 80.5934C86.6309 81.1044 87.3418 81.326 88.1517 81.2582C88.7949 81.2035 89.3834 80.9949 89.9511 80.7081C90.8678 80.2493 91.6698 79.6236 92.451 78.9692C92.8156 78.6642 93.1463 78.3305 93.4276 77.9447C94.9458 75.8695 95.7947 73.5414 96.0734 70.9944C96.1645 70.1601 96.1984 69.3259 96.1645 68.4864C96.1593 68.39 96.1723 68.2935 96.1775 68.1996H97.5785C97.5889 68.3326 97.602 68.4421 97.6072 68.5516C97.6749 70.5329 97.7374 72.5143 97.8051 74.4956C97.8311 75.2447 98.0264 75.9477 98.391 76.6047C98.8129 77.3607 99.3337 78.0411 100.016 78.5834C100.68 79.11 101.427 79.3681 102.282 79.329C102.987 79.2977 103.628 79.0631 104.245 78.745C105.24 78.2315 106.097 77.5302 106.893 76.7533C107.167 76.4848 107.464 76.2267 107.677 75.9138C108.591 74.5686 109.297 73.1191 109.805 71.5731C110.458 69.5762 110.714 67.5218 110.68 65.4284C110.669 64.7506 110.615 64.0701 110.534 63.3975C110.498 63.0977 110.576 62.9204 110.802 62.7353C111.779 61.9376 112.646 61.0329 113.359 59.9849C114.849 57.795 115.318 55.407 114.784 52.813L114.786 52.8104ZM94.8833 21.3776C98.8077 21.3619 101.646 24.5738 101.61 28.0646C101.641 31.7379 98.6176 34.7307 94.9953 34.762C91.425 34.7933 88.2558 31.9438 88.2454 28.0907C88.235 24.3157 91.2584 21.3932 94.8833 21.3776ZM92.8781 72.8975C92.5995 73.3224 92.3026 73.737 92.0083 74.1515C91.4094 75.0014 90.7974 75.8434 90.2115 76.7011C89.7193 77.4233 88.8157 77.4989 88.1595 77.173C87.9303 77.0583 87.7689 76.868 87.6491 76.6438C86.9512 75.3377 86.2585 74.0263 85.5528 72.7254C85.2455 72.1571 85.472 71.6305 85.9798 71.2994C86.2455 71.1273 86.5397 71.0726 86.8522 71.0804C87.1126 71.0856 87.373 71.0804 87.6308 71.0804C87.6308 71.0856 87.6308 71.0908 87.6308 71.096C88.5579 71.1221 89.4824 71.1456 90.4094 71.1743C90.873 71.1899 91.3339 71.2134 91.7974 71.2368C92.2141 71.2577 92.5578 71.4219 92.8312 71.7426C93.1255 72.0893 93.1542 72.4673 92.8755 72.8949L92.8781 72.8975ZM107.633 72.6264C106.875 73.7109 106.11 74.7902 105.349 75.8695C105.224 76.0442 105.094 76.2162 104.982 76.3987C104.453 77.2408 102.912 77.3503 102.36 76.2527C101.74 75.0196 101.065 73.8152 100.414 72.6003C100.373 72.5195 100.328 72.4413 100.289 72.3578C100.076 71.9042 100.162 71.5053 100.532 71.1638C100.831 70.8901 101.188 70.7754 101.584 70.7597C101.709 70.7545 101.831 70.7597 101.956 70.7597C101.956 70.7676 101.956 70.7728 101.956 70.7806C103.357 70.8223 104.755 70.8614 106.156 70.9031C106.36 70.9083 106.563 70.9292 106.763 70.9579C107.141 71.0126 107.44 71.2081 107.662 71.5132C107.906 71.8521 107.896 72.2536 107.636 72.6238L107.633 72.6264ZM109.399 61.046C109.229 61.2337 108.998 61.3693 108.779 61.5048C108.649 61.5882 108.49 61.6247 108.331 61.6899C108.305 61.9324 108.274 62.1644 108.253 62.399C108.167 63.3219 108.081 64.2448 108 65.1677C107.943 65.822 107.893 66.4738 107.836 67.1282C107.774 67.8373 107.711 68.5464 107.643 69.2529C107.615 69.5423 107.365 69.7743 107.044 69.8004C106.865 69.816 106.682 69.8056 106.503 69.8004C105.815 69.7847 105.125 69.7404 104.44 69.7586C102.904 69.7977 101.365 69.8108 99.8493 70.1262C99.6123 70.1758 99.3988 70.1132 99.2087 69.9724C99.0368 69.8447 98.9561 69.6961 98.9978 69.451C99.1931 68.2935 99.3649 67.1308 99.5394 65.9706C99.5603 65.8403 99.5576 65.7047 99.5707 65.5222C97.5785 65.968 95.6255 66.1036 93.6151 65.9837C93.5552 66.3096 93.4979 66.6172 93.4432 66.9248C93.2922 67.7695 93.1437 68.6142 92.9901 69.4588C92.9276 69.8004 92.6776 70.0193 92.3365 70.0324C92.201 70.0376 92.0656 70.0115 91.9328 69.9959C91.3052 69.9177 90.6829 69.7951 90.0527 69.7691C89.1256 69.73 88.1959 69.7326 87.2715 69.7613C86.6751 69.7795 86.0788 69.8655 85.4851 69.9437C84.9408 70.0141 84.6335 69.7769 84.5502 69.232C84.3653 68.0041 84.3653 66.7684 84.4278 65.5379C84.4825 64.4455 84.6309 63.3558 84.7455 62.2687C84.7637 62.0888 84.7455 61.9428 84.6231 61.7994C84.4434 61.5935 84.321 61.351 84.2559 61.0799C84.1908 60.8035 84.2559 60.5663 84.4252 60.3525C84.5294 60.2222 84.6596 60.1518 84.8366 60.1544C86.1152 60.17 87.3939 60.1831 88.6725 60.1961C89.7688 60.2065 90.8651 60.2196 91.9615 60.2274C92.6073 60.2326 93.2505 60.2404 93.8963 60.23C94.1151 60.2274 94.2661 60.3082 94.3781 60.4829C94.6229 60.8609 94.7739 61.2728 94.8052 61.7212C94.8572 62.4825 94.8052 63.2359 94.5734 63.9711C94.563 64.0023 94.563 64.0362 94.5526 64.1171C95.5395 64.0832 96.5056 63.945 97.5004 63.8798C97.4041 63.4444 97.2973 63.0325 97.2244 62.6128C97.0994 61.9089 97.0395 61.1998 97.1853 60.4881C97.1905 60.4646 97.1905 60.4438 97.1983 60.4203C97.365 59.7425 97.3936 59.7242 98.0837 59.7451C98.5811 59.7581 99.0785 59.7607 99.5759 59.7685C100.774 59.792 101.972 59.8155 103.17 59.8415C103.893 59.8572 104.615 59.8806 105.339 59.9015C106.063 59.9224 106.784 59.9458 107.508 59.9589C107.789 59.9641 108.073 59.9432 108.354 59.9171C108.646 59.8885 108.919 59.9432 109.18 60.0605C109.625 60.2613 109.732 60.6966 109.406 61.0538L109.399 61.046ZM95.9041 57.3206C98.6618 57.3414 101.422 57.3597 104.18 57.3857C105.039 57.3935 105.899 57.4118 106.755 57.4405C106.906 57.4457 107.071 57.4926 107.203 57.5682C107.63 57.8055 107.672 58.3217 107.307 58.6475C106.998 58.9239 106.62 58.9812 106.232 58.9812C105.487 58.9812 104.74 58.9552 103.995 58.9499C102.073 58.9369 100.151 58.9343 98.227 58.916C96.0916 58.8978 93.9536 58.8691 91.8182 58.8457C90.0448 58.8274 88.2715 58.8118 86.4981 58.7883C86.2845 58.7857 86.0684 58.7648 85.86 58.7179C85.5059 58.6371 85.2663 58.3555 85.2455 58.0349C85.2272 57.7559 85.4851 57.4066 85.8054 57.3023C85.9434 57.258 86.0918 57.2371 86.2376 57.2345C86.7689 57.2267 87.3001 57.2319 87.8314 57.2319C87.8314 57.2397 87.8314 57.2449 87.8314 57.2528C90.5214 57.2736 93.2114 57.2971 95.9041 57.3179V57.3206ZM111.695 59.8728C111.654 59.9771 111.596 60.0788 111.565 60.1857C111.482 60.4646 111.279 60.5715 111.011 60.608C110.708 60.6471 110.443 60.5037 110.404 60.2039C110.367 59.9198 110.427 59.6226 110.43 59.3332C110.44 58.7466 110.482 58.1574 110.435 57.5734C110.375 56.8096 110.274 56.0457 110.133 55.2923C109.774 53.3292 109.227 51.4183 108.451 49.5777C108.169 48.9103 107.847 48.2612 107.534 47.6094C107.401 47.3305 107.365 47.3174 107.089 47.4035C106.68 47.5286 106.276 47.6694 105.852 47.8101C105.87 47.9327 105.873 48.0344 105.896 48.1282C106.456 50.4328 107.018 52.7374 107.581 55.0446C107.604 55.1437 107.625 55.2428 107.646 55.3418C107.727 55.7172 107.57 56.0144 107.209 56.1396C107.094 56.1787 106.966 56.1943 106.844 56.2021C106.584 56.2126 106.323 56.2126 106.063 56.2152C103.12 56.2439 100.18 56.2725 97.2374 56.3012C97.1358 56.3012 97.0343 56.3064 96.9327 56.296C96.602 56.2647 96.3832 56.004 96.3885 55.6755C96.4041 54.4528 96.4171 53.2301 96.4301 52.0075C96.4431 50.8864 96.4588 49.7654 96.4744 48.6444C96.4796 48.2872 96.6306 48.1178 97.0004 48.0552C97.9353 47.8936 98.8728 47.7372 99.8076 47.5755C99.9379 47.5521 100.068 47.526 100.235 47.4921C99.9795 46.9629 99.7399 46.4649 99.4847 45.9331C97.227 46.5457 94.9614 46.8169 92.6411 46.0139V47.4764C92.7948 47.5468 92.9901 47.6329 93.1828 47.7215C93.6359 47.9275 94.0864 48.1386 94.5447 48.3342C94.7244 48.4124 94.7973 48.5114 94.7921 48.7174C94.7583 50.1539 94.7401 51.5903 94.714 53.0268C94.6958 53.9314 94.6723 54.8361 94.6489 55.7433C94.6359 56.1995 94.4197 56.4263 93.9562 56.4342C92.7349 56.4576 91.5136 56.4759 90.2922 56.4863C88.7871 56.4967 87.2819 56.4967 85.7767 56.5019C85.597 56.5019 85.4147 56.5072 85.2351 56.5228C84.7247 56.5619 84.4148 56.1969 84.5736 55.7068C84.8913 54.7266 85.2246 53.7542 85.5476 52.7765C86.0111 51.3792 86.472 49.9844 86.9329 48.587C86.946 48.5453 86.9564 48.501 86.9772 48.415C86.7949 48.3811 86.6256 48.3472 86.4538 48.3211C86.1517 48.2742 85.8496 48.2377 85.5502 48.1856C85.3705 48.1543 85.2897 48.2273 85.2116 48.3837C84.571 49.6872 84.0762 51.0481 83.6648 52.4376C83.0971 54.359 82.6961 56.3195 82.3185 58.2825C82.1804 59.0021 82.0659 59.7268 81.9357 60.475C81.4773 60.5715 81.1154 60.4073 80.8133 60.0892C80.5425 59.805 80.3732 59.4557 80.2742 59.0829C80.0711 58.3321 80.0373 57.5708 80.0919 56.7965C80.1544 55.9362 80.256 55.0811 80.48 54.2547C80.8237 52.9799 81.1961 51.7076 81.6127 50.4537C81.9643 49.4004 82.558 48.4749 83.3497 47.6876C84.0085 47.0333 84.7741 46.5353 85.6257 46.1755C86.0007 46.0165 86.3861 45.8862 86.7689 45.7428C86.86 45.7089 86.9512 45.675 87.1152 45.615C84.4382 44.2802 82.6778 42.2233 81.7586 39.4494C81.2117 37.8044 81.0893 35.6275 81.3888 34.4752C81.4279 34.5587 81.4643 34.6134 81.4825 34.6734C82.0789 36.5609 83.0476 38.2554 84.1856 39.8613C85.0502 41.0814 86.0137 42.2207 87.0189 43.3287C88.261 44.6974 89.61 45.9513 90.9511 47.2157C91.0214 47.2809 91.1047 47.3331 91.2245 47.4217C91.2896 46.9576 91.3547 46.5666 91.3938 46.1755C91.4068 46.0374 91.3808 45.881 91.3287 45.7506C91.1125 45.2162 90.8808 44.6895 90.6282 44.103C90.761 44.129 90.8469 44.1316 90.9198 44.1629C91.9537 44.5748 93.0213 44.8564 94.1281 44.9894C94.8963 45.0806 95.6619 45.0597 96.4275 44.9737C97.8311 44.8173 99.1644 44.4002 100.461 43.8527C100.521 43.8266 100.586 43.811 100.672 43.7823C100.925 44.4314 101.175 45.0676 101.438 45.7402C101.545 45.6541 101.615 45.6046 101.677 45.5446C102.498 44.7313 103.336 43.9361 104.13 43.0993C105.516 41.6445 106.781 40.0986 107.662 38.2711C108.172 37.2152 108.516 36.1046 108.711 34.9497C108.82 34.3032 108.899 33.654 108.992 33.0049C109.008 32.898 109.031 32.7937 109.052 32.6868C109.078 32.6868 109.104 32.6868 109.13 32.6868C109.289 33.5315 109.456 34.3736 109.602 35.2182C109.714 35.8674 109.745 36.5218 109.735 37.1813C109.706 39.0688 109.094 40.7243 107.815 42.1268C107.177 42.8255 106.451 43.4147 105.654 43.9231C105.55 43.9883 105.451 44.0613 105.321 44.1499C105.584 44.2933 105.818 44.421 106.05 44.5488C108.43 45.8705 110.208 47.7632 111.349 50.2373C111.917 51.4652 112.271 52.7635 112.393 54.1191C112.435 54.5806 112.503 55.0446 112.495 55.5061C112.474 57.0077 112.258 58.4807 111.69 59.8833L111.695 59.8728ZM53.0821 17.9676C54.517 18.0354 55.9493 18.1162 57.3841 18.1866C58.6836 18.2518 59.983 18.3013 61.2799 18.3769C61.7538 18.4056 62.1731 18.0354 62.1913 17.5348C62.2304 16.5051 62.2825 15.4779 62.3293 14.4481C62.3944 13.0117 62.4595 11.5778 62.5246 10.1413C62.5481 9.62253 62.5793 9.10112 62.5949 8.58233C62.6106 8.0531 62.2955 7.70637 61.7668 7.66205C61.5429 7.6438 61.3163 7.63077 61.0898 7.61512C59.5664 7.51606 58.043 7.41699 56.5222 7.31792C55.4831 7.25014 54.4467 7.18236 53.4077 7.11458C53.1629 7.09893 52.9389 7.14325 52.7462 7.31271C52.5353 7.50042 52.4624 7.73505 52.4545 8.00878C52.4077 9.52346 52.3556 11.0407 52.3061 12.5554C52.2879 13.0429 52.2723 13.5278 52.254 14.0154C52.2202 15.0112 52.1889 16.0071 52.1551 17.0004C52.1473 17.235 52.1837 17.4514 52.3322 17.6391C52.5249 17.8816 52.7827 17.9546 53.0795 17.9676H53.0821ZM53.3087 14.0805C53.3165 13.6269 53.3087 13.1759 53.3087 12.7223C53.3217 12.7223 53.3373 12.7223 53.3504 12.7223C53.379 11.8385 53.4051 10.9573 53.4389 10.0735C53.4493 9.84934 53.4649 9.61732 53.53 9.40615C53.7201 8.79089 54.3165 8.3477 54.9675 8.36334C55.6576 8.37898 56.3451 8.43894 57.0326 8.48326C58.1055 8.55104 59.1758 8.63708 60.2486 8.68922C61.0247 8.72572 61.8007 9.36704 61.7512 10.3655C61.6679 12.0627 61.6002 13.7573 61.5221 15.4544C61.5116 15.6682 61.5116 15.8872 61.4726 16.0958C61.3293 16.8753 60.6627 17.4097 59.8737 17.3758C58.1784 17.2976 56.4857 17.2142 54.7904 17.1203C53.8477 17.0682 53.228 16.3825 53.2514 15.4388C53.2618 14.9852 53.2931 14.5342 53.3009 14.0805H53.3087ZM15.2757 31.3364C17.9058 31.485 19.2183 31.5762 19.747 31.5919C20.7912 31.618 21.6766 31.6857 22.2781 31.7327C22.9526 31.7848 23.5203 31.8395 23.9344 31.8839C24.6583 32.0142 25.2833 31.7066 25.4526 31.2399C25.5567 30.9532 25.4656 30.669 25.4057 30.5256C24.6114 29.3003 23.812 28.0203 23.0177 26.6881C22.1323 25.2047 21.3042 23.7526 20.5308 22.3344C20.3277 22.569 20.1324 22.801 19.9318 23.0304C18.096 25.1239 16.2627 27.2173 14.4242 29.3081C14.0804 29.6966 14.0596 30.1189 14.2523 30.5699C14.445 31.0183 14.7627 31.3077 15.2757 31.3364ZM20.1714 25.7678C21.036 27.2694 21.9006 28.7711 22.7651 30.2727C20.7157 30.059 18.6636 29.8426 16.6142 29.6288C17.7991 28.3409 18.9866 27.0557 20.1714 25.7678ZM90.1204 28.1219C90.0995 25.4341 92.2349 23.2625 94.9093 23.2468C97.5473 23.2312 99.7347 25.382 99.7478 28.0072C99.7634 30.7107 97.6254 32.8719 94.9197 32.885C92.313 32.898 90.136 30.7368 90.1178 28.1219H90.1204ZM54.1993 15.4492C54.2227 14.5446 54.2592 13.6399 54.2904 12.7353C54.2904 12.7353 54.2904 12.7353 54.2878 12.7353C54.3191 11.8072 54.3503 10.8817 54.3842 9.95362C54.3998 9.50261 54.6446 9.27319 55.1029 9.29665C56.0404 9.34619 56.9753 9.40875 57.9128 9.46872C58.6341 9.51564 59.3554 9.56257 60.0768 9.6121C60.6627 9.65381 60.8424 9.8702 60.8163 10.4646C60.7356 12.2061 60.6601 13.945 60.582 15.6865C60.5559 16.2418 60.319 16.4581 59.7669 16.4295C58.1419 16.346 56.517 16.2626 54.892 16.1792C54.418 16.1557 54.1863 15.9237 54.1993 15.4492ZM75.7848 100.37V86.016H79.1102V100.37H75.7848ZM66.8579 86.016H70.1833V93.1931C70.1833 95.1823 69.3734 96.8743 67.7537 98.2716C66.1339 99.669 64.1704 100.368 61.8684 100.368C59.5664 100.368 57.6029 99.669 55.9831 98.2716C54.3634 96.8743 53.5535 95.1797 53.5535 93.1931V86.016H56.8789V93.1931C56.8789 94.3898 57.3633 95.4065 58.3346 96.2434C59.306 97.0802 60.483 97.4999 61.8684 97.4999C63.2538 97.4999 64.4334 97.0828 65.4022 96.2434C66.3735 95.4065 66.8579 94.3898 66.8579 93.1931V86.016ZM103.125 98.2716C104.745 96.8743 105.555 95.1797 105.555 93.1931C105.555 91.2066 104.745 89.512 103.125 88.1121C101.506 86.7147 99.542 86.016 97.24 86.016H85.597V100.37H97.24C99.5446 100.37 101.506 99.6716 103.125 98.2742V98.2716ZM88.9225 88.8864H97.2374C98.6228 88.8864 99.8024 89.3061 100.771 90.1429C101.743 90.9798 102.227 91.9965 102.227 93.1931C102.227 94.3898 101.743 95.4065 100.771 96.2434C99.7998 97.0802 98.6228 97.4999 97.2374 97.4999H88.9225V88.889V88.8864ZM28.5775 96.0635C28.5775 97.2601 28.0931 98.2768 27.1218 99.1137C26.1505 99.9505 24.9734 100.37 23.588 100.37H3.62753V97.4999H23.5854C24.0541 97.4999 24.4474 97.3618 24.7677 97.0854C25.088 96.8091 25.2494 96.4676 25.2494 96.0661C25.2494 95.6646 25.088 95.3231 24.7677 95.0467C24.4474 94.7704 24.0541 94.6322 23.5854 94.6322H16.9319C15.5465 94.6322 14.3669 94.2151 13.3981 93.3756C12.4268 92.5388 11.9424 91.522 11.9424 90.3254C11.9424 89.1288 12.4268 88.1121 13.3981 87.2752C14.3695 86.4384 15.5465 86.0186 16.9319 86.0186H26.9109V88.889H16.9319C16.4632 88.889 16.07 89.0271 15.7496 89.3035C15.4293 89.5798 15.2679 89.9213 15.2679 90.3228C15.2679 90.7243 15.4267 91.0658 15.7496 91.3422C16.07 91.6185 16.4632 91.7567 16.9319 91.7567H23.5854C24.9708 91.7567 26.1505 92.1764 27.1192 93.0133C28.0905 93.8501 28.5749 94.8669 28.5749 96.0635H28.5775ZM36.5226 108.387V111.038H42.6683L44.374 113.69H36.5226C35.2414 113.69 34.1529 113.304 33.2571 112.529C32.3613 111.755 31.9133 110.817 31.9133 109.711C31.9133 108.606 32.3613 107.667 33.2571 106.893C34.1529 106.119 35.2414 105.733 36.5226 105.733H47.2776L48.7229 103.238H48.8322L48.7749 103.149L48.814 103.082H48.7307L45.9495 98.7774C46.1734 98.6131 46.3922 98.4411 46.5979 98.2612C48.2099 96.8716 49.0145 95.1823 49.0145 93.1931C49.0145 91.204 48.2046 89.512 46.5849 88.1121C44.9651 86.7147 43.0016 86.016 40.6996 86.016C38.3976 86.016 36.4341 86.7147 34.8143 88.1121C33.1946 89.5094 32.3847 91.204 32.3847 93.1931C32.3847 95.1823 33.1946 96.8743 34.8143 98.2716C36.4341 99.669 38.395 100.368 40.6996 100.368C41.6709 100.368 42.5798 100.248 43.4287 100.008L45.4052 103.079H36.5226C34.3925 103.079 32.58 103.726 31.0852 105.016C29.5879 106.309 28.8405 107.873 28.8405 109.709C28.8405 111.544 29.5879 113.111 31.0852 114.401C32.5826 115.694 34.3951 116.338 36.5226 116.338H46.0771L47.7828 118.99H50.9051L44.2073 108.382H36.5252L36.5226 108.387ZM44.2855 96.199L42.3636 93.1931H39.0382L41.7673 97.4087C41.4209 97.4687 41.0668 97.4973 40.7022 97.4973C39.3168 97.4973 38.1372 97.0802 37.1684 96.2407C36.1971 95.4039 35.7127 94.3872 35.7127 93.1905C35.7127 91.9939 36.1971 90.9772 37.1684 90.1403C38.1398 89.3035 39.3168 88.8837 40.7022 88.8837C42.0876 88.8837 43.2673 89.3035 44.236 90.1403C45.2073 90.9772 45.6917 91.9939 45.6917 93.1905C45.6917 94.3872 45.2229 95.3596 44.2881 96.1964L44.2855 96.199ZM95.6958 103.084H111.063V105.736H98.7686V113.692H111.063V116.343H95.6958V103.082V103.084ZM102.61 108.389H111.06V111.041H102.61V108.389ZM60.233 102.422L67.9151 116.346H64.4569L60.2304 108.721L56.0039 116.346H52.5457L60.2278 102.422H60.233ZM86.6309 103.084H89.7037V116.346H86.6309V108.389L82.0216 116.346H78.9487L74.3395 108.389V116.346H71.2666V103.084H74.3395L80.4852 113.03L86.6309 103.084Z" fill="#383435"/>
<path d="M15.3148 32.2827C16.2965 32.3297 17.2809 32.3844 18.2626 32.4391C20.1714 32.546 22.0802 32.6529 23.989 32.7598C24.3718 32.7807 24.7547 32.8015 25.1765 32.825C25.2781 32.8302 26.0515 32.8563 26.4968 32.2853C26.8562 31.8265 26.778 31.2712 26.739 31.0027C26.6504 30.3666 26.3353 30.0277 25.7468 29.1934C25.3666 28.6564 25.0333 28.088 24.6687 27.538C23.9474 26.4534 23.4865 25.5879 22.6375 23.9481C21.6375 22.0163 21.4552 21.3359 20.8771 21.2603C20.1063 21.1586 19.3668 22.0971 18.9657 22.6941C18.885 22.7906 18.8277 22.861 18.7704 22.9287C18.122 23.6691 17.4736 24.4095 16.8251 25.1499C15.8095 26.3074 14.7965 27.465 13.7783 28.6199C13.5049 28.9327 13.294 29.269 13.2237 29.6887C13.0049 31.0079 13.9815 32.2176 15.3148 32.2801V32.2827ZM14.4242 29.3081C16.2627 27.2173 18.0959 25.1239 19.9318 23.0304C20.1324 22.801 20.3277 22.5716 20.5308 22.3343C21.3042 23.7526 22.1323 25.2047 23.0177 26.6881C23.8146 28.0203 24.6114 29.3003 25.4057 30.5256C25.4656 30.669 25.5567 30.9531 25.4526 31.2399C25.2833 31.7066 24.6557 32.0142 23.9344 31.8839C23.5203 31.8395 22.9526 31.7848 22.2781 31.7326C21.674 31.6857 20.7912 31.6179 19.747 31.5919C19.2183 31.5788 17.9058 31.485 15.2757 31.3364C14.7627 31.3077 14.445 31.0183 14.2523 30.5699C14.0596 30.1189 14.0804 29.6966 14.4242 29.3081ZM52.5926 19.7951C53.1603 19.8785 53.741 19.8811 54.3191 19.9124C55.9232 19.9958 57.5274 20.0741 59.1315 20.1523C59.8658 20.1888 60.6002 20.2409 61.3346 20.2513C62.7772 20.2696 63.9647 19.1486 64.0454 17.7095C64.0871 16.9743 64.121 16.2391 64.1548 15.504C64.2199 14.0909 64.2876 12.6753 64.3501 11.2623C64.3892 10.3577 64.4256 9.45306 64.4595 8.54582C64.5064 7.27359 63.5949 6.03526 62.1575 5.81887C61.7122 5.75109 61.2564 5.74588 60.8059 5.7172C59.2591 5.61553 57.7122 5.51385 56.1654 5.41479C55.2279 5.35483 54.293 5.27401 53.353 5.24533C52.0119 5.20362 50.8973 6.11608 50.6447 7.43783C50.5926 7.71418 50.5874 8.00095 50.577 8.28251C50.5275 9.67466 50.4832 11.0668 50.4364 12.459C50.4364 12.459 50.4364 12.459 50.4338 12.459C50.3843 13.9971 50.3244 15.5378 50.2905 17.076C50.2593 18.4525 51.2228 19.5996 52.5926 19.7977V19.7951ZM52.1577 17.003C52.1941 16.0071 52.2254 15.0112 52.2566 14.018C52.2723 13.5304 52.2905 13.0455 52.3087 12.558C52.3582 11.0433 52.4103 9.52606 52.4572 8.01138C52.465 7.73764 52.5379 7.50301 52.7488 7.3153C52.9415 7.14585 53.1655 7.10153 53.4103 7.11717C54.4493 7.18495 55.4857 7.25274 56.5248 7.32052C58.0482 7.41958 59.5716 7.51865 61.0924 7.61772C61.3189 7.63336 61.5429 7.6464 61.7694 7.66464C62.2981 7.70896 62.6132 8.0557 62.5975 8.58492C62.5819 9.10633 62.5507 9.62512 62.5272 10.1439C62.4621 11.5804 62.397 13.0142 62.3319 14.4507C62.2851 15.4805 62.233 16.5077 62.1939 17.5374C62.1757 18.038 61.7564 18.4056 61.2825 18.3795C59.9856 18.3039 58.6862 18.2544 57.3867 18.1892C55.9519 18.1188 54.5196 18.038 53.0847 17.9702C52.7879 17.9572 52.5301 17.8842 52.3374 17.6417C52.1889 17.454 52.1525 17.2376 52.1603 17.003H52.1577ZM94.9953 34.762C98.6176 34.7281 101.641 31.7379 101.61 28.0646C101.649 24.5738 98.8077 21.3619 94.8833 21.3776C91.2584 21.3932 88.235 24.3157 88.2454 28.0906C88.2558 31.9438 91.425 34.7959 94.9953 34.762ZM94.9093 23.2494C97.5473 23.2338 99.7347 25.3846 99.7477 28.0098C99.7634 30.7133 97.6254 32.8745 94.9197 32.8876C92.313 32.9006 90.136 30.7394 90.1178 28.1245C90.0969 25.4367 92.2323 23.265 94.9067 23.2494H94.9093ZM54.7982 17.1203C56.4909 17.2142 58.1862 17.2976 59.8815 17.3758C60.6705 17.4123 61.3372 16.8752 61.4804 16.0957C61.5194 15.8872 61.5194 15.6682 61.5299 15.4544C61.6054 13.7572 61.6731 12.0601 61.759 10.3655C61.8085 9.36703 61.0325 8.7257 60.2565 8.6892C59.1836 8.63706 58.1133 8.55364 57.0404 8.48325C56.3529 8.43893 55.6628 8.37897 54.9753 8.36333C54.3243 8.34768 53.728 8.79088 53.5379 9.40613C53.4728 9.6173 53.4545 9.84933 53.4467 10.0735C53.4103 10.9547 53.3868 11.8385 53.3582 12.7223C53.3451 12.7223 53.3295 12.7223 53.3165 12.7223C53.3165 13.1759 53.3243 13.6269 53.3165 14.0805C53.3087 14.5341 53.2774 14.9852 53.267 15.4388C53.2436 16.3825 53.8634 17.0682 54.8061 17.1203H54.7982ZM54.2878 12.7405C54.3191 11.8124 54.3503 10.8869 54.3842 9.95882C54.3998 9.50781 54.6446 9.27839 55.1029 9.30185C56.0404 9.35139 56.9753 9.41395 57.9128 9.47392C58.6341 9.52084 59.3554 9.56777 60.0768 9.6173C60.6627 9.65901 60.8424 9.8754 60.8163 10.4698C60.7356 12.2113 60.6601 13.9502 60.582 15.6917C60.5559 16.247 60.319 16.4633 59.7669 16.4347C58.1419 16.3512 56.517 16.2678 54.892 16.1844C54.418 16.1609 54.1863 15.9289 54.1993 15.4544C54.2227 14.5498 54.2592 13.6451 54.2904 12.7405C54.2904 12.7405 54.2904 12.7405 54.2878 12.7405ZM22.7651 30.2753C20.7157 30.0615 18.6636 29.8452 16.6142 29.6314C17.7991 28.3435 18.9866 27.0583 20.1714 25.7704C21.036 27.272 21.9005 28.7737 22.7651 30.2753Z" fill="#FBFBFB"/>
</g>
<defs>
<clipPath id="clip0_67_25">
<rect width="115" height="119" fill="white"/>
</clipPath>
</defs>
</svg>
